<svg width="1122" height="872" viewBox="0 0 1122 872" fill="none" xmlns="http://www.w3.org/2000/svg">
<g clip-path="url(#clip0_69:581)">
<path d="M334.144 766.702C338.456 732.054 359.945 697.915 393.014 686.639C379.973 722.302 379.975 761.425 393.022 797.087C398.104 810.822 405.186 825.569 400.407 839.412C397.433 848.025 390.158 854.615 382.025 858.736C373.893 862.856 364.867 864.82 355.954 866.745L354.2 868.194C340.051 836.269 329.832 801.351 334.144 766.702Z" fill="#F0F0F0"/>
<path d="M393.342 687.294C374.084 708.856 362.115 735.933 359.134 764.679C358.383 770.856 358.61 777.113 359.808 783.219C361.168 789.13 364.087 794.569 368.261 798.971C372.071 803.154 376.453 806.992 379.179 812.027C380.536 814.625 381.328 817.481 381.503 820.406C381.678 823.332 381.233 826.261 380.195 829.003C377.789 835.901 373.045 841.523 368.215 846.86C362.852 852.786 357.188 858.856 354.908 866.712C354.632 867.664 353.17 867.18 353.446 866.23C357.412 852.561 370.69 844.798 377.023 832.487C379.977 826.742 381.218 820.073 378.448 814.009C376.025 808.707 371.51 804.746 367.616 800.544C363.481 796.309 360.446 791.127 358.777 785.45C357.271 779.424 356.803 773.186 357.392 767.004C358.495 753.064 361.785 739.384 367.142 726.465C373.173 711.687 381.69 698.048 392.323 686.14C392.982 685.403 393.996 686.562 393.342 687.294L393.342 687.294Z" fill="white"/>
<path d="M359.549 755.367C354.79 754.212 350.597 751.405 347.719 747.446C344.84 743.488 343.463 738.636 343.834 733.756C343.851 733.558 343.945 733.373 344.095 733.242C344.246 733.11 344.441 733.043 344.641 733.053C344.84 733.062 345.028 733.149 345.164 733.295C345.301 733.441 345.376 733.634 345.373 733.833C345.019 738.376 346.302 742.896 348.99 746.576C351.678 750.257 355.594 752.856 360.032 753.905C360.996 754.134 360.507 755.594 359.549 755.367Z" fill="white"/>
<path d="M366.05 797.104C374.645 791.976 380.99 783.8 383.819 774.205C384.099 773.254 385.561 773.738 385.282 774.687C382.318 784.666 375.698 793.162 366.743 798.479C365.889 798.985 365.201 797.608 366.05 797.104Z" fill="white"/>
<path d="M374.602 713.144C376.35 713.974 378.277 714.358 380.21 714.26C382.143 714.161 384.021 713.585 385.676 712.582C386.523 712.066 387.21 713.444 386.369 713.957C384.535 715.056 382.46 715.69 380.325 715.803C378.189 715.916 376.059 715.505 374.119 714.605C373.929 714.536 373.773 714.397 373.682 714.216C373.591 714.036 373.572 713.827 373.629 713.634C373.694 713.44 373.833 713.281 374.015 713.189C374.197 713.097 374.408 713.081 374.602 713.144Z" fill="white"/>
<path d="M493.812 748.526C493.293 748.863 492.773 749.201 492.253 749.552C485.288 754.128 478.708 759.262 472.575 764.903C472.094 765.332 471.613 765.773 471.145 766.215C456.516 779.963 444.569 796.306 435.91 814.412C432.471 821.62 429.586 829.08 427.28 836.725C424.095 847.284 421.483 858.986 415.179 867.623C414.531 868.531 413.828 869.399 413.073 870.22H356.106C355.977 870.155 355.847 870.103 355.716 870.038L353.442 870.142C353.533 869.74 353.637 869.324 353.728 868.921C353.78 868.688 353.845 868.454 353.897 868.22C353.936 868.064 353.975 867.908 354.001 867.766C354.014 867.714 354.027 867.662 354.04 867.623C354.066 867.48 354.105 867.35 354.131 867.22C354.703 864.895 355.292 862.57 355.899 860.246C355.899 860.233 355.899 860.233 355.911 860.22C360.363 842.461 366.908 825.292 375.407 809.074C375.667 808.594 375.927 808.1 376.213 807.619C380.149 800.44 384.666 793.595 389.718 787.151C392.495 783.631 395.449 780.254 398.569 777.033C406.645 768.726 415.978 761.74 426.227 756.331C446.659 745.551 470.313 741.421 492.149 748.006C492.708 748.175 493.254 748.344 493.812 748.526Z" fill="#F0F0F0"/>
<path d="M493.685 749.248C465.317 754.878 439.446 769.297 419.746 790.456C415.424 794.936 411.836 800.068 409.113 805.665C406.638 811.202 405.691 817.3 406.372 823.327C406.894 828.959 408.08 834.659 407.223 840.32C406.741 843.21 405.653 845.967 404.03 848.408C402.407 850.85 400.286 852.921 397.806 854.485C391.728 858.545 384.553 860.18 377.481 861.536C369.629 863.041 361.449 864.48 354.895 869.381C354.101 869.975 353.226 868.709 354.019 868.116C365.421 859.589 380.7 861.378 393.174 855.358C398.994 852.549 404.002 847.971 405.444 841.462C406.705 835.771 405.487 829.892 404.909 824.194C404.159 818.325 404.858 812.361 406.946 806.824C409.374 801.108 412.759 795.846 416.954 791.263C426.234 780.797 437.104 771.854 449.164 764.761C462.884 756.59 477.901 750.824 493.566 747.714C494.536 747.522 494.648 749.057 493.684 749.248H493.685Z" fill="white"/>
<path d="M425.688 783.27C422.584 779.485 420.927 774.721 421.014 769.828C421.101 764.936 422.925 760.233 426.161 756.561C426.818 755.82 428.001 756.806 427.343 757.548C424.323 760.962 422.624 765.342 422.553 769.899C422.482 774.455 424.042 778.886 426.954 782.393C427.585 783.156 426.316 784.028 425.688 783.27Z" fill="white"/>
<path d="M405.731 820.506C415.683 821.582 425.676 818.871 433.716 812.912C434.512 812.321 435.388 813.587 434.593 814.177C426.214 820.362 415.81 823.163 405.456 822.02C404.469 821.91 404.75 820.397 405.731 820.506Z" fill="white"/>
<path d="M463.146 758.613C464.042 760.328 465.35 761.793 466.952 762.878C468.554 763.962 470.401 764.632 472.327 764.827C473.315 764.924 473.033 766.438 472.052 766.342C469.926 766.116 467.887 765.374 466.114 764.179C464.34 762.985 462.887 761.375 461.88 759.49C461.771 759.32 461.73 759.115 461.766 758.916C461.802 758.717 461.912 758.539 462.075 758.419C462.243 758.304 462.45 758.26 462.651 758.296C462.851 758.333 463.029 758.447 463.146 758.614L463.146 758.613Z" fill="white"/>
<path d="M384.094 269.02H195.619C189.795 269.013 184.211 266.698 180.093 262.583C175.974 258.467 173.658 252.887 173.651 247.067V144.491C173.658 138.671 175.975 133.092 180.093 128.976C184.211 124.861 189.795 122.547 195.619 122.54H384.094C389.918 122.547 395.502 124.861 399.62 128.976C403.738 133.092 406.055 138.671 406.061 144.491V247.067C406.055 252.887 403.738 258.467 399.62 262.583C395.502 266.698 389.918 269.013 384.094 269.02Z" fill="#E6E6E6"/>
<path d="M671.839 269.02H483.365C477.541 269.013 471.957 266.698 467.838 262.583C463.72 258.467 461.403 252.887 461.397 247.067V144.491C461.404 138.671 463.72 133.092 467.838 128.976C471.957 124.861 477.541 122.547 483.365 122.54H671.839C677.663 122.546 683.247 124.861 687.366 128.976C691.484 133.092 693.801 138.671 693.807 144.491V247.067C693.801 252.887 691.484 258.467 687.366 262.583C683.247 266.698 677.664 269.013 671.839 269.02Z" fill="#D7D7D7"/>
<path d="M959.585 269.02H771.111C765.287 269.013 759.703 266.698 755.584 262.583C751.466 258.467 749.15 252.887 749.143 247.067V144.491C749.15 138.671 751.466 133.092 755.584 128.976C759.703 124.861 765.287 122.547 771.111 122.54H959.585C965.41 122.546 970.993 124.861 975.112 128.976C979.23 133.092 981.547 138.671 981.553 144.491V247.067C981.547 252.887 979.23 258.467 975.112 262.583C970.993 266.698 965.41 269.013 959.585 269.02Z" fill="#E6E6E6"/>
<path d="M384.094 497.572H195.619C189.795 497.565 184.211 495.25 180.093 491.135C175.974 487.019 173.658 481.44 173.651 475.619V373.043C173.658 367.223 175.975 361.644 180.093 357.528C184.211 353.413 189.795 351.099 195.619 351.092H384.094C389.918 351.099 395.502 353.413 399.62 357.528C403.738 361.644 406.055 367.223 406.061 373.043V475.619C406.055 481.439 403.738 487.019 399.62 491.135C395.502 495.25 389.918 497.565 384.094 497.572Z" fill="#F2F2F2"/>
<path d="M671.839 497.572H483.365C477.541 497.565 471.957 495.25 467.838 491.135C463.72 487.019 461.403 481.44 461.397 475.619V373.043C461.404 367.223 463.72 361.644 467.838 357.528C471.957 353.413 477.541 351.099 483.365 351.092H671.839C677.663 351.099 683.247 353.413 687.366 357.528C691.484 361.644 693.801 367.223 693.807 373.043V475.619C693.801 481.439 691.484 487.019 687.366 491.135C683.247 495.25 677.664 497.565 671.839 497.572Z" fill="#D9D9D9"/>
<path d="M649.423 210.739C650.037 212.596 650.237 214.564 650.007 216.506C649.778 218.447 649.125 220.315 648.095 221.977C647.065 223.64 645.683 225.056 644.046 226.127C642.409 227.198 640.557 227.897 638.62 228.175L623.055 334.342L597.522 321.881L623.204 215.906C622.952 212.624 623.913 209.364 625.906 206.743C627.899 204.122 630.785 202.323 634.017 201.686C637.249 201.049 640.602 201.619 643.441 203.287C646.281 204.956 648.409 207.608 649.423 210.739L649.423 210.739Z" fill="#9E616A"/>
<path d="M463.515 550.766C464.652 549.175 465.425 547.353 465.781 545.431C466.138 543.509 466.067 541.531 465.576 539.639C465.085 537.746 464.184 535.985 462.938 534.477C461.692 532.97 460.13 531.755 458.362 530.916L468.863 417.987L446.869 429.252L440.002 538.074C438.789 541.135 438.741 544.533 439.868 547.626C440.995 550.719 443.219 553.292 446.117 554.856C449.015 556.42 452.387 556.868 455.594 556.114C458.8 555.36 461.619 553.457 463.515 550.766H463.515Z" fill="#9E616A"/>
<path d="M478.54 493.649L572.923 490.022L578.368 392.082H469.465L478.54 493.649Z" fill="#9E616A"/>
<path d="M461.023 839.531L477.152 839.529L484.824 777.368H461.021L461.023 839.531Z" fill="#9E616A"/>
<path d="M457.023 831.58L482.518 830.06V840.975L506.757 857.703C507.955 858.529 508.856 859.716 509.331 861.09C509.805 862.465 509.828 863.955 509.395 865.343C508.962 866.731 508.096 867.944 506.924 868.806C505.752 869.667 504.335 870.132 502.88 870.132H472.527L467.295 859.335L465.252 870.132H453.808L457.023 831.58Z" fill="#2F2E41"/>
<path d="M532.759 839.531L548.888 839.529L556.56 777.368H532.756L532.759 839.531Z" fill="#9E616A"/>
<path d="M477.231 470.658C477.231 470.658 448.991 493.44 464.3 574.801C461.969 575.079 464.609 579.671 464.609 579.671L466.818 645.965L468.525 653.563L462.849 665.823L465.189 679.144L457.976 800.043L484.622 803.486L510.121 677.94L514.977 663.825L519.848 651.452L517.22 638.259L519.375 617.78L534.075 548.73L537.674 668.488L532.652 679.921L535.447 692.472L529.221 699.134L526.76 811.184L555.172 812.512L578.681 699.558L576.858 685.144L579.985 674.486V649.591L585.342 637.842L597.02 573.778C597.02 573.778 600.543 523.705 574.839 464.782L477.231 470.658Z" fill="#2F2E41"/>
<path d="M488.74 310.685C488.74 310.685 453.072 317.733 446.926 348.13C440.78 378.526 436.826 447.311 436.826 447.311L438.172 456.89L472.675 464.884L494.696 368.505L488.74 310.685Z" fill="#3F3D56"/>
<path d="M570.14 320.945C570.14 320.945 573.756 315.882 594.003 315.101C594.836 315.069 593.804 313.416 593.804 313.416L603.541 265.859L635.991 283.812L630.513 333.67L577.191 394.274L570.14 320.945Z" fill="#E6E6E6"/>
<path d="M549.913 462.722C534.637 462.723 511.642 461.038 477.024 455.903C474.794 455.567 472.731 454.527 471.134 452.936C469.538 451.344 468.492 449.285 468.15 447.057C467.02 445.865 466.284 444.353 466.044 442.728C465.803 441.103 466.069 439.443 466.806 437.974L466.838 437.911L466.053 436.987C464.84 435.563 464.128 433.781 464.025 431.914C463.921 430.047 464.434 428.197 465.483 426.649L454.762 350.01C453.674 342.4 455.339 334.651 459.458 328.158C463.577 321.665 469.88 316.854 477.232 314.59L481.19 313.359L496.156 293.797L496.451 293.8L544.499 294.439L560.091 314.225L585.296 320.164L585.361 320.547L591.214 354.335C594.257 371.908 587.277 378.821 578.367 394.274L580.982 437.676L582.169 439.83C582.827 441.022 583.048 442.407 582.792 443.745C582.537 445.082 581.821 446.289 580.77 447.155C581.565 449.425 581.619 451.889 580.925 454.192L580.308 456.228C580.309 456.286 580.145 457.114 578.814 458.124C576.415 459.945 569.525 462.722 549.913 462.722Z" fill="#3F3D56"/>
<path d="M528.759 831.58L554.254 830.06V840.975L578.493 857.703C579.691 858.529 580.592 859.716 581.067 861.09C581.541 862.465 581.564 863.955 581.131 865.343C580.698 866.731 579.832 867.944 578.66 868.806C577.488 869.667 576.071 870.132 574.616 870.132H544.263L539.031 859.335L536.988 870.132H525.544L528.759 831.58Z" fill="#2F2E41"/>
<path d="M555.536 251.168C558.868 230.648 544.923 211.315 524.388 207.985C503.854 204.655 484.506 218.59 481.174 239.109C477.841 259.629 491.787 278.962 512.321 282.292C532.856 285.622 552.204 271.687 555.536 251.168Z" fill="#9E616A"/>
<path d="M540.381 208.36C526.575 198.872 514.418 197.427 504.431 200.118C503.136 198.117 501.321 196.506 499.179 195.458C491.391 175.847 467.687 164.069 447.345 169.794C426.872 175.557 412.746 198.218 416.598 219.121C418.985 232.078 427.146 243.298 430.428 256.057C436.781 280.758 421.282 309.052 397.036 317.014C419.993 321.62 445.263 307.608 453.499 285.705C457.499 275.066 457.74 263.451 458.249 252.097C458.382 244.261 459.343 236.46 461.115 228.825C461.995 225.399 463.237 222.077 464.822 218.915C468.273 211.965 474.005 206.408 481.062 203.171C480.43 205.124 480.272 207.199 480.601 209.225C480.93 211.251 481.736 213.17 482.954 214.823C477.57 221.562 474.639 228.851 474.639 233.215C463.455 253.641 479.449 271.187 499.89 282.362C508.043 286.843 517.458 288.483 526.647 287.024L527.503 283.376L528.661 286.662L532.529 297.678C536.991 299.835 541.415 302.2 545.799 304.772C544.133 296.954 542.786 289.152 541.859 281.523C540.575 271.139 545.05 255.681 548.279 246.28C550.28 240.486 551.308 234.401 551.319 228.272V228.004L554.462 238.094L565.907 233.215C563.778 221.012 565.907 207.158 540.381 208.36Z" fill="#2F2E41"/>
<path d="M1011.06 872H173.945C173.481 871.998 173.036 871.812 172.708 871.483C172.381 871.154 172.197 870.709 172.197 870.244C172.197 869.78 172.381 869.335 172.708 869.006C173.036 868.677 173.481 868.491 173.945 868.489H1011.06C1011.52 868.491 1011.96 868.677 1012.29 869.006C1012.62 869.335 1012.8 869.78 1012.8 870.244C1012.8 870.709 1012.62 871.154 1012.29 871.483C1011.96 871.812 1011.52 871.998 1011.06 872Z" fill="#CCCCCC"/>
<path d="M393.553 520.867C412.144 520.867 427.216 505.807 427.216 487.23C427.216 468.653 412.144 453.593 393.553 453.593C374.962 453.593 359.891 468.653 359.891 487.23C359.891 505.807 374.962 520.867 393.553 520.867Z" fill="#E6E6E6"/>
<path d="M900.038 467.898H781.969C778.321 467.894 774.823 466.444 772.243 463.866C769.663 461.287 768.212 457.792 768.208 454.146V389.888C768.212 386.242 769.663 382.747 772.243 380.169C774.823 377.591 778.321 376.141 781.969 376.137H900.038C903.686 376.141 907.184 377.591 909.764 380.169C912.344 382.747 913.795 386.242 913.799 389.888V454.146C913.795 457.792 912.344 461.287 909.764 463.866C907.184 466.444 903.686 467.894 900.038 467.898Z" fill="#F2F2F2"/>
<path d="M909.2 422.433H903.122V416.36C903.122 416.172 903.085 415.986 903.014 415.813C902.942 415.639 902.836 415.482 902.704 415.349C902.571 415.216 902.413 415.111 902.24 415.039C902.066 414.968 901.88 414.931 901.692 414.931C901.313 414.931 900.949 415.081 900.681 415.349C900.413 415.617 900.262 415.981 900.262 416.36V422.433H894.184C893.805 422.433 893.441 422.584 893.173 422.852C892.905 423.12 892.754 423.483 892.754 423.862C892.754 424.05 892.791 424.236 892.863 424.409C892.935 424.583 893.04 424.74 893.173 424.873C893.306 425.006 893.463 425.111 893.637 425.183C893.81 425.255 893.996 425.292 894.184 425.292H900.262V431.365C900.262 431.553 900.299 431.739 900.371 431.912C900.443 432.085 900.548 432.243 900.681 432.376C900.814 432.508 900.972 432.614 901.145 432.685C901.319 432.757 901.505 432.794 901.692 432.794C902.072 432.794 902.435 432.644 902.704 432.376C902.972 432.108 903.122 431.744 903.122 431.365V425.292H909.201C909.58 425.292 909.944 425.141 910.212 424.873C910.48 424.605 910.631 424.241 910.631 423.862C910.631 423.675 910.594 423.489 910.522 423.316C910.45 423.142 910.345 422.985 910.212 422.852C910.079 422.719 909.921 422.614 909.748 422.542C909.574 422.47 909.388 422.433 909.201 422.433L909.2 422.433Z" fill="white"/>
</g>
<defs>
<clipPath id="clip0_69:581">
<rect width="1185" height="872" fill="white"/>
</clipPath>
</defs>
</svg>
