<svg width="1111" height="751" viewBox="0 0 1111 751" fill="none" xmlns="http://www.w3.org/2000/svg">
<path d="M74.7676 565.92C69.492 565.92 64.2056 566.137 59.043 566.576L58.2917 566.639C24.0481 569.665 -0.999486 587.219 0.0306511 607.473L0.2298 611.136C0.361129 613.451 0.501056 615.94 0.61623 618.701C0.67861 620.063 2.53769 621.108 4.85095 621.108H847.16C906.547 620.748 965.719 620.294 1023.02 619.76C1033.77 619.782 1044.51 619.226 1055.2 618.093C1071.12 616.209 1082.17 612.475 1088.99 606.677H1088.99C1097.47 599.487 1097.74 590.433 1097.22 580.203C1096.18 559.548 1095.14 537.848 1094.11 516.215C1093.2 497.148 1092.29 478.133 1091.38 459.928C1090.82 449.124 1089.57 439.588 1079.94 432.3C1069.51 424.418 1050.48 420.422 1023.39 420.422C1023.06 420.422 1022.74 420.422 1022.41 420.424C937.497 420.726 853.365 449.908 813.056 493.041C808.415 498.008 804.09 503.326 799.907 508.469C793.726 516.067 787.336 523.922 779.711 530.946C775.582 534.801 771.117 538.28 766.369 541.341C766.042 541.567 765.667 541.81 765.271 542.04C764.365 542.63 763.418 543.199 762.494 543.706C757.086 546.828 751.388 549.417 745.48 551.438L744.884 551.638C744.435 551.798 743.948 551.959 743.462 552.105C740.049 553.2 736.505 554.147 732.953 554.912C717.588 558.297 700.117 559.109 681.026 557.322C663.494 555.637 646.188 552.112 629.395 546.805C611.716 541.221 595.17 534.258 579.167 527.525C572.138 524.566 564.868 521.508 557.607 518.61C556.242 518.065 554.9 517.532 553.537 516.999C544.67 513.544 536.63 510.691 528.959 508.276C509.955 502.271 490.283 498.629 470.388 497.433C449.27 496.277 430.661 498.457 415.089 503.896C410.796 505.39 406.616 507.19 402.581 509.283C384.137 518.856 372.767 532.986 361.772 546.65C348.095 563.646 333.952 581.222 306.025 590.333C273.8 600.856 226.761 596.485 193.482 588.882C183.019 586.491 172.569 583.741 162.463 581.08C158.381 580.006 154.296 578.938 150.209 577.878C142.176 575.805 135.602 574.217 129.521 572.876L127.597 572.449C126.527 572.216 125.456 571.984 124.365 571.763C117.141 570.247 110.415 569.054 103.79 568.116L102.223 567.887C99.081 567.473 96.1434 567.129 93.2608 566.839L92.1101 566.725C86.4642 566.188 80.6213 565.92 74.7676 565.92Z" fill="#F2F2F2"/>
<path d="M945.764 588.525C969.465 567.177 1004.72 556.443 1034.29 568.413C1003.96 585.246 980.557 612.262 968.232 644.679C963.525 657.199 959.593 671.613 948.014 678.316C940.809 682.486 931.846 682.69 923.767 680.677C915.689 678.663 908.284 674.627 900.981 670.632L898.903 670.585C908.232 640.088 922.063 609.873 945.764 588.525Z" fill="#E6E6E6"/>
<path d="M1034.12 569.061C1007.93 572.444 983.476 583.99 964.225 602.058C960.011 605.874 956.426 610.33 953.601 615.262C951.004 620.155 949.765 625.654 950.014 631.188C950.142 636.352 950.871 641.62 949.741 646.725C949.124 649.33 947.962 651.775 946.334 653.899C944.705 656.024 942.645 657.78 940.289 659.054C934.502 662.379 927.865 663.427 921.338 664.226C914.092 665.114 906.551 665.922 900.279 669.984C899.519 670.476 898.799 669.269 899.558 668.777C910.471 661.709 924.28 664.281 936.015 659.564C941.49 657.363 946.336 653.499 948.05 647.657C949.55 642.548 948.803 637.116 948.628 631.888C948.306 626.493 949.311 621.102 951.555 616.185C954.12 611.125 957.527 606.539 961.632 602.621C970.731 593.655 981.185 586.175 992.61 580.455C1005.61 573.854 1019.65 569.525 1034.11 567.656C1035.01 567.54 1035.01 568.947 1034.12 569.061H1034.12Z" fill="white"/>
<path d="M970.081 595.875C967.487 592.235 966.272 587.792 966.652 583.339C967.033 578.886 968.985 574.713 972.16 571.566C972.804 570.931 973.821 571.902 973.176 572.538C970.214 575.463 968.396 579.35 968.05 583.498C967.704 587.645 968.853 591.779 971.289 595.155C971.817 595.889 970.607 596.605 970.081 595.875V595.875Z" fill="white"/>
<path d="M949.604 628.578C958.604 630.172 967.874 628.317 975.566 623.382C976.328 622.892 977.048 624.1 976.287 624.589C968.273 629.709 958.622 631.62 949.26 629.941C948.368 629.78 948.716 628.418 949.604 628.578Z" fill="white"/>
<path d="M1005.73 575.714C1006.44 577.332 1007.54 578.748 1008.93 579.835C1010.32 580.922 1011.96 581.646 1013.71 581.943C1014.6 582.092 1014.25 583.454 1013.36 583.305C1011.44 582.969 1009.63 582.167 1008.09 580.969C1006.54 579.772 1005.32 578.215 1004.52 576.435C1004.43 576.273 1004.4 576.084 1004.45 575.905C1004.49 575.726 1004.61 575.571 1004.76 575.471C1004.92 575.377 1005.11 575.349 1005.29 575.395C1005.47 575.44 1005.63 575.555 1005.73 575.714Z" fill="white"/>
<path d="M1066.85 671.363C1066.29 671.286 1065.73 671.209 1065.16 671.14C1057.62 670.139 1050 669.752 1042.4 669.984C1041.81 669.993 1041.21 670.01 1040.62 670.035C1022.3 670.789 1004.28 674.935 987.474 682.264C980.789 685.187 974.336 688.614 968.171 692.515C959.657 697.903 950.855 704.422 941.337 706.62C940.347 706.86 939.342 707.039 938.33 707.155L899.007 673.122C898.956 673 898.898 672.886 898.847 672.764L897.214 671.477C897.518 671.253 897.838 671.028 898.142 670.805C898.318 670.674 898.502 670.552 898.678 670.421C898.798 670.337 898.918 670.253 899.022 670.17C899.062 670.141 899.102 670.113 899.134 670.094C899.237 670.011 899.342 669.945 899.438 669.871C901.223 668.607 903.02 667.354 904.83 666.111C904.837 666.102 904.837 666.102 904.854 666.101C918.549 656.498 933.335 648.553 948.903 642.433C949.37 642.257 949.845 642.071 950.33 641.91C957.34 639.304 964.553 637.276 971.894 635.845C975.917 635.074 979.976 634.507 984.055 634.147C994.599 633.236 1005.22 633.988 1015.53 636.376C1036.08 641.139 1054.88 652.419 1066.01 670.011C1066.3 670.461 1066.57 670.904 1066.85 671.363Z" fill="#E6E6E6"/>
<path d="M1066.33 671.786C1043.38 658.726 1016.9 653.226 990.646 656.066C984.983 656.578 979.436 657.978 974.21 660.216C969.189 662.56 964.887 666.205 961.753 670.773C958.744 674.973 956.154 679.618 952.176 683.014C950.114 684.723 947.715 685.976 945.134 686.692C942.554 687.408 939.851 687.571 937.203 687.17C930.58 686.342 924.649 683.185 918.956 679.896C912.636 676.244 906.129 672.35 898.673 671.819C897.77 671.755 897.923 670.358 898.825 670.422C911.796 671.346 921.273 681.71 933.483 685.005C939.181 686.543 945.377 686.373 950.265 682.741C954.54 679.565 957.215 674.777 960.224 670.498C963.217 665.997 967.267 662.297 972.02 659.722C977.115 657.225 982.599 655.614 988.236 654.956C1000.9 653.273 1013.75 653.592 1026.32 655.9C1040.68 658.454 1054.49 663.445 1067.17 670.656C1067.95 671.102 1067.11 672.229 1066.33 671.786V671.786Z" fill="white"/>
<path d="M999.046 654.654C999.167 650.186 1000.87 645.907 1003.86 642.581C1006.85 639.255 1010.92 637.097 1015.35 636.495C1016.24 636.376 1016.47 637.764 1015.57 637.883C1011.45 638.436 1007.65 640.446 1004.88 643.549C1002.1 646.652 1000.53 650.645 1000.44 654.805C1000.42 655.71 999.026 655.553 999.046 654.654V654.654Z" fill="white"/>
<path d="M962.998 668.442C969.224 675.131 977.743 679.229 986.857 679.918C987.76 679.985 987.608 681.382 986.706 681.315C977.223 680.58 968.366 676.298 961.902 669.323C961.287 668.658 962.385 667.781 962.998 668.442H962.998Z" fill="white"/>
<path d="M1039.65 660.008C1039.24 661.727 1039.27 663.52 1039.73 665.226C1040.18 666.932 1041.06 668.498 1042.27 669.783C1042.89 670.44 1041.79 671.317 1041.17 670.664C1039.84 669.238 1038.88 667.508 1038.37 665.624C1037.86 663.74 1037.82 661.76 1038.25 659.857C1038.28 659.674 1038.37 659.508 1038.52 659.392C1038.66 659.276 1038.84 659.22 1039.03 659.234C1039.21 659.255 1039.38 659.348 1039.5 659.493C1039.61 659.638 1039.67 659.823 1039.65 660.008Z" fill="white"/>
<path d="M325.322 609.756C344.729 580.333 379.446 559.05 414.405 563.63C386.647 590.068 369.141 625.469 364.982 663.568C363.431 678.267 363.238 694.777 352.719 705.165C346.175 711.629 336.644 714.34 327.444 714.433C318.244 714.526 309.201 712.268 300.277 710.025L298.042 710.553C299.532 675.342 305.915 639.179 325.322 609.756Z" fill="#E6E6E6"/>
<path d="M414.409 564.369C387.339 575.27 364.395 594.419 348.833 619.097C345.389 624.35 342.794 630.113 341.145 636.173C339.73 642.129 339.936 648.355 341.742 654.204C343.316 659.692 345.562 665.123 345.774 670.898C345.839 673.855 345.278 676.793 344.127 679.518C342.976 682.244 341.262 684.695 339.096 686.712C333.832 691.877 327.025 694.844 320.268 697.514C312.765 700.479 304.924 703.439 299.347 709.528C298.671 710.266 297.565 709.175 298.24 708.438C307.944 697.844 323.43 696.754 334.667 688.446C339.911 684.569 344.017 679.089 344.226 672.364C344.408 666.484 342.096 660.881 340.454 655.339C338.609 649.658 338.183 643.613 339.214 637.73C340.549 631.605 342.917 625.752 346.217 620.421C353.454 608.301 362.552 597.394 373.179 588.099C385.248 577.424 399.055 568.891 414.004 562.869C414.929 562.497 415.328 563.999 414.409 564.369L414.409 564.369Z" fill="white"/>
<path d="M353.376 610.856C349.588 607.684 347.052 603.27 346.22 598.401C345.387 593.533 346.314 588.527 348.833 584.278C349.345 583.42 350.703 584.176 350.19 585.035C347.837 588.988 346.974 593.651 347.759 598.183C348.543 602.715 350.922 606.817 354.467 609.75C355.236 610.388 354.141 611.49 353.376 610.856Z" fill="white"/>
<path d="M340.577 651.527C350.646 650.729 360.045 646.167 366.899 638.75C367.577 638.014 368.683 639.106 368.005 639.84C360.859 647.545 351.069 652.273 340.588 653.08C339.589 653.156 339.583 651.603 340.577 651.527H340.577Z" fill="white"/>
<path d="M385.888 579.381C387.098 580.914 388.67 582.122 390.462 582.897C392.254 583.673 394.211 583.991 396.157 583.823C397.154 583.734 397.159 585.288 396.168 585.377C394.018 585.552 391.857 585.198 389.875 584.345C387.893 583.493 386.149 582.169 384.798 580.488C384.657 580.34 384.578 580.144 384.576 579.94C384.575 579.736 384.651 579.539 384.789 579.389C384.935 579.244 385.131 579.161 385.337 579.16C385.543 579.158 385.741 579.238 385.888 579.381H385.888Z" fill="white"/>
<path d="M477.885 664.683C477.264 664.757 476.643 664.83 476.015 664.914C467.667 665.942 459.417 667.646 451.345 670.009C450.718 670.181 450.086 670.366 449.465 670.556C430.079 676.456 411.958 685.903 396.022 698.415C389.686 703.4 383.738 708.859 378.23 714.746C370.624 722.877 363.024 732.297 353.456 737.294C352.464 737.826 351.44 738.297 350.389 738.703L298.859 713.238C298.771 713.121 298.677 713.016 298.588 712.899L296.484 711.976C296.747 711.653 297.027 711.323 297.29 711C297.441 710.811 297.604 710.629 297.756 710.441C297.861 710.317 297.966 710.193 298.054 710.076C298.089 710.034 298.124 709.993 298.153 709.964C298.24 709.846 298.334 709.746 298.416 709.64C299.973 707.793 301.547 705.952 303.136 704.12C303.142 704.108 303.142 704.108 303.159 704.102C315.302 690.171 328.716 677.131 343.684 666.54C344.134 666.222 344.59 665.891 345.064 665.584C351.837 660.848 358.986 656.673 366.44 653.1C370.527 651.158 374.711 649.423 378.974 647.903C389.997 643.996 401.566 641.847 413.257 641.534C436.563 640.914 459.808 647.751 476.613 663.47C477.043 663.872 477.462 664.269 477.885 664.683Z" fill="#E6E6E6"/>
<path d="M477.446 665.28C449.266 657.693 419.412 659.175 392.123 669.514C386.209 671.635 380.666 674.675 375.699 678.522C370.981 682.425 367.395 687.52 365.314 693.277C363.266 698.606 361.788 704.294 358.479 709.033C356.749 711.433 354.531 713.441 351.971 714.924C349.41 716.408 346.565 717.334 343.621 717.641C336.307 718.597 329.085 716.87 322.081 714.935C314.305 712.786 306.261 710.432 298.14 711.937C297.156 712.119 296.93 710.583 297.913 710.4C312.043 707.782 325.063 716.231 339.04 716.36C345.562 716.42 352.142 714.516 356.359 709.272C360.046 704.686 361.575 698.822 363.603 693.408C365.551 687.762 368.852 682.679 373.219 678.602C377.974 674.515 383.39 671.267 389.236 668.996C402.315 663.674 416.149 660.441 430.233 659.415C446.3 658.154 462.464 659.651 478.026 663.838C478.989 664.098 478.403 665.538 477.446 665.28Z" fill="white"/>
<path d="M400.714 665.668C399.6 660.856 400.234 655.805 402.502 651.416C404.77 647.028 408.524 643.589 413.095 641.713C414.021 641.336 414.65 642.757 413.723 643.134C409.463 644.873 405.966 648.078 403.863 652.168C401.759 656.259 401.187 660.966 402.251 665.441C402.481 666.413 400.943 666.635 400.714 665.668H400.714Z" fill="white"/>
<path d="M365.997 690.439C374.517 695.861 384.77 697.875 394.709 696.077C395.694 695.898 395.92 697.435 394.936 697.614C384.589 699.465 373.925 697.348 365.07 691.686C364.227 691.145 365.158 689.901 365.997 690.439V690.439Z" fill="white"/>
<path d="M445.631 660.103C445.674 662.054 446.201 663.965 447.165 665.662C448.129 667.36 449.5 668.792 451.155 669.829C452.005 670.358 451.073 671.602 450.228 671.076C448.406 669.922 446.894 668.338 445.824 666.465C444.755 664.592 444.161 662.485 444.094 660.33C444.071 660.127 444.126 659.923 444.247 659.759C444.369 659.595 444.548 659.484 444.749 659.448C444.953 659.419 445.16 659.471 445.325 659.594C445.49 659.716 445.6 659.899 445.631 660.103V660.103Z" fill="white"/>
<path d="M463.444 389.164C464.731 387.883 465.723 386.336 466.347 384.631C466.972 382.926 467.215 381.105 467.06 379.296C466.904 377.487 466.354 375.734 465.447 374.16C464.54 372.587 463.3 371.232 461.812 370.189L482.095 272.072L460.212 278.972L443.894 373.893C442.308 376.507 441.736 379.611 442.287 382.618C442.838 385.625 444.473 388.326 446.883 390.208C449.293 392.09 452.31 393.024 455.362 392.831C458.414 392.639 461.29 391.334 463.444 389.164Z" fill="#FFB6B6"/>
<path d="M510.326 126.892L496.771 116.664C496.771 116.664 484.813 115.818 482.695 137.372C480.577 158.927 467.317 241.653 467.317 241.653L446.575 337.679L475.288 343.978L497.504 240.35L519.743 168.856L510.326 126.892Z" fill="#FEE92C"/>
<path d="M499.999 304.574L434.977 254.039C433.965 253.25 433.306 252.092 433.147 250.818C432.987 249.545 433.34 248.26 434.127 247.246L478.367 190.375C479.156 189.362 480.315 188.704 481.589 188.545C482.863 188.386 484.149 188.738 485.163 189.525L550.185 240.06C551.198 240.849 551.856 242.007 552.016 243.28C552.175 244.554 551.822 245.839 551.035 246.853L506.795 303.724C506.006 304.736 504.847 305.394 503.573 305.553C502.299 305.713 501.014 305.361 499.999 304.574Z" fill="#3F3D56"/>
<path d="M499.642 299.344L440.136 253.096C439.236 252.396 438.652 251.367 438.51 250.237C438.369 249.106 438.682 247.965 439.381 247.065L479.486 195.509C480.187 194.61 481.216 194.026 482.347 193.884C483.479 193.743 484.62 194.055 485.521 194.754L545.026 241.002C545.926 241.702 546.51 242.731 546.652 243.862C546.793 244.992 546.48 246.133 545.782 247.033L505.676 298.59C504.975 299.489 503.946 300.073 502.815 300.214C501.684 300.356 500.542 300.043 499.642 299.344Z" fill="white"/>
<path d="M447.937 251.785C447.712 251.61 447.566 251.353 447.53 251.07C447.495 250.787 447.573 250.502 447.748 250.277L467.98 224.269C468.155 224.044 468.412 223.897 468.695 223.862C468.835 223.844 468.977 223.855 469.113 223.892C469.25 223.929 469.377 223.993 469.488 224.08C469.6 224.166 469.693 224.274 469.763 224.397C469.833 224.519 469.878 224.655 469.895 224.795C469.913 224.935 469.903 225.077 469.865 225.213C469.828 225.349 469.764 225.476 469.677 225.588L449.445 251.596C449.27 251.821 449.013 251.967 448.73 252.002C448.447 252.038 448.162 251.96 447.937 251.785Z" fill="#E4E4E4"/>
<path d="M451.29 254.391C451.065 254.216 450.919 253.959 450.884 253.676C450.848 253.394 450.927 253.108 451.101 252.883L471.334 226.875C471.509 226.65 471.766 226.503 472.049 226.468C472.332 226.433 472.617 226.511 472.842 226.686C473.067 226.861 473.213 227.118 473.249 227.401C473.284 227.684 473.206 227.969 473.031 228.194L452.799 254.202C452.623 254.427 452.366 254.573 452.083 254.609C451.801 254.644 451.515 254.566 451.29 254.391Z" fill="#E4E4E4"/>
<path d="M466.105 242.263C465.88 242.088 465.734 241.831 465.699 241.548C465.663 241.265 465.742 240.98 465.916 240.755L474.686 229.481C474.773 229.369 474.881 229.276 475.003 229.206C475.126 229.136 475.262 229.09 475.402 229.073C475.542 229.055 475.684 229.065 475.821 229.103C475.957 229.14 476.085 229.204 476.196 229.291C476.308 229.377 476.401 229.485 476.471 229.608C476.541 229.731 476.586 229.866 476.603 230.006C476.62 230.147 476.61 230.289 476.572 230.425C476.535 230.561 476.471 230.689 476.384 230.8L467.614 242.074C467.438 242.299 467.181 242.445 466.898 242.48C466.616 242.516 466.33 242.437 466.105 242.263Z" fill="#E4E4E4"/>
<path d="M470.627 264.387C470.402 264.212 470.256 263.955 470.22 263.672C470.185 263.389 470.263 263.104 470.438 262.879L502.378 221.82C502.465 221.708 502.573 221.615 502.695 221.545C502.818 221.475 502.953 221.431 503.093 221.413C503.233 221.395 503.376 221.406 503.512 221.443C503.648 221.48 503.775 221.544 503.887 221.631C503.998 221.717 504.091 221.825 504.161 221.948C504.231 222.071 504.276 222.206 504.293 222.346C504.311 222.486 504.301 222.628 504.263 222.764C504.226 222.9 504.162 223.027 504.075 223.139L472.135 264.198C471.96 264.423 471.703 264.569 471.42 264.604C471.137 264.64 470.852 264.562 470.627 264.387Z" fill="#E4E4E4"/>
<path d="M473.98 266.993C473.755 266.818 473.609 266.561 473.573 266.278C473.538 265.995 473.616 265.71 473.791 265.485L505.731 224.426C505.818 224.314 505.926 224.221 506.048 224.151C506.171 224.081 506.306 224.037 506.446 224.019C506.586 224.001 506.729 224.012 506.865 224.049C507.001 224.086 507.128 224.15 507.24 224.237C507.351 224.324 507.444 224.431 507.514 224.554C507.584 224.677 507.629 224.812 507.646 224.952C507.664 225.092 507.654 225.234 507.616 225.37C507.579 225.506 507.515 225.633 507.428 225.745L475.488 266.804C475.313 267.029 475.056 267.175 474.773 267.21C474.49 267.246 474.205 267.168 473.98 266.993Z" fill="#E4E4E4"/>
<path d="M481.592 272.909C481.367 272.734 481.221 272.477 481.186 272.194C481.15 271.911 481.228 271.626 481.403 271.401L513.343 230.342C513.43 230.23 513.538 230.137 513.661 230.067C513.783 229.997 513.919 229.953 514.059 229.935C514.199 229.918 514.341 229.928 514.477 229.965C514.613 230.003 514.74 230.066 514.852 230.153C514.963 230.24 515.057 230.347 515.126 230.47C515.196 230.593 515.241 230.728 515.259 230.868C515.276 231.008 515.266 231.15 515.229 231.286C515.191 231.422 515.127 231.549 515.041 231.661L483.1 272.72C482.925 272.945 482.668 273.091 482.385 273.126C482.102 273.162 481.817 273.084 481.592 272.909Z" fill="#E4E4E4"/>
<path d="M484.945 275.515C484.72 275.34 484.574 275.083 484.539 274.8C484.503 274.518 484.581 274.232 484.756 274.007L516.696 232.948C516.783 232.836 516.891 232.743 517.014 232.673C517.136 232.604 517.272 232.559 517.412 232.541C517.552 232.524 517.694 232.534 517.83 232.571C517.966 232.609 518.094 232.672 518.205 232.759C518.316 232.846 518.41 232.953 518.479 233.076C518.549 233.199 518.594 233.334 518.612 233.474C518.629 233.614 518.619 233.756 518.582 233.892C518.544 234.028 518.48 234.155 518.394 234.267L486.453 275.326C486.278 275.551 486.021 275.697 485.738 275.733C485.455 275.768 485.17 275.69 484.945 275.515Z" fill="#E4E4E4"/>
<path d="M492.557 281.431C492.332 281.256 492.186 280.999 492.15 280.716C492.115 280.434 492.193 280.148 492.368 279.923L524.308 238.864C524.395 238.752 524.503 238.659 524.625 238.589C524.748 238.52 524.883 238.475 525.023 238.457C525.164 238.44 525.306 238.45 525.442 238.487C525.578 238.525 525.705 238.588 525.817 238.675C525.928 238.762 526.021 238.869 526.091 238.992C526.161 239.115 526.206 239.25 526.224 239.39C526.241 239.53 526.231 239.672 526.193 239.808C526.156 239.944 526.092 240.071 526.006 240.183L494.065 281.242C493.89 281.467 493.633 281.613 493.35 281.649C493.067 281.684 492.782 281.606 492.557 281.431Z" fill="#E4E4E4"/>
<path d="M495.91 284.037C495.686 283.862 495.539 283.605 495.504 283.322C495.469 283.04 495.547 282.754 495.722 282.529L527.662 241.47C527.837 241.246 528.094 241.101 528.377 241.066C528.659 241.031 528.944 241.109 529.168 241.284C529.393 241.458 529.539 241.715 529.575 241.997C529.611 242.279 529.533 242.564 529.359 242.789L497.419 283.849C497.244 284.073 496.986 284.219 496.704 284.255C496.421 284.29 496.136 284.212 495.91 284.037Z" fill="#E4E4E4"/>
<path d="M442.527 331.722C442.771 331.722 442.969 331.524 442.969 331.281C442.969 331.037 442.771 330.839 442.527 330.839C442.284 330.839 442.086 331.037 442.086 331.281C442.086 331.524 442.284 331.722 442.527 331.722Z" fill="white"/>
<path d="M506.841 27.7356C505.289 36.0727 502.743 44.1939 499.259 51.9259C479.305 94.1174 536.128 80.3651 556.435 80.3651C578.637 80.3651 599.88 92.0348 596.635 40.1826C595.249 18.0336 578.637 0 556.435 0C537.47 0 510.807 8.42549 506.841 27.7356Z" fill="#2F2E41"/>
<path d="M577.13 646.533H558.214L549.212 573.603H577.13V646.533Z" fill="#FFB6B6"/>
<path d="M587.115 679.293H573.549L571.128 666.492L564.926 679.293H528.947C527.222 679.293 525.543 678.743 524.153 677.721C522.764 676.699 521.738 675.261 521.225 673.615C520.712 671.969 520.738 670.203 521.301 668.573C521.863 666.943 522.932 665.536 524.351 664.557L553.083 644.722V631.78L583.304 633.583L587.115 679.293Z" fill="#2F2E41"/>
<path d="M689.512 622.671L674.332 633.954L623.571 580.801L645.975 564.148L689.512 622.671Z" fill="#FFB6B6"/>
<path d="M717.081 643.005L706.196 651.096L696.61 642.268L699.276 656.239L670.404 677.699C669.021 678.728 667.344 679.287 665.619 679.296C663.895 679.305 662.213 678.763 660.818 677.748C659.424 676.734 658.391 675.3 657.869 673.657C657.347 672.014 657.365 670.247 657.919 668.615L669.134 635.561L661.408 625.176L686.735 608.598L717.081 643.005Z" fill="#2F2E41"/>
<path d="M515.177 310.886L604.972 296.906L587.115 243.21H515.177V310.886Z" fill="#FFB6B6"/>
<path d="M599.153 270.254C599.153 270.254 635.044 301.248 618.485 389.605L598.268 476.179L653.349 571.763L625.341 587.033L557.464 492.735L526.404 419.911L509.975 292.278L599.153 270.254Z" fill="#2F2E41"/>
<path d="M543.524 440.664L541.365 474.081L547.684 573.037L579.058 583.834L584.999 482.444L543.524 440.664Z" fill="#2F2E41"/>
<path d="M533.878 91.4866L568.588 92.8402L582.422 115.793L613.983 121.951L595.142 217.226L598.607 271.456L567.18 271.264C544.531 271.126 522.629 279.351 505.673 294.361L506.613 223.967L493.096 171.418L496.134 116.318L521.524 113.146L533.878 91.4866Z" fill="#FEE92C"/>
<path d="M553.109 80.3552C571.15 80.3552 585.776 65.736 585.776 47.7023C585.776 29.6686 571.15 15.0494 553.109 15.0494C535.067 15.0494 520.441 29.6686 520.441 47.7023C520.441 65.736 535.067 80.3552 553.109 80.3552Z" fill="#FFB6B6"/>
<path d="M530.924 14.4172C536.648 10.929 543.205 9.04209 549.909 8.95375C556.612 8.86541 563.217 10.5789 569.031 13.9151C574.845 17.2512 579.656 22.0875 582.961 27.9183C586.265 33.749 587.941 40.36 587.815 47.06C571.169 51.2374 553.681 54.4342 535.93 48.0592L531.738 37.8039L529.266 48.0668C523.86 50.2754 518.44 52.1442 513.02 48.0455C512.799 41.3643 514.336 34.7422 517.478 28.8409C520.62 22.9396 525.256 17.966 530.924 14.4172Z" fill="#2F2E41"/>
<path d="M607.942 337.288L612.345 377.235C612.652 378.231 613.27 379.104 614.11 379.723C614.949 380.343 615.965 380.677 617.008 380.677H637.307C638.35 380.677 639.366 380.343 640.206 379.723C641.045 379.104 641.663 378.231 641.97 377.235L645.617 346.617C646.67 347.133 647.831 347.392 649.003 347.373C650.175 347.353 651.326 347.055 652.361 346.504C653.396 345.954 654.285 345.165 654.956 344.204C655.627 343.242 656.059 342.135 656.219 340.974C656.378 339.813 656.259 338.631 655.872 337.524C655.485 336.418 654.841 335.419 653.992 334.61C653.144 333.801 652.115 333.205 650.992 332.871C649.868 332.537 648.681 332.474 647.528 332.688C647.073 332.15 646.506 331.719 645.866 331.424C645.227 331.128 644.531 330.976 643.827 330.978H612.605C611.841 330.978 611.088 331.157 610.407 331.5C609.725 331.844 609.134 332.343 608.68 332.957C608.227 333.571 607.924 334.282 607.795 335.035C607.667 335.787 607.717 336.559 607.942 337.288ZM646.255 344.547L648.489 337.288C648.748 336.45 648.773 335.558 648.563 334.707C648.658 334.702 648.748 334.679 648.845 334.679C650.248 334.679 651.593 335.236 652.585 336.227C653.577 337.219 654.134 338.563 654.134 339.966C654.134 341.368 653.577 342.713 652.585 343.704C651.593 344.696 650.248 345.253 648.845 345.253C647.935 345.247 647.042 345.004 646.255 344.547Z" fill="#6C63FF"/>
<path d="M638.551 380.704C637.27 379.417 636.287 377.865 635.671 376.157C635.055 374.449 634.821 372.627 634.985 370.818C635.15 369.01 635.709 367.26 636.624 365.691C637.539 364.123 638.786 362.773 640.279 361.739L620.496 263.52L642.343 270.531L658.178 365.533C659.751 368.155 660.307 371.262 659.741 374.267C659.174 377.271 657.526 379.963 655.106 381.833C652.687 383.703 649.665 384.621 646.614 384.413C643.563 384.205 640.694 382.885 638.551 380.704Z" fill="#FFB6B6"/>
<path d="M600.428 132.179L613.983 121.951C613.983 121.951 625.941 121.105 628.059 142.66C630.177 164.214 643.437 246.94 643.437 246.94L664.179 342.966L635.466 349.266L613.25 245.637L591.011 174.143L600.428 132.179Z" fill="#FEE92C"/>
<path d="M483.439 221.588C487.677 221.588 491.112 218.154 491.112 213.918C491.112 209.683 487.677 206.249 483.439 206.249C479.202 206.249 475.766 209.683 475.766 213.918C475.766 218.154 479.202 221.588 483.439 221.588Z" fill="#6C63FF"/>
<path d="M238.756 735.507L254.747 735.505L262.355 673.855L238.754 673.856L238.756 735.507Z" fill="#FFB6B6"/>
<path d="M234.678 730.288L239.179 730.288L256.751 723.145L266.17 730.287H266.171C271.493 730.287 276.598 732.4 280.361 736.162C284.125 739.924 286.239 745.026 286.24 750.346V750.998L234.679 751L234.678 730.288Z" fill="#2F2E41"/>
<path d="M300.724 725.434L316.323 728.955L337.33 670.493L314.308 665.297L300.724 725.434Z" fill="#FFB6B6"/>
<path d="M297.896 719.446L302.286 720.436L321.001 717.338L328.614 726.378L328.615 726.378C333.807 727.551 338.32 730.736 341.162 735.234C344.005 739.732 344.943 745.175 343.771 750.364L343.627 751L293.332 739.649L297.896 719.446Z" fill="#2F2E41"/>
<path d="M209.482 418.382L223.942 580.319C223.942 580.319 218.524 677.538 236.007 711.749H261.362L273.916 571.44L275.493 477.265L329.852 556.717L295.229 709.455L326.435 712.244L382.619 546.488L320.894 390.882L209.482 418.382Z" fill="#2F2E41"/>
<path d="M224.626 160.501C245.222 160.501 261.918 143.813 261.918 123.226C261.918 102.64 245.222 85.9511 224.626 85.9511C204.031 85.9511 187.334 102.64 187.334 123.226C187.334 143.813 204.031 160.501 224.626 160.501Z" fill="#FFB8B8"/>
<path d="M290.182 196.022L259.589 182.901L244.695 167.112L207.49 173.109L197.618 190.028L165.663 219.728L203.102 388.935L201.969 425.891C201.969 425.891 225.931 436.674 329.851 411.848C331.098 411.55 328.489 410.247 328.489 410.247L290.182 196.022Z" fill="#3F3D56"/>
<path d="M185.849 144.377C185.589 144.022 185.331 143.665 185.077 143.305C184.974 143.521 184.893 143.745 184.775 143.956L185.849 144.377Z" fill="#2F2E41"/>
<path d="M261.722 95.961C259.229 90.5332 254.785 86.2414 249.272 83.9385C243.807 81.7355 237.7 81.7408 232.24 83.9534C227.31 80.84 221.832 78.3718 216.063 78.0661C210.294 77.7603 204.195 79.8996 200.64 84.6086C199.846 85.8517 198.944 87.0225 197.945 88.1077C195.087 90.7529 190.744 90.3714 186.946 89.8305C188.65 91.29 190.354 92.7495 192.058 94.2089C189.996 94.7474 187.934 95.2859 185.871 95.8244C188.278 97.2834 190.684 98.7424 193.091 100.201C186.104 104.393 182.929 113.542 183.767 121.851C184.561 129.717 188.361 136.911 192.903 143.305C194.715 139.483 194.324 134.909 194.294 130.605C194.263 126.057 195.068 120.892 198.714 118.35C201.174 116.635 204.337 116.559 207.303 116.575C222.264 116.657 237.208 117.59 252.063 119.368C254.078 119.455 256.044 120.025 257.793 121.029C261.078 123.27 261.718 127.892 262.048 131.948C263.784 125.252 264.633 118.356 264.575 111.439C264.721 106.137 263.749 100.863 261.722 95.961Z" fill="#2F2E41"/>
<path d="M273.332 531.901C305.748 531.901 332.027 505.634 332.027 473.232C332.027 440.831 305.748 414.564 273.332 414.564C240.916 414.564 214.637 440.831 214.637 473.232C214.637 505.634 240.916 531.901 273.332 531.901Z" fill="white"/>
<path d="M273.332 413.26C270.315 413.261 267.302 413.487 264.319 413.938C262.793 414.16 261.307 414.447 259.832 414.799C249.004 417.294 239.082 422.747 231.174 430.549C223.266 438.352 217.682 448.198 215.045 458.988C212.409 469.777 212.824 481.087 216.243 491.655C219.663 502.224 225.953 511.634 234.411 518.837C235.416 519.685 236.433 520.506 237.489 521.288C245.104 526.963 253.958 530.75 263.323 532.336C272.688 533.922 282.295 533.263 291.355 530.412C300.416 527.562 308.669 522.602 315.436 515.94C322.204 509.278 327.292 501.105 330.282 492.094C333.272 483.082 334.078 473.49 332.634 464.106C331.191 454.723 327.538 445.816 321.978 438.119C316.417 430.421 309.108 424.154 300.651 419.832C292.193 415.511 282.83 413.258 273.332 413.26V413.26ZM273.332 530.597C261.129 530.61 249.243 526.712 239.42 519.476C238.35 518.694 237.32 517.886 236.315 517.025C228.075 510.077 221.96 500.947 218.673 490.683C215.385 480.42 215.059 469.438 217.73 458.998C220.402 448.557 225.964 439.081 233.777 431.655C241.591 424.229 251.34 419.155 261.907 417.015C263.367 416.715 264.828 416.481 266.315 416.298C268.643 416.01 270.986 415.866 273.332 415.868C288.553 415.868 303.15 421.912 313.913 432.67C324.676 443.427 330.723 458.018 330.723 473.232C330.723 488.446 324.676 503.037 313.913 513.795C303.15 524.553 288.553 530.597 273.332 530.597Z" fill="#3F3D56"/>
<path d="M244.543 461.499H302.121C304.231 461.499 305.94 459.79 305.94 457.681V457.494C305.94 455.385 304.231 453.676 302.121 453.676H244.543C242.434 453.676 240.724 455.385 240.724 457.494V457.681C240.724 459.79 242.434 461.499 244.543 461.499Z" fill="#6C63FF"/>
<path d="M244.543 477.144H302.121C304.231 477.144 305.94 475.435 305.94 473.326V473.139C305.94 471.03 304.231 469.321 302.121 469.321H244.543C242.434 469.321 240.724 471.03 240.724 473.139V473.326C240.724 475.435 242.434 477.144 244.543 477.144Z" fill="#6C63FF"/>
<path d="M244.543 492.789H302.121C304.231 492.789 305.94 491.079 305.94 488.971V488.784C305.94 486.675 304.231 484.966 302.121 484.966H244.543C242.434 484.966 240.724 486.675 240.724 488.784V488.971C240.724 491.079 242.434 492.789 244.543 492.789Z" fill="#6C63FF"/>
<path d="M929.998 733.517L913.23 733.515L905.253 668.87L930 668.872L929.998 733.517Z" fill="#9E616A"/>
<path d="M850.672 733.517L833.906 733.515L825.929 668.87L850.676 668.872L850.672 733.517Z" fill="#9E616A"/>
<path d="M851.263 751L799.702 750.998V750.346C799.702 745.026 801.817 739.924 805.58 736.162C809.344 732.4 814.448 730.287 819.771 730.287H819.772L829.19 723.145L846.763 730.288L851.264 730.288L851.263 751Z" fill="#2F2E41"/>
<path d="M932.739 751L881.178 750.998V750.346C881.178 745.026 883.293 739.924 887.056 736.162C890.82 732.4 895.924 730.287 901.247 730.287H901.248L910.666 723.145L928.239 730.288L932.74 730.288L932.739 751Z" fill="#2F2E41"/>
<path d="M834.225 350.926L808.742 506.022L815.677 529.134L806.577 545.503L819.941 689.256L814.516 701.194L829.673 710.537H860.514L862.151 580.396L869.769 561.288V550.758L885.278 471.401L888.133 582.535L892.645 601.673L888.855 615.298L893.806 624.845L906.959 713.373H941.542L938.867 692.777C941.879 691.252 944.3 688.77 945.747 685.721C947.194 682.672 947.587 679.229 946.863 675.932L944.88 666.905L949.393 640.213L957.61 491.301L955.293 371.149L914.838 340.226L834.225 350.926Z" fill="#2F2E41"/>
<path d="M892.645 151.763C910.39 151.763 924.775 137.385 924.775 119.647C924.775 101.91 910.39 87.5312 892.645 87.5312C874.899 87.5312 860.514 101.91 860.514 119.647C860.514 137.385 874.899 151.763 892.645 151.763Z" fill="#9E616A"/>
<path d="M822.443 412.472C823.842 411.028 824.906 409.295 825.562 407.396C826.218 405.496 826.449 403.475 826.239 401.477C826.029 399.478 825.383 397.549 824.347 395.827C823.31 394.105 821.909 392.631 820.241 391.509L832.736 344.28L808.664 352.374L800.489 395.982C798.789 398.907 798.221 402.355 798.893 405.671C799.566 408.987 801.432 411.941 804.138 413.974C806.844 416.007 810.202 416.977 813.576 416.7C816.95 416.423 820.105 414.919 822.443 412.472H822.443Z" fill="#9E616A"/>
<path d="M835.592 185.721L830.425 184.65L826.018 187.088C826.018 187.088 813.709 203.493 813.709 218.531C813.709 233.568 798.665 378.476 798.665 378.476L826.018 390.78L847.901 277.314L835.592 185.721Z" fill="#E6E6E6"/>
<path d="M920.782 96.1003C920.782 96.1003 929.186 80.0423 910.698 78.5825C910.698 78.5825 894.936 64.2912 878.871 75.9698C878.871 75.9698 870.108 75.9698 865.316 85.8816C865.316 85.8816 858.424 83.2689 856.91 90.261C856.91 90.261 851.867 104.859 856.91 117.998C861.953 131.136 863.628 132.596 863.628 132.596C863.628 132.596 855.341 105.051 875.512 103.591C895.683 102.131 918.254 89.5312 919.935 105.589C921.616 121.647 924.146 125.604 924.146 125.604C924.146 125.604 940.112 102.67 920.782 96.1003Z" fill="#2F2E41"/>
<path d="M1038.15 545.503C1035.73 545.506 1033.39 544.613 1031.58 542.996L934.343 456.478C932.384 454.731 931.198 452.278 931.046 449.657C930.893 447.037 931.787 444.463 933.531 442.501L995.822 372.555C997.57 370.596 1000.02 369.41 1002.65 369.258C1005.27 369.105 1007.84 369.999 1009.81 371.742L1107.04 458.261C1109.01 460.007 1110.19 462.46 1110.35 465.081C1110.5 467.702 1109.6 470.277 1107.86 472.238L1045.57 542.184C1044.7 543.158 1043.66 543.951 1042.48 544.518C1041.31 545.085 1040.04 545.414 1038.74 545.485C1038.54 545.498 1038.35 545.503 1038.15 545.503Z" fill="white"/>
<path d="M1038.15 546.139C1035.57 546.143 1033.08 545.193 1031.16 543.472L933.92 456.954C931.835 455.094 930.572 452.483 930.41 449.694C930.248 446.905 931.199 444.166 933.055 442.077L995.346 372.131C997.207 370.047 999.819 368.786 1002.61 368.623C1005.4 368.461 1008.14 369.412 1010.23 371.266L1107.47 457.785C1109.56 459.644 1110.82 462.255 1110.98 465.044C1111.14 467.834 1110.19 470.574 1108.33 472.661L1046.04 542.607C1045.12 543.644 1044.01 544.488 1042.76 545.091C1041.52 545.695 1040.16 546.045 1038.78 546.122C1038.57 546.133 1038.36 546.139 1038.15 546.139ZM1003.22 371.149C1002.1 371.146 1000.98 371.384 999.949 371.845C998.919 372.306 997.999 372.98 997.249 373.823L934.957 443.769C933.55 445.354 932.828 447.431 932.951 449.547C933.074 451.662 934.031 453.642 935.613 455.053L1032.85 541.571C1033.64 542.269 1034.55 542.806 1035.54 543.15C1036.53 543.495 1037.58 543.641 1038.63 543.58C1039.68 543.519 1040.71 543.253 1041.65 542.795C1042.6 542.338 1043.44 541.699 1044.14 540.915L1106.43 470.969C1107.84 469.386 1108.56 467.308 1108.44 465.192C1108.32 463.076 1107.36 461.096 1105.77 459.687L1008.54 373.167C1007.07 371.864 1005.18 371.146 1003.22 371.149H1003.22Z" fill="#3F3D56"/>
<path d="M1073.41 479.26C1072.36 479.262 1071.35 478.876 1070.57 478.178L994.239 410.263C993.816 409.89 993.472 409.437 993.225 408.93C992.978 408.423 992.833 407.872 992.8 407.31C992.766 406.747 992.844 406.183 993.029 405.65C993.213 405.118 993.502 404.627 993.877 404.206C994.252 403.785 994.706 403.442 995.214 403.197C995.722 402.951 996.273 402.809 996.836 402.777C997.399 402.745 997.963 402.825 998.496 403.011C999.028 403.198 999.518 403.487 999.938 403.864L1076.27 471.778C1076.92 472.355 1077.37 473.116 1077.58 473.96C1077.79 474.804 1077.73 475.691 1077.42 476.502C1077.11 477.314 1076.56 478.013 1075.85 478.505C1075.13 478.998 1074.28 479.261 1073.41 479.26Z" fill="#6C63FF"/>
<path d="M1058.86 495.607C1057.81 495.609 1056.79 495.224 1056.01 494.525L979.68 426.611C979.26 426.237 978.917 425.783 978.672 425.277C978.427 424.771 978.284 424.221 978.251 423.659C978.219 423.098 978.297 422.535 978.482 422.004C978.667 421.473 978.955 420.983 979.329 420.563C979.703 420.143 980.157 419.8 980.663 419.555C981.17 419.31 981.72 419.168 982.282 419.135C982.843 419.102 983.406 419.181 983.938 419.366C984.469 419.55 984.959 419.838 985.379 420.212L1061.71 488.126C1062.36 488.704 1062.82 489.465 1063.02 490.309C1063.23 491.152 1063.17 492.039 1062.86 492.85C1062.55 493.662 1062 494.36 1061.29 494.853C1060.57 495.345 1059.72 495.608 1058.86 495.607H1058.86Z" fill="#6C63FF"/>
<path d="M1044.3 511.957C1043.25 511.959 1042.23 511.573 1041.45 510.873L965.12 442.96C964.699 442.586 964.355 442.133 964.11 441.627C963.864 441.12 963.72 440.57 963.688 440.008C963.655 439.446 963.733 438.883 963.918 438.351C964.103 437.819 964.391 437.329 964.765 436.909C965.14 436.488 965.593 436.146 966.101 435.9C966.608 435.655 967.158 435.513 967.72 435.48C968.283 435.448 968.846 435.527 969.378 435.712C969.91 435.897 970.4 436.186 970.82 436.561L1047.15 504.475C1047.8 505.052 1048.26 505.813 1048.46 506.657C1048.67 507.501 1048.61 508.387 1048.3 509.199C1047.99 510.011 1047.45 510.709 1046.73 511.202C1046.01 511.694 1045.17 511.958 1044.3 511.957H1044.3Z" fill="#6C63FF"/>
<path d="M957.009 415.26C956.03 413.505 955.447 411.556 955.302 409.552C955.158 407.547 955.454 405.536 956.172 403.658C956.889 401.781 958.01 400.083 959.454 398.686C960.899 397.288 962.632 396.224 964.533 395.568L964.616 346.717L985.794 360.728L982.469 404.97C983.359 408.234 983.02 411.712 981.517 414.743C980.013 417.775 977.45 420.15 974.311 421.418C971.173 422.687 967.678 422.76 964.489 421.625C961.3 420.49 958.639 418.225 957.009 415.26H957.009Z" fill="#9E616A"/>
<path d="M958.966 199.108L968.428 189.993L975.378 195.007C975.378 195.007 982.217 203.209 987.687 227.816C993.158 252.423 987.687 387.762 987.687 387.762L957.599 383.661L961.702 312.574L949.393 252.423L958.966 199.108Z" fill="#E6E6E6"/>
<path d="M972.937 192.216L941.061 176.996L919.419 156.932L879.954 156.637L867.223 173.179L833.614 184.59L839.216 300.428L835.397 309.335C835.397 309.335 838.057 311.738 839.273 313.082C840.489 314.425 837.593 325.675 837.593 325.675L835.961 337.914L840.489 341.148L834.602 348.098L833.141 359.054C833.141 359.054 935.896 333.525 955.312 375.815C956.337 378.05 953.811 356.213 953.811 356.213L951.285 340.227L953.791 325.878L957.611 322.06L951.205 315.658L955.312 285.278L972.937 192.216Z" fill="#3F3D56"/>
<path d="M250.042 449.019C250.833 447.011 251.174 444.854 251.041 442.7C250.908 440.547 250.304 438.448 249.272 436.553C248.24 434.658 246.805 433.012 245.067 431.731C243.33 430.45 241.333 429.566 239.216 429.14L232.135 377.167L211.604 395.106L221.476 441.71C220.996 445.311 221.854 448.963 223.888 451.974C225.922 454.985 228.99 457.146 232.511 458.047C236.032 458.947 239.762 458.526 242.993 456.862C246.224 455.198 248.732 452.407 250.042 449.019V449.019Z" fill="#FFB8B8"/>
<path d="M169.604 218.777L164.039 219.843L160.675 224.076C160.675 224.076 155.233 245.411 161.432 260.321C167.631 275.231 212.451 425.104 212.451 425.104L244.645 426.037L219.566 304.523L169.604 218.777Z" fill="#3F3D56"/>
<path d="M296.518 441.395C295.035 439.826 293.914 437.952 293.234 435.904C292.554 433.856 292.331 431.684 292.582 429.541C292.833 427.398 293.551 425.335 294.685 423.499C295.819 421.663 297.342 420.098 299.147 418.915L286.331 368.05L312.073 377.044L320.297 423.967C322.086 427.129 322.652 430.838 321.888 434.39C321.124 437.942 319.083 441.09 316.152 443.238C313.221 445.386 309.603 446.385 305.984 446.045C302.366 445.706 298.997 444.051 296.518 441.395Z" fill="#FFB8B8"/>
<path d="M285.27 197.778L290.832 196.692L295.532 199.366C295.532 199.366 308.54 217.135 308.349 233.28C308.159 249.425 322.477 405.195 322.477 405.195L292.954 418.059L270.896 295.96L285.27 197.778Z" fill="#3F3D56"/>
</svg>
