<svg width="1135" height="864" viewBox="0 0 1135 864" fill="none" xmlns="http://www.w3.org/2000/svg">
<g clip-path="url(#clip0_87:222)">
<path d="M235.625 568.309C184.31 518.897 162.637 467.349 174.597 423.161C189.945 366.454 258.129 327.247 361.665 315.591L362.048 318.844C259.952 330.336 192.809 368.664 177.832 423.998C166.193 467.002 187.552 517.425 237.974 565.977L235.625 568.309Z" fill="#F0F0F0"/>
<path d="M730.731 743.703C666.687 743.703 597.091 734.394 527.962 716.494C442.476 694.357 364.094 660.944 301.291 619.866L303.15 617.146C365.651 658.025 443.686 691.285 528.819 713.329C605.752 733.251 683.262 742.482 752.941 740.046L753.062 743.317C745.704 743.576 738.26 743.705 730.731 743.703Z" fill="#F0F0F0"/>
<path d="M877.657 723.117L876.585 720.016C933.864 701.074 969.69 670.559 980.19 631.768C993.536 582.456 964.541 525.233 898.545 470.639C832.213 415.767 736.56 370.238 629.204 342.439L630.06 339.274C737.886 367.195 834.004 412.96 900.706 468.14C967.744 523.595 997.121 582.004 983.425 632.606C972.625 672.509 936.051 703.807 877.657 723.117Z" fill="#F0F0F0"/>
<path d="M351.701 745.072C225.857 690.479 128.885 619.652 78.6494 545.637L81.4373 543.826C131.326 617.329 227.789 687.736 353.058 742.079L351.701 745.072Z" fill="#F0F0F0"/>
<path d="M794.158 839.649C781.178 839.649 767.976 839.365 754.553 838.798L754.697 835.528C854.873 839.77 943.26 828.044 1010.32 801.611L1011.57 804.648C953.073 827.704 878.512 839.649 794.158 839.649Z" fill="#F0F0F0"/>
<path d="M721.142 318.526C700.342 311.903 678.948 305.735 657.553 300.195C534.436 268.314 413.411 256.995 307.556 267.467L307.219 264.21C413.469 253.703 534.908 265.05 658.41 297.03C679.865 302.586 701.32 308.771 722.178 315.414L721.142 318.526Z" fill="#F0F0F0"/>
<path d="M156.977 573.219C105.661 523.808 83.9881 472.259 95.9477 428.071C111.296 371.365 179.48 332.157 283.017 320.501L283.399 323.754C181.304 335.247 114.16 373.574 99.1834 428.909C87.5441 471.913 108.903 522.335 159.325 570.887L156.977 573.219Z" fill="#F0F0F0"/>
<path d="M652.082 748.614C588.037 748.614 518.442 739.305 449.313 721.404C363.826 699.267 285.445 665.855 222.641 624.777L224.501 622.056C287.002 662.935 365.037 696.195 450.169 718.239C527.103 738.162 604.613 747.393 674.292 744.957L674.413 748.227C667.054 748.486 659.611 748.615 652.082 748.614Z" fill="#F0F0F0"/>
<path d="M799.008 728.028L797.936 724.927C855.216 705.984 891.041 675.469 901.541 636.679C914.887 587.367 885.892 530.143 819.896 475.549C753.564 420.678 657.911 375.148 550.555 347.349L551.411 344.184C659.237 372.106 755.355 417.871 822.057 473.05C889.095 528.506 918.473 586.914 904.777 637.516C893.976 677.419 857.402 708.717 799.008 728.028Z" fill="#F0F0F0"/>
<path d="M273.052 749.982C147.208 695.39 50.2358 624.563 0 550.547L2.78791 548.736C52.6766 622.239 149.14 692.647 274.408 746.99L273.052 749.982Z" fill="#F0F0F0"/>
<path d="M715.509 844.559C702.529 844.559 689.327 844.276 675.903 843.709L676.047 840.438C776.223 844.681 864.61 832.954 931.67 806.521L932.922 809.558C874.423 832.614 799.863 844.559 715.509 844.559Z" fill="#F0F0F0"/>
<path d="M642.493 323.437C621.693 316.813 600.298 310.645 578.904 305.105C455.787 273.225 334.761 261.906 228.906 272.378L228.57 269.12C334.819 258.614 456.259 269.96 579.76 301.94C601.215 307.497 622.67 313.682 643.529 320.325L642.493 323.437Z" fill="#F0F0F0"/>
<path d="M57.0442 485.539C81.0946 459.163 119.459 443.088 154.226 452.711C122.152 474.912 99.1405 507.495 89.2627 544.694C85.5064 559.054 82.8571 575.408 70.6479 584.187C63.0511 589.65 52.9851 590.955 43.6426 589.711C34.2996 588.467 25.4656 584.913 16.7508 581.392L14.4058 581.59C21.148 546.869 32.9938 511.914 57.0442 485.539Z" fill="#F2F2F2"/>
<path d="M154.119 453.445C125.052 460.329 98.9411 475.997 79.4955 498.222C75.2224 502.934 71.7354 508.275 69.1629 514.05C66.8427 519.753 66.1264 525.961 67.0884 532.027C67.8692 537.701 69.3397 543.416 68.6968 549.177C68.323 552.121 67.3172 554.954 65.7453 557.491C64.1735 560.028 62.0711 562.212 59.576 563.898C53.4708 568.259 46.1278 570.214 38.879 571.881C30.8307 573.733 22.441 575.531 15.8803 580.763C15.0853 581.397 14.1262 580.153 14.92 579.521C26.3345 570.418 42.198 571.587 54.8271 564.975C60.72 561.89 65.6982 557.05 66.9086 550.407C67.9669 544.599 66.4558 538.704 65.6144 532.966C64.5872 527.061 65.0538 521.001 66.9732 515.314C69.2369 509.43 72.5077 503.966 76.6456 499.156C85.7846 488.182 96.6309 478.681 108.787 471.002C122.611 462.163 137.88 455.702 153.931 451.898C154.925 451.663 155.106 453.212 154.119 453.445L154.119 453.445Z" fill="white"/>
<path d="M85.326 490.705C81.9566 487.008 80.0406 482.259 79.9201 477.308C79.7996 472.356 81.4825 467.524 84.6683 463.674C85.3157 462.897 86.5803 463.844 85.9321 464.622C82.9587 468.202 81.3915 472.703 81.5133 477.314C81.6351 481.925 83.4379 486.341 86.5964 489.766C87.2819 490.511 86.0075 491.446 85.326 490.705H85.326Z" fill="white"/>
<path d="M66.3051 529.201C76.6338 529.872 86.8416 526.711 94.893 520.347C95.6902 519.716 96.6496 520.96 95.8534 521.59C87.4622 528.197 76.8326 531.466 66.0859 530.744C65.0616 530.675 65.2864 529.132 66.3051 529.201Z" fill="white"/>
<path d="M122.97 464.198C123.969 465.894 125.383 467.321 127.085 468.351C128.787 469.381 130.724 469.981 132.722 470.097C133.746 470.154 133.52 471.696 132.502 471.64C130.296 471.501 128.157 470.836 126.274 469.703C124.391 468.569 122.82 467.002 121.699 465.137C121.579 464.97 121.527 464.764 121.556 464.562C121.585 464.359 121.692 464.175 121.854 464.046C122.023 463.923 122.235 463.869 122.444 463.898C122.653 463.926 122.842 464.034 122.97 464.198V464.198Z" fill="white"/>
<path d="M203.577 562.203C202.936 562.185 202.296 562.168 201.647 562.16C193.03 561.967 184.411 562.459 175.875 563.631C175.214 563.712 174.545 563.803 173.887 563.901C153.354 566.94 133.576 573.68 115.558 583.781C108.392 587.806 101.55 592.359 95.0905 597.4C86.17 604.363 77.0641 612.606 66.6205 616.174C65.5352 616.558 64.4266 616.876 63.3011 617.126L14.835 584.373C14.7631 584.245 14.683 584.127 14.6105 583.998L12.6143 582.776C12.9288 582.494 13.2613 582.207 13.5759 581.924C13.7577 581.76 13.9503 581.602 14.1321 581.437C14.2567 581.33 14.3819 581.223 14.488 581.119C14.5294 581.083 14.5713 581.047 14.605 581.022C14.7112 580.918 14.8211 580.832 14.9196 580.739C16.7736 579.132 18.6423 577.535 20.5259 575.947C20.5335 575.936 20.5335 575.937 20.552 575.933C34.9352 563.874 50.4741 552.883 67.2244 544.549C67.7284 544.299 68.2396 544.037 68.7658 543.801C76.3373 540.086 84.2067 536.982 92.2953 534.52C96.7288 533.186 101.229 532.072 105.777 531.183C117.535 528.909 129.585 528.457 141.486 529.845C165.21 532.615 187.764 542.776 202.468 560.814C202.844 561.276 203.209 561.73 203.577 562.203Z" fill="#F2F2F2"/>
<path d="M203.044 562.731C175.598 551.11 145.106 548.242 115.899 554.537C109.587 555.783 103.515 557.994 97.9069 561.089C92.5434 564.277 88.1506 568.812 85.1847 574.222C82.3158 579.212 79.9719 584.641 75.9128 588.862C73.8022 590.992 71.2551 592.662 68.4384 593.762C65.6217 594.862 62.5991 595.367 59.5687 595.245C52.0099 595.131 44.9437 592.368 38.1295 589.43C30.5637 586.169 22.758 582.664 14.2993 582.978C13.2744 583.016 13.2741 581.458 14.2974 581.42C29.014 580.875 40.9608 591.15 55.114 593.308C61.7181 594.315 68.6725 593.382 73.7276 588.791C78.148 584.777 80.5699 579.18 83.4301 574.103C86.2443 568.784 90.3472 564.219 95.3805 560.809C100.809 557.444 106.784 555.008 113.049 553.604C127.101 550.224 141.609 549.025 156.042 550.053C172.521 551.136 188.688 554.969 203.846 561.385C204.784 561.783 203.976 563.126 203.044 562.731V562.731Z" fill="white"/>
<path d="M125.182 551.969C124.767 547.032 126.16 542.112 129.112 538.088C132.064 534.063 136.382 531.196 141.295 529.998C142.29 529.759 142.717 531.26 141.72 531.5C137.143 532.607 133.121 535.278 130.38 539.031C127.639 542.784 126.36 547.372 126.774 551.967C126.863 552.965 125.27 552.961 125.182 551.969Z" fill="white"/>
<path d="M86.2986 571.504C94.1325 578.122 104.229 581.609 114.574 581.27C115.599 581.235 115.6 582.793 114.576 582.827C103.81 583.161 93.3105 579.511 85.1739 572.607C84.3989 571.948 85.5278 570.849 86.2986 571.504V571.504Z" fill="white"/>
<path d="M171.554 552.972C171.307 554.915 171.558 556.887 172.283 558.712C173.008 560.536 174.185 562.156 175.709 563.425C176.492 564.074 175.362 565.173 174.584 564.528C172.908 563.118 171.61 561.327 170.804 559.313C169.998 557.299 169.709 555.123 169.961 552.974C169.968 552.769 170.053 552.575 170.201 552.43C170.349 552.285 170.547 552.201 170.756 552.194C170.967 552.195 171.169 552.277 171.318 552.423C171.468 552.568 171.552 552.766 171.554 552.972H171.554Z" fill="white"/>
<path d="M999.423 701.751C985.835 669.004 955.226 641.252 919.175 638.885C941.754 670.339 952.231 708.591 948.752 746.874C947.355 761.633 944.231 777.906 952.713 790.189C957.991 797.832 967.023 802.37 976.249 804.27C985.476 806.169 995.018 805.726 1004.44 805.274L1006.58 806.233C1012.16 771.315 1013.01 734.499 999.423 701.751Z" fill="#F2F2F2"/>
<path d="M919.022 639.612C944.033 655.651 963.241 678.991 973.919 706.316C976.324 712.159 977.773 718.336 978.212 724.62C978.437 730.754 976.979 736.836 973.988 742.233C971.303 747.32 967.955 752.22 966.58 757.857C965.921 760.752 965.895 763.751 966.503 766.658C967.112 769.564 968.342 772.311 970.112 774.72C974.364 780.834 980.608 785.089 986.862 789.043C993.806 793.433 1001.09 797.885 1005.47 804.969C1006 805.827 1007.33 804.971 1006.8 804.114C999.18 791.789 983.837 787.674 974.215 777.296C969.725 772.453 966.699 766.257 967.842 759.603C968.841 753.785 972.29 748.73 975.054 743.602C978.05 738.379 979.693 732.517 979.84 726.53C979.729 720.244 978.526 714.023 976.282 708.133C971.446 694.792 964.495 682.278 955.684 671.05C945.702 658.18 933.542 647.075 919.731 638.216C918.876 637.668 918.173 639.067 919.022 639.612V639.612Z" fill="white"/>
<path d="M971.01 697.32C975.454 694.945 978.891 691.103 980.705 686.479C982.52 681.855 982.596 676.75 980.918 672.077C980.576 671.132 979.059 671.609 979.402 672.555C980.972 676.904 980.902 681.658 979.203 685.961C977.504 690.263 974.288 693.83 970.137 696.017C969.235 696.494 970.114 697.793 971.01 697.32V697.32Z" fill="white"/>
<path d="M975.697 739.829C965.739 737.066 957.211 730.732 951.815 722.092C951.281 721.236 949.95 722.091 950.483 722.947C956.116 731.928 965.004 738.501 975.373 741.355C976.362 741.626 976.68 740.099 975.697 739.829V739.829Z" fill="white"/>
<path d="M944.665 659.979C943.142 661.249 941.319 662.128 939.362 662.538C937.405 662.948 935.375 662.876 933.453 662.329C932.469 662.046 932.151 663.573 933.13 663.855C935.256 664.449 937.498 664.526 939.661 664.077C941.824 663.629 943.842 662.669 945.539 661.282C945.71 661.164 945.829 660.987 945.871 660.787C945.914 660.586 945.877 660.378 945.768 660.203C945.651 660.031 945.47 659.911 945.264 659.869C945.057 659.828 944.842 659.867 944.665 659.979V659.979Z" fill="white"/>
<path d="M835.07 725.783C835.68 725.977 836.29 726.171 836.903 726.378C845.085 729.029 853.034 732.325 860.67 736.235C861.265 736.528 861.864 736.834 862.45 737.143C880.744 746.755 897.056 759.606 910.555 775.042C915.92 781.189 920.8 787.726 925.152 794.598C931.161 804.088 936.905 814.845 945.515 821.639C946.405 822.357 947.34 823.021 948.314 823.627L1005.21 808.712C1005.33 808.615 1005.44 808.53 1005.56 808.433L1007.85 807.939C1007.66 807.569 1007.44 807.19 1007.24 806.82C1007.13 806.605 1007 806.393 1006.89 806.178C1006.81 806.036 1006.72 805.894 1006.66 805.761C1006.63 805.714 1006.61 805.667 1006.58 805.632C1006.52 805.499 1006.44 805.382 1006.38 805.262C1005.19 803.139 1003.98 801.02 1002.75 798.906C1002.75 798.893 1002.75 798.893 1002.73 798.884C993.328 782.798 982.469 767.338 969.557 753.982C969.169 753.581 968.777 753.166 968.363 752.771C962.508 746.782 956.163 741.272 949.391 736.294C945.674 733.58 941.819 731.052 937.84 728.72C927.548 722.712 916.354 718.325 904.669 715.72C881.373 710.53 856.639 712.685 836.593 724.84C836.08 725.151 835.579 725.459 835.07 725.783Z" fill="#F2F2F2"/>
<path d="M835.392 726.456C865.235 724.533 894.938 731.857 920.283 747.387C925.8 750.635 930.759 754.714 934.977 759.473C938.933 764.239 941.512 769.954 942.447 776.024C943.434 781.667 943.776 787.551 946.148 792.861C947.404 795.561 949.229 797.971 951.504 799.933C953.779 801.895 956.452 803.365 959.348 804.245C966.507 806.623 974.111 806.344 981.538 805.817C989.785 805.233 998.341 804.498 1006.2 807.575C1007.15 807.947 1007.69 806.48 1006.74 806.108C993.063 800.756 978.281 806.506 964.209 803.886C957.643 802.664 951.414 799.498 948.231 793.513C945.447 788.278 945.089 782.211 944.14 776.489C943.317 770.554 941.021 764.907 937.453 760.04C933.496 755.086 928.706 750.827 923.288 747.446C911.215 739.642 897.962 733.744 884.016 729.967C868.124 725.57 851.58 723.865 835.099 724.924C834.079 724.991 834.379 726.521 835.392 726.456V726.456Z" fill="white"/>
<path d="M912.423 741.917C914.509 737.404 914.888 732.312 913.491 727.551C912.094 722.791 909.012 718.67 904.796 715.927C903.941 715.375 903.023 716.648 903.879 717.201C907.81 719.749 910.681 723.587 911.972 728.023C913.264 732.459 912.892 737.2 910.924 741.391C910.497 742.303 911.999 742.823 912.423 741.917H912.423Z" fill="white"/>
<path d="M942.331 773.098C932.679 776.756 921.971 776.721 912.344 773C911.391 772.631 910.855 774.098 911.807 774.467C921.833 778.321 932.975 778.335 943.011 774.507C943.968 774.141 943.282 772.735 942.331 773.098V773.098Z" fill="white"/>
<path d="M868.403 727.617C867.968 729.528 867.054 731.303 865.744 732.783C864.434 734.263 862.769 735.401 860.898 736.096C859.937 736.45 860.624 737.856 861.578 737.505C863.642 736.727 865.479 735.468 866.93 733.836C868.381 732.204 869.402 730.249 869.902 728.142C869.967 727.948 869.953 727.736 869.863 727.551C869.774 727.366 869.616 727.222 869.421 727.147C869.223 727.078 869.004 727.089 868.813 727.177C868.623 727.265 868.475 727.423 868.403 727.617V727.617Z" fill="white"/>
<path d="M735.801 813.261C743.195 813.261 749.188 807.399 749.188 800.167C749.188 792.935 743.195 787.073 735.801 787.073C728.408 787.073 722.414 792.935 722.414 800.167C722.414 807.399 728.408 813.261 735.801 813.261Z" fill="#FFEA29"/>
<path d="M783.221 590.237C790.614 590.237 796.608 584.374 796.608 577.142C796.608 569.911 790.614 564.048 783.221 564.048C775.827 564.048 769.833 569.911 769.833 577.142C769.833 584.374 775.827 590.237 783.221 590.237Z" fill="#E6E6E6"/>
<path d="M534.119 227.027C541.512 227.027 547.506 221.164 547.506 213.933C547.506 206.701 541.512 200.838 534.119 200.838C526.725 200.838 520.731 206.701 520.731 213.933C520.731 221.164 526.725 227.027 534.119 227.027Z" fill="#E6E6E6"/>
<path d="M253.585 716.227C253.585 719.56 253.697 722.893 253.936 726.199C254.188 730.15 254.623 734.073 255.212 737.968C257.191 751.085 260.975 763.88 266.459 776.006C266.739 776.609 267.02 777.213 267.3 777.816L267.721 778.721C267.861 779.023 268.016 779.325 268.156 779.613C268.352 780.011 268.534 780.395 268.731 780.779C268.969 781.259 269.208 781.739 269.46 782.219C269.488 782.274 269.516 782.343 269.558 782.411C269.768 782.823 269.965 783.221 270.189 783.632C270.23 783.722 270.277 783.809 270.329 783.893C270.568 784.359 270.82 784.839 271.073 785.306C271.353 785.799 271.62 786.307 271.9 786.801C272.573 788.022 273.274 789.229 273.99 790.436C274.2 790.792 274.41 791.149 274.635 791.506C274.831 791.835 275.027 792.164 275.238 792.493C275.378 792.713 275.518 792.946 275.658 793.165C275.883 793.536 276.107 793.892 276.346 794.263C276.864 795.072 277.397 795.881 277.916 796.691H277.93C278.169 797.061 278.421 797.431 278.674 797.788V797.802C279.417 798.899 280.188 799.996 280.959 801.08C280.961 801.08 280.963 801.08 280.965 801.081C280.967 801.082 280.968 801.083 280.969 801.084C280.971 801.085 280.972 801.087 280.972 801.089C280.973 801.09 280.974 801.092 280.973 801.094C281.591 801.972 282.236 802.822 282.867 803.673V803.686C283.287 804.221 283.694 804.77 284.115 805.305C284.451 805.744 284.802 806.197 285.153 806.636C285.223 806.731 285.307 806.814 285.377 806.91V806.924C285.475 807.047 285.573 807.157 285.671 807.28C287.158 809.146 288.691 810.97 290.271 812.753L290.524 813.041C290.608 813.137 290.706 813.233 290.79 813.343C290.93 813.494 291.057 813.645 291.197 813.796C291.323 813.947 291.463 814.098 291.603 814.248C299.84 823.323 309.179 831.38 319.413 838.239C320.773 839.158 322.161 840.05 323.55 840.914C323.9 841.134 324.251 841.353 324.601 841.559C324.699 841.628 324.812 841.696 324.91 841.765C325.106 841.874 325.288 841.984 325.485 842.108C325.667 842.217 325.849 842.327 326.046 842.437C326.789 842.889 327.546 843.328 328.304 843.767C328.486 843.877 328.682 843.987 328.879 844.097C329.061 844.193 329.257 844.302 329.454 844.412C329.454 844.426 329.454 844.426 329.468 844.426H329.482V844.44H329.496C330.435 844.975 331.389 845.496 332.356 846.003C332.875 846.278 333.408 846.566 333.941 846.826C335.147 847.471 336.367 848.088 337.587 848.678C338.022 848.884 338.471 849.09 338.906 849.309C339.27 849.474 339.635 849.652 339.999 849.817C340.112 849.871 340.21 849.913 340.308 849.967C340.616 850.105 340.911 850.242 341.219 850.379C341.556 850.53 341.893 850.681 342.215 850.832C342.594 850.996 342.958 851.161 343.337 851.312C344.739 851.929 346.156 852.519 347.572 853.081C352.648 855.116 357.836 856.875 363.11 858.349C363.349 858.417 363.601 858.486 363.854 858.554C366.112 859.172 368.384 859.734 370.669 860.241C374.666 861.147 378.7 861.888 382.772 862.464H382.8C383.291 862.532 383.768 862.601 384.258 862.669C384.3 862.669 384.343 862.683 384.399 862.683C384.399 862.697 384.399 862.697 384.413 862.683C384.946 862.752 385.492 862.82 386.025 862.889C386.062 862.899 386.1 862.904 386.138 862.903C386.642 862.971 387.161 863.026 387.666 863.081C388.213 863.136 388.76 863.191 389.307 863.245C389.728 863.287 390.148 863.328 390.569 863.369C390.605 863.381 390.643 863.386 390.681 863.383C391.06 863.41 391.439 863.451 391.817 863.479H391.873C392.196 863.506 392.532 863.534 392.855 863.561C396.768 863.863 400.694 864 404.677 864C408.982 864 413.259 863.835 417.481 863.479H417.523C418.434 863.396 419.332 863.314 420.229 863.232C420.468 863.204 420.692 863.191 420.93 863.163C420.973 863.163 421.029 863.15 421.071 863.15C421.141 863.136 421.211 863.136 421.295 863.122C421.333 863.124 421.371 863.119 421.407 863.108C421.716 863.081 422.024 863.04 422.347 863.012L423.399 862.889C423.749 862.848 424.1 862.793 424.45 862.752C424.535 862.738 424.605 862.738 424.689 862.724C424.941 862.697 425.194 862.656 425.446 862.615C425.572 862.601 425.699 862.587 425.811 862.573C426.063 862.532 426.302 862.505 426.554 862.464H426.568C434.263 861.38 441.86 859.706 449.286 857.457C449.679 857.334 450.072 857.224 450.464 857.1C450.478 857.1 450.492 857.087 450.506 857.087C450.619 857.046 450.745 857.018 450.857 856.977C451.909 856.648 452.947 856.305 453.984 855.948C455.415 855.482 456.831 854.974 458.248 854.453C458.626 854.302 459.005 854.165 459.384 854.014C460.155 853.726 460.912 853.424 461.669 853.122C462.96 852.615 464.25 852.08 465.526 851.531C466.718 851.01 467.896 850.489 469.074 849.94C469.102 849.926 469.144 849.926 469.172 849.899C469.439 849.776 469.705 849.652 469.957 849.529H469.971C476.43 846.497 482.658 843.018 488.609 839.117C490.516 837.869 492.395 836.58 494.247 835.249C495.733 834.166 497.192 833.068 498.65 831.943C505.845 826.345 512.506 820.12 518.55 813.343V813.329C518.984 812.863 519.391 812.383 519.812 811.903C519.882 811.834 519.938 811.766 519.994 811.711C520.261 811.395 520.513 811.094 520.78 810.792V810.778C521.13 810.38 521.481 809.969 521.817 809.557C521.901 809.461 521.971 809.379 522.042 809.297V809.283C522.322 808.954 522.588 808.625 522.869 808.282C523.009 808.117 523.135 807.952 523.276 807.788V807.774C524.103 806.759 524.902 805.744 525.702 804.701C525.912 804.427 526.123 804.139 526.347 803.851C527.357 802.52 528.338 801.162 529.292 799.804V799.791C529.657 799.283 530.007 798.762 530.372 798.254C530.722 797.733 531.073 797.212 531.423 796.691C531.774 796.142 532.139 795.607 532.489 795.058L532.531 794.976C532.882 794.455 533.233 793.906 533.569 793.371C533.836 792.932 534.102 792.507 534.369 792.082C534.537 791.794 534.719 791.506 534.887 791.204C534.953 791.111 535.014 791.015 535.07 790.916C535.462 790.244 535.855 789.572 536.248 788.9C536.71 788.118 537.159 787.322 537.608 786.527C537.776 786.197 537.959 785.868 538.141 785.539C538.211 785.429 538.267 785.319 538.323 785.21C538.534 784.826 538.744 784.428 538.94 784.03C539.151 783.646 539.361 783.248 539.571 782.85C539.768 782.466 539.978 782.069 540.174 781.671C540.329 781.369 540.469 781.067 540.623 780.765C540.634 780.741 540.648 780.718 540.665 780.697C540.735 780.546 540.805 780.409 540.862 780.272C540.879 780.251 540.893 780.228 540.904 780.203C541.058 779.901 541.198 779.586 541.352 779.284C541.549 778.886 541.731 778.475 541.927 778.077C542.053 777.803 542.194 777.515 542.32 777.226C542.502 776.829 542.699 776.431 542.867 776.019C543.063 775.608 543.245 775.196 543.428 774.771C543.48 774.669 543.527 774.563 543.568 774.456C543.666 774.264 543.736 774.072 543.821 773.88C544.045 773.372 544.269 772.851 544.48 772.343C544.732 771.767 544.97 771.177 545.195 770.601C545.419 770.066 545.63 769.518 545.84 768.969L545.924 768.777C549.192 760.359 551.67 751.668 553.329 742.811V742.797C554.264 737.74 554.933 732.64 555.334 727.516C555.348 727.228 555.376 726.954 555.39 726.679C555.643 723.209 555.755 719.725 555.755 716.227C555.755 714.677 555.727 713.141 555.685 711.604C554.706 679.474 542.992 648.542 522.336 623.541C521.887 622.993 521.439 622.444 520.976 621.895C520.513 621.347 520.036 620.812 519.573 620.277C504.2 602.667 484.812 588.837 462.971 579.901C441.131 570.966 417.449 567.175 393.836 568.834C370.223 570.493 347.338 577.556 327.028 589.453C306.717 601.35 289.549 617.749 276.907 637.327C276.219 638.397 275.532 639.48 274.873 640.564C274.2 641.661 273.555 642.759 272.91 643.87C260.205 665.959 253.549 690.883 253.585 716.227Z" fill="#F2F2F2"/>
<path d="M398.672 619.568C423.516 625.804 448.975 629.398 474.608 630.288C478.484 630.495 482.369 630.469 486.242 630.211C494.753 629.511 502.043 626.894 510.163 625.465C514.066 624.779 518.414 624.278 522.343 623.537C521.435 622.435 520.511 621.347 519.57 620.272C511.097 620.972 502.492 623.264 493.917 624.329C479.34 626.143 463.007 624.119 451.957 619.13C446.596 616.708 442.489 613.687 437.146 611.254C436.42 610.89 435.633 610.654 434.822 610.558C433.281 610.513 431.76 610.899 430.436 611.671C421.473 616.097 408.46 619.693 396.381 617.715C395.48 618.404 397.191 619.189 398.672 619.568Z" fill="white"/>
<path d="M345.22 635.144C345.11 635.124 345 635.109 344.889 635.09C345.353 634.809 345.79 634.487 346.194 634.128L345.22 635.144Z" fill="white"/>
<path d="M272.913 643.876C277.957 644.27 283.029 644.564 288.126 644.756C292.002 644.961 295.888 644.935 299.761 644.679C308.272 643.975 315.562 641.362 323.681 639.933C331.122 638.624 340.164 637.994 344.889 635.09C332.678 633.023 320.026 637.231 307.435 638.797C297.25 640.022 286.926 639.524 276.914 637.323C275.52 639.468 274.186 641.652 272.913 643.876Z" fill="white"/>
<path d="M333.941 846.826C335.147 847.471 336.367 848.088 337.587 848.678C338.022 848.884 338.471 849.09 338.905 849.309C339.27 849.474 339.635 849.652 339.999 849.817C340.111 849.872 340.21 849.913 340.308 849.968C340.616 850.105 340.911 850.242 341.219 850.379C341.556 850.53 341.892 850.681 342.215 850.832C342.594 850.996 342.958 851.161 343.337 851.312C344.739 851.929 346.156 852.519 347.572 853.081C352.648 855.117 357.835 856.875 363.11 858.349C363.349 858.417 363.601 858.486 363.854 858.554C366.111 859.172 368.383 859.734 370.669 860.242C374.666 861.147 378.7 861.888 382.772 862.464H382.8C383.291 862.532 383.767 862.601 384.258 862.67C384.3 862.67 384.342 862.683 384.398 862.683C384.398 862.697 384.398 862.697 384.412 862.683C384.945 862.752 385.492 862.82 386.025 862.889C386.062 862.9 386.099 862.904 386.137 862.903C386.642 862.971 387.161 863.026 387.666 863.081C388.213 863.136 388.76 863.191 389.307 863.246C389.727 863.287 390.148 863.328 390.569 863.369C390.605 863.381 390.643 863.386 390.681 863.383C391.06 863.41 391.438 863.451 391.817 863.479H391.873C392.196 863.506 392.532 863.534 392.855 863.561C396.767 863.863 400.694 864 404.677 864C408.982 864 413.259 863.836 417.48 863.479H417.523C418.434 863.397 419.332 863.314 420.229 863.232C420.468 863.205 420.692 863.191 420.93 863.163C420.972 863.163 421.028 863.15 421.071 863.15C421.141 863.136 421.211 863.136 421.295 863.122C421.333 863.124 421.371 863.119 421.407 863.108C421.716 863.081 422.024 863.04 422.347 863.012L423.398 862.889C423.749 862.848 424.1 862.793 424.45 862.752C424.534 862.738 424.604 862.738 424.689 862.724C424.941 862.697 425.194 862.656 425.446 862.615C425.572 862.601 425.698 862.587 425.811 862.574C426.063 862.532 426.301 862.505 426.554 862.464H426.568C434.263 861.38 441.859 859.706 449.286 857.457C449.679 857.334 450.072 857.224 450.464 857.101C448.654 848.841 444.926 841.098 439.569 834.472C434.212 827.846 427.37 822.513 419.57 818.885C421.499 817.087 422.833 814.765 423.398 812.218C423.763 810.577 423.791 808.881 423.483 807.229C423.175 805.576 422.536 803.999 421.603 802.589C419.784 799.856 416.929 797.942 413.666 797.267L392.883 793.015C389.537 792.377 386.069 793.056 383.233 794.906C380.397 796.755 378.422 799.625 377.737 802.891C377.525 803.892 377.431 804.914 377.457 805.936C357.445 818.967 343.042 832.478 333.941 846.826Z" fill="#053F5E"/>
<path d="M395.307 784.985C419.221 784.985 438.606 766.024 438.606 742.633C438.606 719.243 419.221 700.281 395.307 700.281C371.394 700.281 352.008 719.243 352.008 742.633C352.008 766.024 371.394 784.985 395.307 784.985Z" fill="#FFB8B8"/>
<path d="M368.318 779.148C363.701 776.063 358.986 770.134 355.838 765.691C351.667 759.851 348.797 753.218 347.414 746.223C346.031 739.229 346.166 732.028 347.81 725.087C348.334 722.312 349.623 719.73 351.537 717.618C353.576 715.644 356.907 714.708 359.396 716.104C358.717 714.325 358.418 712.428 358.517 710.532C358.616 708.635 359.112 706.778 359.973 705.076C361.723 701.678 364.258 698.725 367.377 696.451C373.343 691.958 380.441 689.128 387.918 688.262C395.395 687.396 402.972 688.527 409.846 691.533C412.55 692.759 408.108 683.291 410.939 684.204C413.751 685.27 416.878 685.216 419.65 684.055C422.313 682.744 431.138 690.533 430.117 687.793C432.137 688.691 433.893 690.074 435.22 691.813C436.547 693.553 437.402 695.593 437.706 697.743C438.01 699.893 437.753 702.084 436.959 704.11C436.164 706.137 434.858 707.934 433.162 709.334C430.928 711.179 428.138 712.241 425.691 713.808C421.404 716.758 418.369 721.141 417.161 726.13C415.952 731.119 416.652 736.368 419.129 740.886C416.555 739.268 413.73 738.067 410.765 737.33C409.277 736.975 407.724 736.973 406.235 737.323C404.745 737.673 403.363 738.366 402.203 739.344C401.234 740.429 400.502 741.697 400.052 743.069C399.601 744.441 399.443 745.888 399.585 747.322C399.682 750.196 400.381 753.028 400.46 755.902C400.69 764.337 405.308 780.373 398.622 784.857C393.346 788.395 374.623 783.36 368.318 779.148Z" fill="#2F2E41"/>
<path d="M425.079 530.65C424.167 530.648 423.264 530.47 422.423 530.125C421.168 529.632 420.094 528.779 419.343 527.679C418.591 526.579 418.196 525.282 418.211 523.959V517.255C418.209 515.849 417.638 514.501 416.621 513.507C415.605 512.512 414.226 511.953 412.789 511.951C410.979 511.95 409.245 511.246 407.965 509.994C406.686 508.743 405.966 507.046 405.964 505.276V413.434C405.966 411.664 406.685 409.967 407.965 408.716C409.244 407.464 410.979 406.76 412.788 406.758H723.872C725.682 406.76 727.416 407.464 728.696 408.715C729.975 409.967 730.695 411.664 730.697 413.434V505.276C730.695 507.046 729.975 508.743 728.696 509.994C727.416 511.246 725.682 511.95 723.872 511.951H449.209C448.497 511.95 447.791 512.086 447.133 512.353C446.475 512.619 445.877 513.011 445.375 513.505L429.862 528.678C429.238 529.301 428.494 529.795 427.672 530.134C426.851 530.472 425.97 530.648 425.079 530.65V530.65Z" fill="white"/>
<path d="M425.079 532.022C423.982 532.021 422.897 531.807 421.886 531.392C420.373 530.797 419.079 529.769 418.173 528.443C417.267 527.117 416.791 525.554 416.808 523.959V517.256C416.807 516.214 416.384 515.214 415.63 514.477C414.877 513.739 413.855 513.324 412.789 513.323C410.607 513.321 408.516 512.472 406.974 510.963C405.431 509.454 404.564 507.409 404.562 505.275V413.434C404.564 411.3 405.431 409.255 406.974 407.746C408.516 406.237 410.607 405.389 412.788 405.386H723.872C726.053 405.389 728.145 406.237 729.687 407.746C731.229 409.255 732.097 411.3 732.099 413.434V505.275C732.097 507.409 731.23 509.454 729.687 510.963C728.145 512.472 726.053 513.321 723.872 513.323H449.209C448.681 513.322 448.158 513.423 447.67 513.62C447.182 513.818 446.739 514.109 446.366 514.475L430.853 529.648C430.099 530.398 429.2 530.994 428.209 531.401C427.218 531.809 426.154 532.02 425.079 532.022V532.022ZM412.788 408.13C411.351 408.131 409.972 408.691 408.956 409.685C407.939 410.679 407.368 412.027 407.366 413.434V505.275C407.368 506.682 407.939 508.03 408.956 509.024C409.973 510.019 411.351 510.578 412.789 510.58C414.598 510.582 416.333 511.286 417.612 512.538C418.892 513.789 419.611 515.486 419.613 517.256V523.959C419.613 525.008 419.932 526.033 420.527 526.905C421.123 527.777 421.97 528.457 422.961 528.858C423.952 529.26 425.042 529.365 426.093 529.16C427.145 528.955 428.111 528.45 428.87 527.709L444.383 512.536C445.016 511.914 445.768 511.42 446.596 511.085C447.424 510.749 448.313 510.577 449.209 510.58H723.872C725.31 510.578 726.688 510.019 727.705 509.024C728.722 508.03 729.293 506.682 729.295 505.275V413.434C729.293 412.027 728.721 410.679 727.705 409.685C726.688 408.69 725.31 408.131 723.872 408.13L412.788 408.13Z" fill="#3F3D56"/>
<path d="M697.14 448.338H444.883C443.92 448.338 442.996 447.963 442.314 447.297C441.633 446.63 441.25 445.726 441.25 444.784C441.25 443.841 441.633 442.937 442.314 442.271C442.996 441.604 443.92 441.23 444.883 441.23H697.14C698.104 441.23 699.028 441.604 699.709 442.271C700.39 442.937 700.773 443.841 700.773 444.784C700.773 445.726 700.39 446.63 699.709 447.297C699.028 447.963 698.104 448.338 697.14 448.338Z" fill="#053F5E"/>
<path d="M696.676 463.436H444.883C443.92 463.436 442.996 463.061 442.314 462.395C441.633 461.728 441.25 460.824 441.25 459.882C441.25 458.939 441.633 458.035 442.314 457.369C442.996 456.702 443.92 456.328 444.883 456.328H696.676C697.64 456.328 698.564 456.702 699.246 457.369C699.927 458.035 700.31 458.939 700.31 459.882C700.31 460.824 699.927 461.728 699.246 462.395C698.564 463.061 697.64 463.436 696.676 463.436V463.436Z" fill="#E6E6E6"/>
<path d="M696.426 478.533H444.883C443.92 478.533 442.996 478.159 442.314 477.492C441.633 476.826 441.25 475.922 441.25 474.979C441.25 474.037 441.633 473.133 442.314 472.466C442.996 471.8 443.92 471.425 444.883 471.425H696.426C697.389 471.425 698.314 471.8 698.995 472.466C699.676 473.133 700.059 474.037 700.059 474.979C700.059 475.922 699.676 476.826 698.995 477.492C698.314 478.159 697.389 478.533 696.426 478.533V478.533Z" fill="#E6E6E6"/>
<path d="M1094.39 392.506C1094.39 395.839 1094.28 399.172 1094.04 402.478C1093.79 406.429 1093.35 410.352 1092.77 414.247C1090.79 427.364 1087 440.159 1081.52 452.284C1081.24 452.888 1080.96 453.492 1080.68 454.095L1080.26 455C1080.12 455.302 1079.96 455.604 1079.82 455.892C1079.63 456.29 1079.44 456.674 1079.25 457.058C1079.01 457.538 1078.77 458.018 1078.52 458.498C1078.49 458.553 1078.46 458.622 1078.42 458.69C1078.21 459.102 1078.01 459.5 1077.79 459.911C1077.75 460.001 1077.7 460.088 1077.65 460.172C1077.41 460.638 1077.16 461.118 1076.9 461.585C1076.62 462.078 1076.36 462.586 1076.08 463.08C1075.4 464.301 1074.7 465.508 1073.99 466.715C1073.78 467.071 1073.57 467.428 1073.34 467.785C1073.15 468.114 1072.95 468.443 1072.74 468.772C1072.6 468.992 1072.46 469.225 1072.32 469.444C1072.09 469.815 1071.87 470.171 1071.63 470.542C1071.11 471.351 1070.58 472.16 1070.06 472.97H1070.05C1069.81 473.34 1069.56 473.71 1069.3 474.067V474.081C1068.56 475.178 1067.79 476.275 1067.02 477.359C1067.02 477.359 1067.01 477.359 1067.01 477.36C1067.01 477.361 1067.01 477.362 1067.01 477.363C1067.01 477.364 1067.01 477.366 1067 477.367C1067 477.369 1067 477.371 1067 477.373C1066.39 478.251 1065.74 479.101 1065.11 479.952V479.965C1064.69 480.5 1064.28 481.049 1063.86 481.584C1063.53 482.023 1063.18 482.475 1062.82 482.914C1062.75 483.01 1062.67 483.093 1062.6 483.189V483.202C1062.5 483.326 1062.4 483.436 1062.31 483.559C1060.82 485.425 1059.29 487.249 1057.71 489.032L1057.45 489.32C1057.37 489.416 1057.27 489.512 1057.19 489.622C1057.05 489.773 1056.92 489.924 1056.78 490.075C1056.65 490.226 1056.51 490.376 1056.37 490.527C1048.14 499.602 1038.8 507.659 1028.56 514.518C1027.2 515.437 1025.82 516.329 1024.43 517.193C1024.08 517.413 1023.73 517.632 1023.38 517.838C1023.28 517.906 1023.17 517.975 1023.07 518.044C1022.87 518.153 1022.69 518.263 1022.49 518.387C1022.31 518.496 1022.13 518.606 1021.93 518.716C1021.19 519.168 1020.43 519.607 1019.67 520.046C1019.49 520.156 1019.3 520.266 1019.1 520.376C1018.92 520.472 1018.72 520.581 1018.52 520.691C1018.52 520.705 1018.52 520.705 1018.51 520.705H1018.5V520.719H1018.48C1017.54 521.253 1016.59 521.775 1015.62 522.282C1015.1 522.557 1014.57 522.845 1014.04 523.105C1012.83 523.75 1011.61 524.367 1010.39 524.957C1009.96 525.163 1009.51 525.369 1009.07 525.588C1008.71 525.753 1008.34 525.931 1007.98 526.096C1007.87 526.15 1007.77 526.192 1007.67 526.246C1007.36 526.384 1007.07 526.521 1006.76 526.658C1006.42 526.809 1006.08 526.96 1005.76 527.111C1005.38 527.275 1005.02 527.44 1004.64 527.591C1003.24 528.208 1001.82 528.798 1000.41 529.36C995.329 531.395 990.142 533.154 984.867 534.628C984.628 534.696 984.376 534.765 984.124 534.833C981.866 535.451 979.594 536.013 977.308 536.52C973.311 537.426 969.277 538.167 965.205 538.743H965.177C964.687 538.811 964.21 538.88 963.719 538.948C963.677 538.948 963.635 538.962 963.579 538.962C963.579 538.976 963.579 538.976 963.565 538.962C963.032 539.031 962.485 539.099 961.952 539.168C961.916 539.178 961.878 539.183 961.84 539.182C961.335 539.25 960.816 539.305 960.311 539.36C959.764 539.415 959.217 539.47 958.67 539.524C958.25 539.566 957.829 539.607 957.408 539.648C957.372 539.66 957.334 539.665 957.296 539.662C956.918 539.689 956.539 539.73 956.16 539.758H956.104C955.782 539.785 955.445 539.813 955.122 539.84C951.21 540.142 947.283 540.279 943.3 540.279C938.995 540.279 934.718 540.114 930.497 539.758H930.455C929.543 539.675 928.646 539.593 927.748 539.511C927.51 539.483 927.285 539.47 927.047 539.442C927.005 539.442 926.949 539.428 926.907 539.428C926.837 539.415 926.766 539.415 926.682 539.401C926.644 539.402 926.606 539.398 926.57 539.387C926.262 539.36 925.953 539.319 925.631 539.291L924.579 539.168C924.228 539.127 923.878 539.072 923.527 539.031C923.443 539.017 923.373 539.017 923.289 539.003C923.036 538.976 922.784 538.935 922.531 538.894C922.405 538.88 922.279 538.866 922.167 538.852C921.914 538.811 921.676 538.784 921.423 538.743H921.409C913.714 537.659 906.118 535.985 898.691 533.736C898.298 533.613 897.906 533.503 897.513 533.379C897.499 533.379 897.485 533.366 897.471 533.366C897.359 533.324 897.232 533.297 897.12 533.256C896.068 532.927 895.031 532.584 893.993 532.227C892.563 531.761 891.146 531.253 889.73 530.732C889.351 530.581 888.973 530.444 888.594 530.293C887.823 530.005 887.065 529.703 886.308 529.401C885.018 528.894 883.728 528.359 882.451 527.81C881.259 527.289 880.081 526.768 878.903 526.219C878.875 526.205 878.833 526.205 878.805 526.178C878.539 526.054 878.272 525.931 878.02 525.808H878.006C871.548 522.776 865.319 519.297 859.368 515.396C857.461 514.148 855.582 512.859 853.731 511.528C852.244 510.445 850.786 509.347 849.327 508.222C842.132 502.624 835.472 496.399 829.428 489.622V489.608C828.993 489.142 828.586 488.662 828.166 488.182C828.095 488.113 828.039 488.045 827.983 487.99C827.717 487.674 827.464 487.373 827.198 487.071V487.057C826.847 486.659 826.497 486.248 826.16 485.836C826.076 485.74 826.006 485.658 825.936 485.576V485.562C825.655 485.233 825.389 484.903 825.108 484.561C824.968 484.396 824.842 484.231 824.702 484.067V484.053C823.874 483.038 823.075 482.023 822.276 480.98C822.065 480.706 821.855 480.418 821.63 480.13C820.621 478.799 819.639 477.441 818.685 476.083V476.07C818.321 475.562 817.97 475.041 817.606 474.533C817.255 474.012 816.904 473.491 816.554 472.97C816.203 472.421 815.839 471.886 815.488 471.337L815.446 471.255C815.095 470.734 814.745 470.185 814.408 469.65C814.142 469.211 813.875 468.786 813.609 468.361C813.441 468.073 813.258 467.785 813.09 467.483C813.024 467.39 812.963 467.294 812.908 467.195C812.515 466.523 812.122 465.851 811.73 465.178C811.267 464.397 810.818 463.601 810.369 462.805C810.201 462.476 810.019 462.147 809.836 461.818C809.766 461.708 809.71 461.598 809.654 461.489C809.444 461.105 809.233 460.707 809.037 460.309C808.827 459.925 808.616 459.527 808.406 459.129C808.21 458.745 807.999 458.347 807.803 457.95C807.649 457.648 807.509 457.346 807.354 457.044C807.343 457.02 807.329 456.997 807.312 456.976C807.242 456.825 807.172 456.688 807.116 456.551C807.099 456.53 807.085 456.507 807.074 456.482C806.92 456.18 806.779 455.865 806.625 455.563C806.429 455.165 806.246 454.754 806.05 454.356C805.924 454.081 805.784 453.793 805.657 453.505C805.475 453.108 805.279 452.71 805.11 452.298C804.914 451.887 804.732 451.475 804.549 451.05C804.497 450.947 804.45 450.842 804.409 450.734C804.311 450.542 804.241 450.35 804.157 450.158C803.932 449.651 803.708 449.13 803.498 448.622C803.245 448.046 803.007 447.456 802.783 446.88C802.558 446.345 802.348 445.796 802.137 445.248L802.053 445.056C798.786 436.638 796.307 427.946 794.649 419.089V419.076C793.713 414.019 793.044 408.919 792.643 403.795C792.629 403.507 792.601 403.233 792.587 402.958C792.335 399.488 792.223 396.004 792.223 392.506C792.223 390.956 792.251 389.42 792.293 387.883C793.272 355.753 804.985 324.821 825.641 299.82C826.09 299.271 826.539 298.723 827.002 298.174C827.464 297.625 827.941 297.09 828.404 296.555C843.777 278.946 863.166 265.116 885.006 256.18C906.847 247.245 930.528 243.453 954.141 245.113C977.755 246.772 1000.64 253.835 1020.95 265.732C1041.26 277.629 1058.43 294.028 1071.07 313.606C1071.76 314.676 1072.45 315.759 1073.1 316.843C1073.78 317.94 1074.42 319.038 1075.07 320.149C1087.77 342.238 1094.43 367.161 1094.39 392.506V392.506Z" fill="#F2F2F2"/>
<path d="M949.305 295.847C924.461 302.083 899.002 305.677 873.369 306.567C869.493 306.774 865.608 306.748 861.735 306.49C853.224 305.79 845.934 303.173 837.814 301.743C833.911 301.058 829.563 300.557 825.634 299.816C826.542 298.714 827.466 297.626 828.407 296.551C836.88 297.251 845.485 299.543 854.06 300.608C868.637 302.422 884.97 300.398 896.02 295.409C901.381 292.987 905.488 289.966 910.831 287.533C911.557 287.168 912.344 286.933 913.155 286.837C914.696 286.792 916.217 287.178 917.541 287.95C926.504 292.376 939.517 295.972 951.596 293.993C952.497 294.683 950.786 295.468 949.305 295.847Z" fill="white"/>
<path d="M1002.76 311.423C1002.87 311.403 1002.98 311.388 1003.09 311.369C1002.62 311.088 1002.19 310.766 1001.78 310.407L1002.76 311.423Z" fill="white"/>
<path d="M1075.06 320.155C1070.02 320.549 1064.95 320.843 1059.85 321.035C1055.98 321.24 1052.09 321.214 1048.22 320.958C1039.71 320.254 1032.42 317.641 1024.3 316.211C1016.86 314.903 1007.81 314.273 1003.09 311.369C1015.3 309.302 1027.95 313.51 1040.54 315.076C1050.73 316.301 1061.05 315.803 1071.06 313.602C1072.46 315.747 1073.79 317.931 1075.06 320.155Z" fill="white"/>
<path d="M926.268 457.17C951.33 457.17 971.647 436.854 971.647 411.794C971.647 386.734 951.33 366.419 926.268 366.419C901.206 366.419 880.89 386.734 880.89 411.794C880.89 436.854 901.206 457.17 926.268 457.17Z" fill="#FFB6B6"/>
<path d="M1014.04 523.105C1012.83 523.75 1011.61 524.367 1010.39 524.957C1009.96 525.163 1009.51 525.369 1009.07 525.588C1008.71 525.753 1008.34 525.931 1007.98 526.096C1007.87 526.15 1007.77 526.192 1007.67 526.246C1007.36 526.384 1007.07 526.521 1006.76 526.658C1006.42 526.809 1006.09 526.96 1005.76 527.111C1005.38 527.275 1005.02 527.44 1004.64 527.591C1003.24 528.208 1001.82 528.798 1000.41 529.36C995.329 531.395 990.142 533.154 984.867 534.628C984.629 534.696 984.376 534.765 984.124 534.833C981.866 535.451 979.594 536.013 977.308 536.521C973.312 537.426 969.277 538.167 965.206 538.743H965.178C964.687 538.811 964.21 538.88 963.719 538.948C963.677 538.948 963.635 538.962 963.579 538.962C963.579 538.976 963.579 538.976 963.565 538.962C963.032 539.031 962.485 539.099 961.952 539.168C961.916 539.178 961.878 539.183 961.84 539.182C961.335 539.25 960.816 539.305 960.311 539.36C959.765 539.415 959.218 539.47 958.671 539.525C958.25 539.566 957.829 539.607 957.409 539.648C957.373 539.66 957.334 539.665 957.296 539.662C956.918 539.689 956.539 539.73 956.16 539.758H956.104C955.782 539.785 955.445 539.813 955.123 539.84C951.21 540.142 947.283 540.279 943.301 540.279C938.995 540.279 934.718 540.114 930.497 539.758H930.455C929.543 539.675 928.646 539.593 927.748 539.511C927.51 539.483 927.286 539.47 927.047 539.442C927.005 539.442 926.949 539.429 926.907 539.429C926.837 539.415 926.767 539.415 926.683 539.401C926.645 539.403 926.607 539.398 926.57 539.387C926.262 539.36 925.953 539.319 925.631 539.291L924.579 539.168C924.228 539.127 923.878 539.072 923.527 539.031C923.443 539.017 923.373 539.017 923.289 539.003C923.036 538.976 922.784 538.935 922.531 538.894C922.405 538.88 922.279 538.866 922.167 538.852C921.915 538.811 921.676 538.784 921.424 538.743H921.41C913.714 537.659 906.118 535.985 898.691 533.736C898.298 533.613 897.906 533.503 897.513 533.379C899.324 525.12 903.052 517.377 908.409 510.751C913.765 504.125 920.608 498.792 928.407 495.164C926.478 493.366 925.145 491.044 924.579 488.497C924.215 486.856 924.186 485.16 924.494 483.508C924.802 481.855 925.441 480.278 926.374 478.868C928.194 476.135 931.049 474.221 934.311 473.546L955.095 469.294C958.44 468.656 961.908 469.335 964.744 471.185C967.58 473.034 969.556 475.904 970.24 479.17C970.452 480.171 970.546 481.193 970.521 482.215C990.533 495.246 1004.94 508.757 1014.04 523.105Z" fill="#3F3D56"/>
<path d="M1047.7 392.115C1039.98 383.317 1036.32 371.644 1030.15 361.653C1023.98 351.662 1013.25 342.72 1001.92 345.045C994.102 346.648 988.063 353.392 985.005 360.912C981.949 368.432 981.376 376.724 980.84 384.848C981.029 368.153 969.784 351.968 954.293 346.641C938.804 341.314 920.266 347.256 910.532 360.669C906.284 356.818 900.74 354.625 894.95 354.506C889.159 354.388 883.526 356.351 879.117 360.024C870.41 367.635 868.484 382.122 874.887 391.83C881.289 401.538 895.156 405.155 905.331 399.771L908.929 403.007C906.904 409.935 910.831 418.117 917.432 420.725C922.784 422.84 930.341 422.488 932.344 427.982C933.744 431.821 931.128 435.919 928.344 438.869C925.562 441.819 922.258 444.865 921.924 448.948C921.419 455.107 927.926 459.422 933.842 460.722C948.106 463.855 963.933 457.394 972.155 445.081C972.313 444.844 972.485 444.606 972.671 444.368C977.284 438.598 980.645 431.969 982.55 424.886C984.455 417.803 984.864 410.414 983.751 403.171C983.289 400.325 983.755 398.209 985.761 397.535C994.431 394.622 1018.72 400.736 1026.07 406.261C1033.43 411.787 1039.31 419.1 1046.39 424.982C1053.48 430.864 1062.5 435.402 1071.49 433.8C1078.69 432.517 1084.82 427.403 1088.94 421.235C1093.06 415.067 1095.43 407.877 1097.56 400.732C1081.63 409.73 1059.84 405.963 1047.7 392.115Z" fill="#2F2E41"/>
<path d="M116.152 300.602C116.152 303.935 116.265 307.268 116.503 310.574C116.756 314.525 117.19 318.448 117.779 322.343C119.759 335.46 123.542 348.255 129.026 360.381C129.307 360.984 129.587 361.588 129.868 362.191L130.288 363.097C130.429 363.398 130.583 363.7 130.723 363.988C130.919 364.386 131.102 364.77 131.298 365.154C131.537 365.634 131.775 366.114 132.027 366.594C132.055 366.649 132.083 366.718 132.126 366.786C132.336 367.198 132.532 367.596 132.757 368.007C132.798 368.097 132.845 368.184 132.897 368.268C133.135 368.734 133.388 369.214 133.64 369.681C133.921 370.175 134.187 370.682 134.467 371.176C135.141 372.397 135.842 373.604 136.557 374.811C136.767 375.167 136.978 375.524 137.202 375.881C137.398 376.21 137.595 376.539 137.805 376.868C137.945 377.088 138.086 377.321 138.226 377.541C138.45 377.911 138.675 378.267 138.913 378.638C139.432 379.447 139.965 380.256 140.484 381.066H140.498C140.736 381.436 140.989 381.806 141.241 382.163V382.177C141.984 383.274 142.756 384.372 143.527 385.455C143.529 385.455 143.53 385.455 143.532 385.456C143.534 385.457 143.536 385.458 143.537 385.459C143.538 385.46 143.539 385.462 143.54 385.464C143.541 385.465 143.541 385.467 143.541 385.469C144.158 386.347 144.803 387.197 145.434 388.048V388.061C145.855 388.596 146.261 389.145 146.682 389.68C147.019 390.119 147.369 390.572 147.72 391.011C147.79 391.106 147.874 391.189 147.944 391.285V391.299C148.042 391.422 148.141 391.532 148.239 391.655C149.725 393.521 151.259 395.345 152.839 397.128L153.091 397.416C153.175 397.512 153.273 397.608 153.357 397.718C153.498 397.869 153.624 398.02 153.764 398.171C153.89 398.322 154.031 398.473 154.171 398.623C162.407 407.698 171.746 415.755 181.98 422.614C183.34 423.534 184.729 424.425 186.117 425.289C186.467 425.509 186.818 425.728 187.169 425.934C187.267 426.003 187.379 426.071 187.477 426.14C187.674 426.249 187.856 426.359 188.052 426.483C188.234 426.592 188.417 426.702 188.613 426.812C189.356 427.265 190.114 427.703 190.871 428.142C191.053 428.252 191.25 428.362 191.446 428.472C191.628 428.568 191.825 428.677 192.021 428.787C192.021 428.801 192.021 428.801 192.035 428.801H192.049V428.815H192.063C193.003 429.35 193.956 429.871 194.924 430.378C195.443 430.653 195.976 430.941 196.509 431.201C197.715 431.846 198.935 432.463 200.155 433.053C200.589 433.259 201.038 433.465 201.473 433.684C201.838 433.849 202.202 434.027 202.567 434.192C202.679 434.246 202.777 434.288 202.875 434.343C203.184 434.48 203.478 434.617 203.787 434.754C204.123 434.905 204.46 435.056 204.782 435.207C205.161 435.371 205.526 435.536 205.904 435.687C207.307 436.304 208.723 436.894 210.14 437.456C215.216 439.491 220.403 441.25 225.678 442.724C225.916 442.792 226.169 442.861 226.421 442.929C228.679 443.547 230.951 444.109 233.237 444.617C237.234 445.522 241.268 446.263 245.339 446.839H245.367C245.858 446.907 246.335 446.976 246.826 447.044C246.868 447.044 246.91 447.058 246.966 447.058C246.966 447.072 246.966 447.072 246.98 447.058C247.513 447.127 248.06 447.195 248.593 447.264C248.629 447.274 248.667 447.279 248.705 447.278C249.21 447.346 249.729 447.401 250.234 447.456C250.78 447.511 251.327 447.566 251.874 447.621C252.295 447.662 252.716 447.703 253.136 447.744C253.172 447.756 253.211 447.761 253.249 447.758C253.627 447.785 254.006 447.826 254.385 447.854H254.441C254.763 447.881 255.1 447.909 255.422 447.936C259.335 448.238 263.262 448.375 267.244 448.375C271.55 448.375 275.827 448.21 280.048 447.854H280.09C281.002 447.771 281.899 447.689 282.797 447.607C283.035 447.579 283.259 447.566 283.498 447.538C283.54 447.538 283.596 447.525 283.638 447.525C283.708 447.511 283.778 447.511 283.862 447.497C283.9 447.499 283.938 447.494 283.975 447.483C284.283 447.456 284.592 447.415 284.914 447.387L285.966 447.264C286.317 447.223 286.667 447.168 287.018 447.127C287.102 447.113 287.172 447.113 287.256 447.099C287.509 447.072 287.761 447.031 288.013 446.99C288.14 446.976 288.266 446.962 288.378 446.949C288.631 446.907 288.869 446.88 289.121 446.839H289.135C296.831 445.755 304.427 444.081 311.854 441.832C312.247 441.709 312.639 441.599 313.032 441.475C313.046 441.475 313.06 441.462 313.074 441.462C313.186 441.421 313.312 441.393 313.424 441.352C314.476 441.023 315.514 440.68 316.552 440.323C317.982 439.857 319.399 439.349 320.815 438.828C321.194 438.677 321.572 438.54 321.951 438.389C322.722 438.101 323.48 437.799 324.237 437.498C325.527 436.99 326.817 436.455 328.093 435.906C329.285 435.385 330.463 434.864 331.641 434.315C331.669 434.302 331.711 434.302 331.739 434.274C332.006 434.151 332.272 434.027 332.525 433.904H332.539C338.997 430.872 345.225 427.393 351.176 423.492C353.084 422.244 354.963 420.955 356.814 419.624C358.3 418.541 359.759 417.443 361.217 416.318C368.413 410.72 375.073 404.495 381.117 397.718V397.705C381.552 397.238 381.958 396.758 382.379 396.278C382.449 396.209 382.505 396.141 382.562 396.086C382.828 395.77 383.08 395.469 383.347 395.167V395.153C383.697 394.755 384.048 394.344 384.385 393.932C384.469 393.836 384.539 393.754 384.609 393.672V393.658C384.889 393.329 385.156 393 385.436 392.657C385.577 392.492 385.703 392.327 385.843 392.163V392.149C386.67 391.134 387.47 390.119 388.269 389.077C388.48 388.802 388.69 388.514 388.914 388.226C389.924 386.896 390.906 385.538 391.859 384.18V384.166C392.224 383.658 392.574 383.137 392.939 382.63C393.29 382.108 393.64 381.587 393.991 381.066C394.341 380.517 394.706 379.982 395.057 379.434L395.099 379.351C395.449 378.83 395.8 378.281 396.136 377.746C396.403 377.307 396.669 376.882 396.936 376.457C397.104 376.169 397.286 375.881 397.455 375.579C397.521 375.486 397.581 375.39 397.637 375.291C398.03 374.619 398.422 373.947 398.815 373.275C399.278 372.493 399.727 371.697 400.175 370.902C400.344 370.572 400.526 370.243 400.708 369.914C400.778 369.804 400.834 369.694 400.891 369.585C401.101 369.201 401.311 368.803 401.508 368.405C401.718 368.021 401.928 367.623 402.139 367.225C402.335 366.841 402.545 366.444 402.742 366.046C402.896 365.744 403.036 365.442 403.19 365.14C403.201 365.116 403.215 365.093 403.233 365.072C403.303 364.921 403.373 364.784 403.429 364.647C403.446 364.626 403.46 364.603 403.471 364.578C403.625 364.276 403.765 363.961 403.92 363.659C404.116 363.261 404.298 362.85 404.495 362.452C404.621 362.178 404.761 361.89 404.887 361.601C405.07 361.204 405.266 360.806 405.434 360.394C405.631 359.983 405.813 359.571 405.995 359.146C406.048 359.044 406.095 358.938 406.135 358.831C406.234 358.639 406.304 358.447 406.388 358.255C406.612 357.747 406.837 357.226 407.047 356.718C407.299 356.142 407.538 355.552 407.762 354.976C407.987 354.441 408.197 353.892 408.407 353.344L408.491 353.152C411.759 344.734 414.237 336.043 415.896 327.186V327.172C416.831 322.115 417.501 317.015 417.901 311.891C417.915 311.603 417.943 311.329 417.957 311.054C418.21 307.584 418.322 304.1 418.322 300.602C418.322 299.052 418.294 297.516 418.252 295.979C417.273 263.849 405.56 232.917 384.903 207.916C384.455 207.368 384.006 206.819 383.543 206.27C383.08 205.721 382.604 205.187 382.141 204.652C366.768 187.042 347.379 173.212 325.539 164.276C303.698 155.341 280.017 151.55 256.403 153.209C232.79 154.868 209.906 161.931 189.595 173.828C169.285 185.725 152.116 202.124 139.474 221.702C138.787 222.772 138.1 223.855 137.441 224.939C136.767 226.036 136.122 227.134 135.477 228.245C122.773 250.334 116.116 275.258 116.152 300.602V300.602Z" fill="#F2F2F2"/>
<path d="M261.239 203.943C286.083 210.179 311.542 213.773 337.175 214.664C341.051 214.87 344.937 214.844 348.809 214.586C357.32 213.886 364.611 211.269 372.73 209.84C376.633 209.154 380.981 208.653 384.911 207.912C384.003 206.81 383.078 205.722 382.138 204.647C373.664 205.347 365.059 207.64 356.484 208.705C341.907 210.518 325.575 208.494 314.524 203.505C309.163 201.084 305.056 198.062 299.714 195.629C298.987 195.265 298.2 195.029 297.389 194.933C295.849 194.888 294.327 195.274 293.004 196.046C284.041 200.472 271.027 204.069 258.948 202.09C258.048 202.779 259.758 203.564 261.239 203.943Z" fill="white"/>
<path d="M207.788 219.519C207.678 219.499 207.567 219.484 207.457 219.465C207.921 219.184 208.357 218.862 208.762 218.503L207.788 219.519Z" fill="white"/>
<path d="M135.48 228.251C140.525 228.645 145.596 228.939 150.694 229.132C154.57 229.336 158.455 229.31 162.328 229.054C170.839 228.35 178.129 225.737 186.248 224.308C193.689 222.999 202.732 222.369 207.456 219.465C195.246 217.398 182.594 221.606 170.003 223.173C159.818 224.398 149.493 223.899 139.481 221.699C138.087 223.843 136.753 226.027 135.48 228.251Z" fill="white"/>
<path d="M196.508 431.201C197.714 431.846 198.934 432.463 200.154 433.053C200.589 433.259 201.038 433.465 201.473 433.684C201.837 433.849 202.202 434.027 202.567 434.192C202.679 434.247 202.777 434.288 202.875 434.343C203.184 434.48 203.478 434.617 203.787 434.754C204.123 434.905 204.46 435.056 204.782 435.207C205.161 435.371 205.526 435.536 205.904 435.687C207.307 436.304 208.723 436.894 210.139 437.456C215.215 439.492 220.403 441.25 225.678 442.724C225.916 442.792 226.169 442.861 226.421 442.929C228.679 443.547 230.951 444.109 233.237 444.617C237.233 445.522 241.268 446.263 245.339 446.839H245.367C245.858 446.907 246.335 446.976 246.826 447.045C246.868 447.045 246.91 447.058 246.966 447.058C246.966 447.072 246.966 447.072 246.98 447.058C247.513 447.127 248.06 447.195 248.593 447.264C248.629 447.275 248.667 447.279 248.705 447.278C249.21 447.346 249.728 447.401 250.233 447.456C250.78 447.511 251.327 447.566 251.874 447.621C252.295 447.662 252.716 447.703 253.136 447.744C253.172 447.756 253.21 447.761 253.248 447.758C253.627 447.785 254.006 447.826 254.384 447.854H254.44C254.763 447.881 255.1 447.909 255.422 447.936C259.335 448.238 263.261 448.375 267.244 448.375C271.549 448.375 275.827 448.211 280.048 447.854H280.09C281.001 447.772 281.899 447.689 282.796 447.607C283.035 447.58 283.259 447.566 283.498 447.538C283.54 447.538 283.596 447.525 283.638 447.525C283.708 447.511 283.778 447.511 283.862 447.497C283.9 447.499 283.938 447.494 283.974 447.483C284.283 447.456 284.592 447.415 284.914 447.388L285.966 447.264C286.316 447.223 286.667 447.168 287.018 447.127C287.102 447.113 287.172 447.113 287.256 447.099C287.508 447.072 287.761 447.031 288.013 446.99C288.14 446.976 288.266 446.962 288.378 446.949C288.63 446.907 288.869 446.88 289.121 446.839H289.135C296.831 445.755 304.427 444.081 311.854 441.832C312.246 441.709 312.639 441.599 313.032 441.476C311.221 433.216 307.493 425.474 302.136 418.847C296.779 412.221 289.937 406.888 282.137 403.26C284.067 401.462 285.4 399.14 285.966 396.593C286.33 394.952 286.359 393.256 286.051 391.604C285.743 389.951 285.104 388.374 284.171 386.964C282.351 384.231 279.496 382.317 276.233 381.642L255.45 377.39C252.105 376.752 248.637 377.431 245.801 379.281C242.964 381.13 240.989 384 240.305 387.266C240.093 388.267 239.998 389.289 240.024 390.311C220.012 403.342 205.61 416.853 196.508 431.201Z" fill="#2F2E41"/>
<path d="M278.727 363.668C306.666 363.668 329.315 341.514 329.315 314.186C329.315 286.858 306.666 264.705 278.727 264.705C250.788 264.705 228.139 286.858 228.139 314.186C228.139 341.514 250.788 363.668 278.727 363.668Z" fill="#9E616A"/>
<path d="M271.539 361.023C258.874 364.368 244.912 359.92 235.028 351.483C225.144 343.046 218.962 331.09 215.4 318.74C212.791 309.696 211.554 299.656 215.671 291.165C219.788 282.675 230.868 276.946 239.417 281.235C234.143 275.225 236.778 265.285 242.937 260.144C249.096 255.003 257.554 253.529 265.609 252.723C277.299 251.554 289.374 251.423 300.498 255.127C311.622 258.832 321.73 266.931 325.211 277.909C328.767 279.528 332.771 279.948 336.597 279.103C340.423 278.258 343.855 276.196 346.354 273.239C346.999 276.635 346.481 280.144 344.882 283.223C343.282 286.302 340.69 288.779 337.506 290.272L354.55 284.867C357.481 290.936 352.345 298.447 345.777 300.39C339.208 302.334 332.118 300.209 325.886 297.402C319.653 294.594 313.613 291.044 306.842 289.949C300.072 288.854 292.12 290.982 288.988 296.954C287.348 300.082 287.262 303.746 286.31 307.136C285.358 310.526 282.946 314.04 279.363 314.318C277.099 314.493 274.883 313.314 272.625 313.555C271.24 313.821 269.964 314.478 268.955 315.443C267.945 316.408 267.244 317.64 266.94 318.988C266.378 321.694 266.371 324.483 266.919 327.191L271.249 359.561L271.539 361.023Z" fill="#2F2E41"/>
</g>
<defs>
<clipPath id="clip0_87:222">
<rect width="1135" height="864" fill="white"/>
</clipPath>
</defs>
</svg>
