<svg width="153" height="78" viewBox="0 0 153 78" fill="none" xmlns="http://www.w3.org/2000/svg">
<g opacity="0.55">
<path d="M122.659 39.2623C127.706 39.2623 131.797 35.1896 131.797 30.1658C131.797 25.1419 127.706 21.0693 122.659 21.0693C117.612 21.0693 113.521 25.1419 113.521 30.1658C113.521 35.1896 117.612 39.2623 122.659 39.2623Z" fill="#FFB6B6"/>
<path d="M144.926 54.7986C139.966 60.4162 132.986 63.8669 125.493 64.406C118 64.9451 110.594 62.5293 104.875 57.68L107.33 50.8597C107.885 49.6484 108.761 48.6102 109.863 47.8566C110.966 47.1029 112.254 46.6622 113.589 46.5817L115.151 46.4863L118.875 43.2884C118.875 43.2884 128.911 42.9317 128.762 42.7609L134.842 46.4008L134.837 46.3757L137.226 46.5214C138.561 46.6015 139.849 47.0421 140.952 47.7958C142.054 48.5495 142.93 49.5878 143.485 50.7994L144.926 54.7986Z" fill="white"/>
<path d="M132.296 24.5243C131.524 21.7731 129.77 19.3969 127.363 17.8419C125.444 16.6204 123.05 15.9968 120.877 16.6428C118.703 17.2888 116.904 19.4121 117.046 21.7062C116.644 21.6008 116.219 21.6098 115.822 21.7321C115.424 21.8544 115.068 22.0851 114.796 22.3981C114.25 23.0389 113.871 23.8031 113.691 24.6236C112.994 27.1957 113.04 29.9116 113.825 32.4587L113.781 32.8243C114.842 32.6497 115.646 31.744 116.146 30.7791C116.646 29.8142 116.934 28.7436 117.476 27.8023C118.018 26.861 118.918 26.0213 119.992 25.9919L119.898 27.6259C120.822 27.1521 121.745 26.6782 122.669 26.2044C122.449 26.7277 122.23 27.251 122.01 27.7743C122.817 27.4386 123.624 27.1029 124.43 26.7672C124.34 27.2704 124.25 27.7736 124.16 28.2767C124.371 27.84 124.67 27.4504 125.037 27.1317C125.404 26.813 125.832 26.5718 126.296 26.4226C126.759 26.2735 127.248 26.2194 127.734 26.2638C128.219 26.3082 128.69 26.4501 129.118 26.6809C130.083 27.3272 130.778 28.3011 131.074 29.4206C131.367 30.5376 131.525 31.6856 131.543 32.8399C132.79 30.2482 133.057 27.2963 132.296 24.5243V24.5243Z" fill="#2F2E41"/>
<path d="M87.8663 42.1492L87.7247 42.4033C88.9854 39.3103 87.839 35.499 85.5899 33.1668C83.341 30.8345 80.2143 29.7683 77.1357 29.3453C74.8505 28.944 72.5004 29.1258 70.3049 29.8737C67.158 31.0805 64.7536 33.8742 62.7462 36.7803C61.828 38.1096 60.9252 39.625 61.0167 41.2864C61.1016 42.8282 62.0209 44.1366 62.7738 45.4447C63.5268 46.7527 64.1555 48.3756 63.6151 49.8033C63.2931 50.6541 62.6126 51.2669 62.0604 51.9628C61.5082 52.6588 61.054 53.5995 61.3207 54.4727C61.4391 54.8068 61.6426 55.1046 61.9112 55.337C62.1799 55.5694 62.5044 55.7285 62.8533 55.7986C63.5289 55.9109 64.2199 55.8946 64.8894 55.7506L82.4377 53.1113C83.6302 52.932 84.7613 52.4682 85.7348 51.7596C86.7083 51.051 87.4952 50.1186 88.0284 49.0418C88.5617 47.965 88.8254 46.7759 88.7972 45.5757C88.7689 44.3755 88.4496 43.1999 87.8663 42.1492V42.1492Z" fill="#2F2E41"/>
<path d="M74.8136 52.9895C79.552 52.9895 83.3933 49.1657 83.3933 44.4487C83.3933 39.7317 79.552 35.9079 74.8136 35.9079C70.0752 35.9079 66.2339 39.7317 66.2339 44.4487C66.2339 49.1657 70.0752 52.9895 74.8136 52.9895Z" fill="#FFB9B9"/>
<path d="M97.6537 67.7829C92.6943 73.4004 85.7146 76.8512 78.2214 77.3903C70.7282 77.9293 63.3226 75.5135 57.6033 70.6642L60.0586 63.844C60.6135 62.6326 61.4892 61.5944 62.5917 60.8408C63.6942 60.0871 64.982 59.6464 66.3169 59.5659L67.879 59.4705L71.6037 56.2726C71.6037 56.2726 81.6396 55.9159 81.4907 55.7451L87.5699 59.3851L87.5648 59.3599L89.9546 59.5056C91.2896 59.5858 92.5776 60.0264 93.6801 60.78C94.7827 61.5337 95.6583 62.5721 96.2129 63.7837L97.6537 67.7829Z" fill="#005D8D"/>
<path d="M82.9514 36.5218C82.7299 35.3555 81.5349 34.822 80.5111 34.5635C77.5414 33.8093 74.4522 33.6404 71.4174 34.0664C69.205 34.3805 66.9402 35.073 65.3349 36.792C64.0406 38.2395 63.3072 40.099 63.2665 42.0364C63.201 43.1948 63.461 44.3485 64.0174 45.3681C64.2662 45.8428 64.6348 46.2449 65.0869 46.535C65.539 46.825 66.0591 46.9931 66.5961 47.0226L66.6991 47.379C68.92 47.0228 71.0374 46.1932 72.9064 44.9469C74.7754 43.7007 76.352 42.0673 77.5281 40.1584C77.0552 41.8396 76.1139 43.3532 74.8132 44.5244C77.7214 43.366 80.2494 41.4265 82.1155 38.9221C82.6251 38.2488 83.1199 37.4091 82.9514 36.5218Z" fill="#2F2E41"/>
<path d="M28.9766 32.0703C33.773 32.0703 37.6612 28.1997 37.6612 23.4251C37.6612 18.6504 33.773 14.7798 28.9766 14.7798C24.1802 14.7798 20.292 18.6504 20.292 23.4251C20.292 28.1997 24.1802 32.0703 28.9766 32.0703Z" fill="#9E616A"/>
<path d="M50.7145 47.9296C45.7551 53.5471 38.7754 56.9979 31.2822 57.5369C23.789 58.076 16.3834 55.6602 10.6641 50.8109L13.1195 43.9907C13.6743 42.7793 14.55 41.7411 15.6525 40.9875C16.755 40.2338 18.0427 39.7931 19.3777 39.7126L20.9398 39.6172L24.6645 36.4193C24.6645 36.4193 34.7004 36.0626 34.5515 35.8918L40.6307 39.5318L40.6256 39.5066L43.0153 39.6523C44.3504 39.7325 45.6383 40.173 46.7409 40.9267C47.8435 41.6804 48.7191 42.7188 49.2736 43.9304L50.7145 47.9296Z" fill="#FFEA29"/>
<path d="M39.3797 20.3495C39.3352 19.4723 39.1043 18.6145 38.7025 17.8325C38.3006 17.0506 37.7368 16.3623 37.0482 15.8131C36.5003 15.4722 36.0173 15.0375 35.6215 14.5292C35.4304 14.1405 35.2684 13.7384 35.1369 13.326C34.4702 11.7463 32.5702 10.9068 30.8658 11.146C30.0183 11.3063 29.2119 11.6351 28.4949 12.1127C27.7779 12.5903 27.1651 13.2069 26.6929 13.9256C26.2034 13.6921 25.657 13.6032 25.1182 13.6693C24.5795 13.7354 24.0711 13.9537 23.6532 14.2986C23.2353 14.6434 22.9254 15.1002 22.7602 15.6149C22.595 16.1296 22.5814 16.6807 22.7211 17.2028C21.8385 16.495 20.4108 17.0612 19.8598 18.0471C19.3089 19.0331 19.3963 20.2396 19.5601 21.356C19.8569 23.3737 20.3512 25.3576 21.036 27.2795C21.8954 26.5262 21.8426 25.1542 21.7376 23.9945C21.6284 22.7896 21.6938 21.3186 22.7522 20.7241C23.7747 20.1497 25.0158 20.7803 26.1433 21.1065C27.0347 21.3578 27.9702 21.4137 28.8855 21.2704C29.8007 21.1271 30.6738 20.788 31.4447 20.2764C31.9994 19.837 32.5817 19.4332 33.188 19.0674C33.4941 18.8875 33.8419 18.7896 34.1973 18.7833C34.5528 18.777 34.9038 18.8625 35.2162 19.0315C35.7107 19.4557 36.0428 20.0368 36.1566 20.6766C36.5907 22.142 37.0248 23.6075 37.4589 25.0729C38.0962 24.4654 38.5968 23.7303 38.9279 22.9162C39.259 22.102 39.413 21.2273 39.3797 20.3495V20.3495Z" fill="#2F2E41"/>
</g>
</svg>
