<svg width="121" height="89" viewBox="0 0 121 89" fill="none" xmlns="http://www.w3.org/2000/svg">
<g opacity="0.5">
<g clip-path="url(#clip0_331:346)">
<path d="M66.0686 9.86576C67.6392 9.86576 68.9124 8.62828 68.9124 7.10177C68.9124 5.57525 67.6392 4.33777 66.0686 4.33777C64.4981 4.33777 63.2249 5.57525 63.2249 7.10177C63.2249 8.62828 64.4981 9.86576 66.0686 9.86576Z" fill="#FFEA29"/>
<path d="M65.7868 8.15615C65.7228 8.15625 65.6605 8.13613 65.6093 8.09883L65.6062 8.09652L64.9378 7.59961C64.9069 7.57655 64.8809 7.54778 64.8614 7.51496C64.8419 7.48214 64.8292 7.44591 64.8241 7.40832C64.819 7.37074 64.8215 7.33255 64.8316 7.29593C64.8417 7.25931 64.8591 7.22497 64.8828 7.19489C64.9066 7.1648 64.9361 7.13956 64.9699 7.12059C65.0037 7.10162 65.041 7.0893 65.0796 7.08434C65.1183 7.07937 65.1576 7.08186 65.1953 7.09165C65.233 7.10145 65.2683 7.11836 65.2992 7.14143L65.7321 7.46407L66.755 6.16698C66.7788 6.1369 66.8084 6.11167 66.8421 6.0927C66.8759 6.07374 66.9131 6.06143 66.9518 6.05647C66.9904 6.05151 67.0297 6.05399 67.0674 6.06379C67.105 6.07358 67.1403 6.09048 67.1713 6.11354L67.1714 6.1136L67.165 6.12217L67.1715 6.1136C67.234 6.16023 67.2748 6.22902 67.2851 6.30488C67.2954 6.38074 67.2743 6.45747 67.2265 6.51824L66.0233 8.04322C65.9954 8.07836 65.9596 8.10679 65.9187 8.12632C65.8777 8.14584 65.8326 8.15593 65.787 8.1558L65.7868 8.15615Z" fill="white"/>
<path d="M66.0686 28.5512C67.6392 28.5512 68.9124 27.3137 68.9124 25.7872C68.9124 24.2607 67.6392 23.0232 66.0686 23.0232C64.4981 23.0232 63.2249 24.2607 63.2249 25.7872C63.2249 27.3137 64.4981 28.5512 66.0686 28.5512Z" fill="#FFEA29"/>
<path d="M65.7868 26.8416C65.7228 26.8417 65.6605 26.8216 65.6093 26.7843L65.6062 26.782L64.9378 26.2851C64.9069 26.262 64.8809 26.2332 64.8614 26.2004C64.8419 26.1676 64.8292 26.1314 64.8241 26.0938C64.819 26.0562 64.8215 26.018 64.8316 25.9814C64.8417 25.9448 64.8591 25.9104 64.8828 25.8803C64.9066 25.8503 64.9361 25.825 64.9699 25.806C65.0037 25.7871 65.041 25.7748 65.0796 25.7698C65.1183 25.7648 65.1576 25.7673 65.1953 25.7771C65.233 25.7869 65.2683 25.8038 65.2992 25.8269L65.7321 26.1495L66.755 24.8524C66.7788 24.8224 66.8084 24.7971 66.8421 24.7782C66.8759 24.7592 66.9131 24.7469 66.9518 24.7419C66.9904 24.737 67.0297 24.7395 67.0674 24.7492C67.105 24.759 67.1403 24.7759 67.1713 24.799L67.1714 24.7991L67.165 24.8076L67.1715 24.7991C67.234 24.8457 67.2748 24.9145 67.2851 24.9903C67.2954 25.0662 67.2743 25.1429 67.2265 25.2037L66.0233 26.7287C65.9954 26.7638 65.9596 26.7923 65.9187 26.8118C65.8777 26.8313 65.8326 26.8414 65.787 26.8413L65.7868 26.8416Z" fill="white"/>
<path d="M73.2102 54.8313C73.201 54.6021 73.2435 54.3738 73.3349 54.1623C73.4263 53.9509 73.5643 53.7615 73.7391 53.6075C73.9139 53.4535 74.1214 53.3386 74.3468 53.271C74.5723 53.2033 74.8102 53.1846 75.044 53.216L77.6485 48.2494L79.1201 50.7684L76.4212 55.0986C76.3409 55.4767 76.1207 55.8131 75.8023 56.0439C75.4838 56.2748 75.0894 56.3841 74.6936 56.3511C74.2978 56.3182 73.9282 56.1453 73.6548 55.8651C73.3814 55.585 73.2232 55.2172 73.2102 54.8313L73.2102 54.8313Z" fill="#FFB7B7"/>
<path d="M85.3528 86.1053L83.3088 86.1052L82.3364 78.4426L85.3531 78.4427L85.3528 86.1053Z" fill="#FFB7B7"/>
<path d="M85.874 88.031L79.2834 88.0308V87.9498C79.2835 87.2885 79.5538 86.6544 80.0348 86.1868C80.5159 85.7192 81.1684 85.4565 81.8487 85.4565H81.8488L85.8741 85.4567L85.874 88.031Z" fill="#2F2E41"/>
<path d="M96.4331 86.1053L94.3891 86.1052L93.4167 78.4426L96.4334 78.4427L96.4331 86.1053Z" fill="#FFB7B7"/>
<path d="M96.9543 88.031L90.3638 88.0308V87.9498C90.3638 87.2885 90.6341 86.6544 91.1152 86.1868C91.5962 85.7192 92.2487 85.4565 92.929 85.4565H92.9292L96.9545 85.4567L96.9543 88.031Z" fill="#2F2E41"/>
<path d="M76.3498 50.5088L75.4575 51.9542C75.4575 51.9542 76.9447 51.9542 77.2421 54.1223L78.4318 52.6769L76.3498 50.5088Z" fill="#E5E5E5"/>
<path d="M91.9647 47.4734C91.9647 47.4734 94.3442 53.5441 94.7903 57.3022C95.2364 61.0603 95.98 71.0338 95.98 71.0338L97.4672 83.898L93.3032 84.4762L91.5186 71.4674L87.5033 58.6031L86.611 71.4674L85.8675 83.1753L82.0009 83.3198L81.7035 71.1783L80.0676 55.7123L80.9599 48.3406L91.9647 47.4734Z" fill="#2F2E41"/>
<path d="M85.2725 29.1328C87.3258 29.1328 88.9904 27.5149 88.9904 25.5192C88.9904 23.5235 87.3258 21.9057 85.2725 21.9057C83.2192 21.9057 81.5547 23.5235 81.5547 25.5192C81.5547 27.5149 83.2192 29.1328 85.2725 29.1328Z" fill="#FFB7B7"/>
<path d="M89.0648 29.0443L90.552 30.056L92.4853 48.9911L80.4395 49.2801L82.0754 36.1268L83.5624 32.3687L84.6359 30.9894L89.0648 29.0443Z" fill="#E5E5E5"/>
<path d="M89.3623 42.6312L89.8174 29.5562C89.8174 29.5562 90.7007 29.6224 90.9981 30.0561C91.2956 30.4897 96.2031 31.3569 96.2031 31.3569L95.3108 44.7994C95.3108 44.7994 99.0287 55.4955 97.6903 56.0736C96.3518 56.6518 93.9724 56.5073 93.9724 56.5073L89.3623 42.6312Z" fill="#2F2E41"/>
<path d="M82.1496 40.969L83.7272 32.1569L80.2164 34.4646L81.1086 40.8244L80.3651 45.1607C80.3651 45.1607 77.5395 57.1577 78.4318 57.5913C79.3241 58.025 80.3651 57.5913 80.3651 57.5913L82.1496 45.4498V40.969Z" fill="#2F2E41"/>
<path d="M81.2574 34.1755L80.2164 34.4646L79.7702 40.2463L79.0267 45.3053L75.4575 51.5206C75.4575 51.5206 77.2421 50.3642 77.9857 53.6887L81.9163 47.0373L81.2574 34.1755Z" fill="#2F2E41"/>
<path d="M88.3849 22.0763L89.086 21.8035C89.086 21.8035 87.6201 20.2349 85.5806 20.3713L86.1542 19.7575C86.1542 19.7575 84.752 19.2119 83.4773 20.6441C82.8072 21.397 82.0319 22.282 81.5486 23.2789H80.7978L81.1112 23.9495L80.0144 24.6201L81.1401 24.4997C81.0731 24.8669 81.0628 25.2418 81.1096 25.612C81.1579 25.9823 81.3523 26.3199 81.6518 26.5536V26.5536C81.6518 26.5536 82.5213 24.8043 82.5213 24.5315V25.2135C82.5213 25.2135 83.2224 24.5997 83.2224 24.1905L83.6048 24.6679L83.796 23.9177L86.1542 24.6679L85.7718 24.0541L87.2377 24.2587L86.6641 23.5085L88.9337 26.6064C88.9337 26.6064 90.2332 23.0993 88.3849 22.0763Z" fill="#2F2E41"/>
<path d="M89.3464 53.6459C89.3831 53.4194 89.4705 53.2034 89.6023 53.0133C89.7342 52.8231 89.9074 52.6633 90.1096 52.5452C90.3119 52.4272 90.5383 52.3536 90.773 52.3298C91.0077 52.306 91.2448 52.3324 91.4679 52.4073L95.0148 48.0266L95.9553 50.7754L92.4429 54.514C92.2886 54.8698 92.0054 55.1582 91.6469 55.3246C91.2885 55.4909 90.8796 55.5237 90.498 55.4167C90.1163 55.3097 89.7882 55.0704 89.576 54.744C89.3637 54.4176 89.282 54.0269 89.3464 53.6459V53.6459Z" fill="#FFB7B7"/>
<path d="M95.3852 52.0987L94.0468 53.6887L92.2622 50.6533L93.0057 49.3525L95.3852 52.0987Z" fill="#E5E5E5"/>
<path d="M95.0878 31.8628L96.2775 31.2846C96.2775 31.2846 97.1698 32.441 97.3185 33.4528C97.4672 34.4645 98.2108 35.7654 98.2108 36.4881C98.2108 37.2108 100.293 44.0043 100.293 44.0043L95.5339 53.3996C95.5339 53.3996 94.4929 49.9306 92.2622 49.6415L95.9801 44.5825L93.8981 40.9689L95.0878 31.8628Z" fill="#2F2E41"/>
<path d="M120.83 88.1201H63.6065C63.5667 88.1201 63.5285 88.1048 63.5003 88.0774C63.4721 88.05 63.4563 88.0129 63.4563 87.9742C63.4563 87.9355 63.4721 87.8983 63.5003 87.8709C63.5285 87.8436 63.5667 87.8282 63.6065 87.8282H120.83C120.87 87.8282 120.908 87.8436 120.936 87.8709C120.965 87.8983 120.98 87.9355 120.98 87.9742C120.98 88.0129 120.965 88.05 120.936 88.0774C120.908 88.1048 120.87 88.1201 120.83 88.1201Z" fill="#CBCBCB"/>
<path d="M55.3577 31.9184H0.537109V19.656H55.3577V31.9184Z" fill="white"/>
<path d="M8.44903 23.7106C8.30752 23.7108 8.17188 23.7656 8.0719 23.8629C7.97192 23.9603 7.91577 24.0922 7.91577 24.2297C7.91577 24.3673 7.97192 24.4992 8.0719 24.5965C8.17188 24.6939 8.30752 24.7487 8.44903 24.7489H47.4482C47.5897 24.7487 47.7253 24.6939 47.8253 24.5965C47.9253 24.4992 47.9814 24.3673 47.9814 24.2297C47.9814 24.0922 47.9253 23.9603 47.8253 23.8629C47.7253 23.7656 47.5897 23.7108 47.4482 23.7106H8.44903Z" fill="#0092DF"/>
<path d="M8.44885 26.8255C8.37871 26.8254 8.30922 26.8387 8.24436 26.8646C8.17949 26.8906 8.12053 26.9287 8.07082 26.9768C8.02112 27.0249 7.98165 27.0821 7.95467 27.145C7.92769 27.2079 7.91372 27.2754 7.91358 27.3436C7.91343 27.4118 7.9271 27.4793 7.95381 27.5424C7.98051 27.6054 8.01973 27.6627 8.06923 27.711C8.11872 27.7593 8.17752 27.7977 8.24227 27.8239C8.30702 27.8501 8.37645 27.8637 8.4466 27.8639H33.1023C33.1725 27.864 33.242 27.8506 33.307 27.8246C33.3719 27.7985 33.4309 27.7603 33.4806 27.7121C33.5302 27.6639 33.5697 27.6066 33.5966 27.5436C33.6235 27.4805 33.6373 27.4129 33.6373 27.3447C33.6373 27.2764 33.6235 27.2089 33.5966 27.1458C33.5697 27.0828 33.5302 27.0255 33.4806 26.9773C33.4309 26.9291 33.3719 26.8908 33.307 26.8648C33.242 26.8388 33.1725 26.8254 33.1023 26.8255H8.44885Z" fill="#0092DF" fill-opacity="0.88"/>
<path d="M55.3577 31.9184H0.537109V19.656H55.3577V31.9184ZM1.43827 31.0425H54.4566V20.5319H1.43827V31.0425Z" fill="#E5E5E5"/>
<path d="M55.3577 50.6038H0.537109V38.3415H55.3577V50.6038Z" fill="white"/>
<path d="M8.44903 42.396C8.30752 42.3962 8.17188 42.451 8.0719 42.5484C7.97192 42.6457 7.91577 42.7776 7.91577 42.9152C7.91577 43.0527 7.97192 43.1846 8.0719 43.282C8.17188 43.3793 8.30752 43.4341 8.44903 43.4343H47.4482C47.5897 43.4341 47.7253 43.3793 47.8253 43.282C47.9253 43.1846 47.9814 43.0527 47.9814 42.9152C47.9814 42.7776 47.9253 42.6457 47.8253 42.5484C47.7253 42.451 47.5897 42.3962 47.4482 42.396H8.44903Z" fill="#E6E6E6"/>
<path d="M8.44885 45.511C8.37871 45.5109 8.30922 45.5242 8.24436 45.5501C8.17949 45.5761 8.12053 45.6142 8.07082 45.6623C8.02112 45.7104 7.98165 45.7676 7.95467 45.8305C7.92769 45.8934 7.91372 45.9609 7.91358 46.0291C7.91343 46.0973 7.9271 46.1648 7.95381 46.2278C7.98051 46.2909 8.01973 46.3482 8.06923 46.3965C8.11872 46.4448 8.17752 46.4832 8.24227 46.5094C8.30702 46.5356 8.37645 46.5492 8.4466 46.5493H33.1023C33.1725 46.5494 33.242 46.5361 33.307 46.5101C33.3719 46.484 33.4309 46.4458 33.4806 46.3976C33.5302 46.3494 33.5697 46.2921 33.5966 46.229C33.6235 46.166 33.6373 46.0984 33.6373 46.0302C33.6373 45.9619 33.6235 45.8943 33.5966 45.8313C33.5697 45.7683 33.5302 45.711 33.4806 45.6628C33.4309 45.6145 33.3719 45.5763 33.307 45.5503C33.242 45.5242 33.1725 45.5109 33.1023 45.511H8.44885Z" fill="#E6E6E6"/>
<path d="M55.3577 50.6038H0.537109V38.3415H55.3577V50.6038ZM1.43827 49.7279H54.4566V39.2173H1.43827V49.7279Z" fill="#E5E5E5"/>
<path d="M55.8082 13.2329H0.987549V0.970581H55.8082V13.2329Z" fill="white" fill-opacity="0.35"/>
<path d="M8.89971 5.02512C8.7582 5.02535 8.62257 5.08015 8.52259 5.17748C8.42261 5.27482 8.36646 5.40674 8.36646 5.54428C8.36646 5.68182 8.42261 5.81374 8.52259 5.91108C8.62257 6.00842 8.7582 6.06321 8.89971 6.06344H47.8989C48.0404 6.06321 48.176 6.00842 48.276 5.91108C48.3759 5.81374 48.4321 5.68182 48.4321 5.54428C48.4321 5.40674 48.3759 5.27482 48.276 5.17748C48.176 5.08015 48.0404 5.02535 47.8989 5.02512H8.89971Z" fill="#0092DF"/>
<path d="M8.89953 8.14005C8.75787 8.13976 8.62189 8.19418 8.5215 8.29133C8.42112 8.38849 8.36456 8.52042 8.36426 8.65812C8.36396 8.79581 8.41995 8.92797 8.51991 9.02554C8.61987 9.12311 8.75562 9.17808 8.89728 9.17837H33.5529C33.6232 9.17849 33.6927 9.16515 33.7576 9.13911C33.8225 9.11307 33.8815 9.07484 33.9312 9.02662C33.9809 8.9784 34.0204 8.92113 34.0473 8.85809C34.0742 8.79504 34.088 8.72746 34.088 8.65921C34.088 8.59096 34.0742 8.52338 34.0473 8.46033C34.0204 8.39729 33.9809 8.34002 33.9312 8.2918C33.8815 8.24358 33.8225 8.20535 33.7576 8.17931C33.6927 8.15328 33.6232 8.13993 33.5529 8.14005H8.89953Z" fill="#0092DF"/>
<path d="M55.8082 13.2329H0.987549V0.970581H55.8082V13.2329ZM1.88871 12.357H54.907V1.84646H1.88871V12.357Z" fill="#E5E5E5" fill-opacity="0.25"/>
<path d="M111.567 88.1875V77.6273C111.567 77.6273 115.802 85.1141 111.567 88.1875Z" fill="#F1F1F1"/>
<path d="M111.829 88.1857L103.825 81.0441C103.825 81.0441 112.363 83.0755 111.829 88.1857Z" fill="#F1F1F1"/>
<path d="M73.2778 54.5131C74.8484 54.5131 76.1216 53.2756 76.1216 51.7491C76.1216 50.2226 74.8484 48.9851 73.2778 48.9851C71.7073 48.9851 70.4341 50.2226 70.4341 51.7491C70.4341 53.2756 71.7073 54.5131 73.2778 54.5131Z" fill="#FFEA29"/>
<path d="M72.9962 52.8035C72.9322 52.8036 72.8699 52.7835 72.8187 52.7462L72.8156 52.7439L72.1472 52.247C72.1162 52.2239 72.0902 52.1952 72.0707 52.1623C72.0512 52.1295 72.0385 52.0933 72.0333 52.0557C72.0282 52.0181 72.0308 51.9799 72.0408 51.9432C72.0509 51.9066 72.0683 51.8722 72.0921 51.8421C72.1158 51.812 72.1454 51.7868 72.1792 51.7678C72.213 51.7488 72.2503 51.7365 72.289 51.7316C72.3277 51.7266 72.367 51.7291 72.4047 51.7389C72.4424 51.7487 72.4777 51.7657 72.5086 51.7888L72.9415 52.1114L73.9645 50.8143C73.9882 50.7843 74.0178 50.759 74.0515 50.7401C74.0853 50.7211 74.1225 50.7088 74.1612 50.7038C74.1998 50.6989 74.2391 50.7014 74.2768 50.7112C74.3144 50.7209 74.3498 50.7379 74.3807 50.7609L74.3808 50.761L74.3744 50.7695L74.3809 50.761C74.4434 50.8076 74.4842 50.8764 74.4945 50.9523C74.5048 51.0281 74.4837 51.1048 74.4359 51.1656L73.2327 52.6906C73.2048 52.7257 73.169 52.7542 73.1281 52.7737C73.0871 52.7932 73.0421 52.8033 72.9964 52.8032L72.9962 52.8035Z" fill="white"/>
</g>
</g>
<defs>
<clipPath id="clip0_331:346">
<rect width="120.443" height="87.2169" fill="white" transform="translate(0.537109 0.970581)"/>
</clipPath>
</defs>
</svg>
