<svg width="106" height="95" viewBox="0 0 106 95" fill="none" xmlns="http://www.w3.org/2000/svg">
<g opacity="0.5">
<path opacity="0.5" d="M54.452 0.526953L51.0179 1.40946L8.7092 12.2822L5.27511 13.1647C3.60824 13.595 2.18074 14.6667 1.30579 16.1446C0.430836 17.6225 0.179883 19.3859 0.607987 21.048L15.499 78.5915C15.9308 80.2526 17.0062 81.6751 18.4893 82.547C19.9723 83.419 21.7419 83.669 23.4097 83.2424L23.4186 83.2401L72.5777 70.607L72.5866 70.6047C74.2535 70.1743 75.681 69.1027 76.5559 67.6248C77.4309 66.1469 77.6818 64.3835 77.2537 62.7214L62.3627 5.17791C61.9309 3.51682 60.8555 2.09427 59.3724 1.22235C57.8894 0.350424 56.1199 0.100337 54.452 0.526953Z" fill="#F2F2F2"/>
<path opacity="0.5" d="M54.9191 2.33128L50.8517 3.37656L9.80957 13.9238L5.74218 14.969C4.55516 15.2755 3.5386 16.0387 2.91552 17.0911C2.29244 18.1435 2.11373 19.3993 2.41859 20.5829L17.3096 78.1264C17.6171 79.3093 18.3829 80.3223 19.439 80.9433C20.4952 81.5642 21.7553 81.7423 22.943 81.4385L22.9519 81.4362L72.111 68.803L72.12 68.8007C73.307 68.4942 74.3235 67.7311 74.9466 66.6786C75.5696 65.6262 75.7483 64.3704 75.4435 63.1869L60.5525 5.64334C60.245 4.46045 59.4792 3.44743 58.4231 2.82651C57.367 2.20559 56.1068 2.02749 54.9191 2.33128V2.33128Z" fill="white"/>
<path opacity="0.5" d="M51.848 20.9654L26.9795 27.3562C26.7018 27.4276 26.407 27.3861 26.1599 27.2408C25.9129 27.0956 25.7338 26.8585 25.6622 26.5817C25.5906 26.3049 25.6322 26.0111 25.778 25.7649C25.9237 25.5187 26.1616 25.3403 26.4394 25.2689L51.3078 18.8781C51.5855 18.807 51.8801 18.8487 52.127 18.9939C52.3738 19.1392 52.5527 19.3762 52.6242 19.6528C52.6958 19.9295 52.6543 20.2231 52.5087 20.4692C52.3632 20.7153 52.1255 20.8938 51.848 20.9654V20.9654Z" fill="#F2F2F2"/>
<path opacity="0.5" d="M57.0796 23.3775L27.8912 30.8785C27.6134 30.9499 27.3186 30.9084 27.0715 30.7632C26.8245 30.6179 26.6454 30.3808 26.5738 30.104C26.5022 29.8272 26.5438 29.5334 26.6896 29.2872C26.8353 29.041 27.0733 28.8626 27.351 28.7912L56.5395 21.2903C56.8172 21.2189 57.1121 21.2604 57.3591 21.4056C57.6062 21.5509 57.7852 21.788 57.8568 22.0648C57.9285 22.3415 57.8868 22.6354 57.7411 22.8815C57.5953 23.1277 57.3574 23.3062 57.0796 23.3775V23.3775Z" fill="#F2F2F2"/>
<path opacity="0.5" d="M55.9329 36.7505L31.0645 43.1413C30.927 43.1766 30.7838 43.1846 30.6432 43.1648C30.5025 43.145 30.3672 43.0978 30.2449 43.0259C30.1225 42.954 30.0156 42.8588 29.9302 42.7457C29.8448 42.6326 29.7826 42.5038 29.7472 42.3668C29.7117 42.2297 29.7037 42.087 29.7235 41.9469C29.7434 41.8068 29.7908 41.6719 29.8629 41.55C29.9351 41.4281 30.0307 41.3215 30.1441 41.2364C30.2576 41.1513 30.3868 41.0893 30.5244 41.054L55.3928 34.6632C55.5303 34.6278 55.6735 34.6198 55.8141 34.6396C55.9548 34.6594 56.0901 34.7066 56.2124 34.7785C56.3348 34.8505 56.4417 34.9457 56.5271 35.0588C56.6125 35.1719 56.6747 35.3006 56.7101 35.4377C56.7456 35.5747 56.7536 35.7174 56.7338 35.8576C56.7139 35.9977 56.6665 36.1326 56.5944 36.2545C56.5222 36.3764 56.4266 36.4829 56.3132 36.568C56.1997 36.6531 56.0705 36.7151 55.9329 36.7505V36.7505Z" fill="#F2F2F2"/>
<path opacity="0.5" d="M61.1643 39.1626L31.9759 46.6636C31.8383 46.6989 31.6952 46.7069 31.5545 46.6871C31.4139 46.6673 31.2786 46.6201 31.1562 46.5482C31.0339 46.4763 30.927 46.3811 30.8416 46.268C30.7562 46.1549 30.694 46.0261 30.6585 45.8891C30.6231 45.752 30.615 45.6093 30.6349 45.4692C30.6548 45.329 30.7021 45.1942 30.7743 45.0723C30.8465 44.9504 30.942 44.8438 31.0555 44.7587C31.169 44.6736 31.2982 44.6116 31.4357 44.5763L60.6242 37.0753C60.9019 37.0039 61.1968 37.0454 61.4438 37.1907C61.6909 37.3359 61.8699 37.573 61.9415 37.8498C62.0132 38.1266 61.9715 38.4204 61.8258 38.6666C61.68 38.9128 61.4421 39.0912 61.1643 39.1626Z" fill="#F2F2F2"/>
<path opacity="0.5" d="M60.0177 52.5356L35.1492 58.9264C34.8716 58.9975 34.5769 58.9559 34.33 58.8106C34.0831 58.6654 33.9042 58.4283 33.8326 58.1517C33.761 57.875 33.8026 57.5813 33.9482 57.3352C34.0938 57.0891 34.3315 56.9106 34.6091 56.8391L59.4775 50.4483C59.7553 50.3769 60.0501 50.4184 60.2972 50.5636C60.5442 50.7089 60.7232 50.946 60.7949 51.2228C60.8665 51.4996 60.8248 51.7934 60.6791 52.0396C60.5333 52.2858 60.2954 52.4642 60.0177 52.5356Z" fill="#F2F2F2"/>
<path opacity="0.5" d="M65.2493 54.9477L36.0608 62.4487C35.9232 62.4841 35.78 62.4923 35.6392 62.4726C35.4985 62.4528 35.3631 62.4057 35.2406 62.3338C35.1182 62.2619 35.0112 62.1666 34.9257 62.0535C34.8403 61.9403 34.778 61.8115 34.7425 61.6744C34.707 61.5373 34.699 61.3945 34.7189 61.2543C34.7388 61.1141 34.7863 60.9791 34.8585 60.8572C34.9308 60.7352 35.0265 60.6287 35.1401 60.5436C35.2537 60.4585 35.383 60.3966 35.5207 60.3614L64.7091 52.8604C64.9869 52.789 65.2817 52.8305 65.5287 52.9758C65.7758 53.121 65.9548 53.3581 66.0265 53.6349C66.0981 53.9117 66.0564 54.2055 65.9107 54.4517C65.7649 54.6979 65.527 54.8763 65.2493 54.9477V54.9477Z" fill="#F2F2F2"/>
<path opacity="0.5" d="M30.9039 65.4792L22.1032 67.7409C21.9701 67.775 21.8288 67.755 21.7103 67.6854C21.5919 67.6157 21.506 67.5022 21.4716 67.3695L19.4514 59.5628C19.4172 59.4301 19.4372 59.2893 19.5071 59.1713C19.5769 59.0533 19.6909 58.9677 19.824 58.9334L28.6247 56.6717C28.7579 56.6376 28.8992 56.6576 29.0176 56.7272C29.1361 56.7969 29.2219 56.9104 29.2564 57.0431L31.2766 64.8498C31.3108 64.9825 31.2908 65.1233 31.2209 65.2413C31.151 65.3593 31.037 65.4449 30.9039 65.4792V65.4792Z" fill="#E6E6E6"/>
<path opacity="0.5" d="M88.7507 15.1137H37.9649C36.243 15.1156 34.5922 15.7981 33.3746 17.0115C32.157 18.2248 31.4721 19.8699 31.4702 21.5859V81.012C31.4721 82.7279 32.157 84.373 33.3746 85.5863C34.5922 86.7997 36.243 87.4822 37.9649 87.4841H88.7507C90.4726 87.4822 92.1234 86.7997 93.3409 85.5863C94.5585 84.373 95.2434 82.7279 95.2453 81.012V21.5859C95.2434 19.8699 94.5585 18.2248 93.3409 17.0115C92.1234 15.7981 90.4726 15.1156 88.7507 15.1137V15.1137Z" fill="#E6E6E6"/>
<path opacity="0.5" d="M88.7509 16.9769H37.9651C36.7389 16.9782 35.5633 17.4643 34.6962 18.3283C33.8292 19.1924 33.3415 20.3639 33.3401 21.5858V81.0119C33.3415 82.2339 33.8292 83.4054 34.6962 84.2694C35.5633 85.1335 36.7389 85.6195 37.9651 85.6209H88.7509C89.9771 85.6195 91.1527 85.1335 92.0198 84.2694C92.8868 83.4054 93.3745 82.2339 93.3759 81.0119V21.5858C93.3745 20.3639 92.8868 19.1924 92.0198 18.3283C91.1527 17.4643 89.9771 16.9783 88.7509 16.9769V16.9769Z" fill="white"/>
<path opacity="0.5" d="M94.0862 94.7144C100.634 94.7144 105.942 89.4248 105.942 82.8997C105.942 76.3747 100.634 71.0851 94.0862 71.0851C87.5385 71.0851 82.2305 76.3747 82.2305 82.8997C82.2305 89.4248 87.5385 94.7144 94.0862 94.7144Z" fill="#FFEA29"/>
<path opacity="0.5" d="M99.7564 81.3587H95.6326V77.2492C95.6326 76.8405 95.4697 76.4486 95.1797 76.1596C94.8897 75.8706 94.4963 75.7082 94.0862 75.7082C93.6761 75.7082 93.2827 75.8706 92.9927 76.1596C92.7027 76.4486 92.5398 76.8405 92.5398 77.2492V81.3587H88.416C88.0059 81.3587 87.6126 81.521 87.3226 81.81C87.0326 82.099 86.8696 82.491 86.8696 82.8997C86.8696 83.3084 87.0326 83.7004 87.3226 83.9894C87.6126 84.2784 88.0059 84.4408 88.416 84.4408H92.5398V88.5502C92.5398 88.9589 92.7027 89.3509 92.9927 89.6399C93.2827 89.9289 93.6761 90.0912 94.0862 90.0912C94.4963 90.0912 94.8897 89.9289 95.1797 89.6399C95.4697 89.3509 95.6326 88.9589 95.6326 88.5502V84.4408H99.7564C100.166 84.4408 100.56 84.2784 100.85 83.9894C101.14 83.7004 101.303 83.3084 101.303 82.8997C101.303 82.491 101.14 82.099 100.85 81.81C100.56 81.521 100.166 81.3587 99.7564 81.3587V81.3587Z" fill="white"/>
<path opacity="0.5" d="M81.1075 49.6314H55.4255C55.2834 49.6316 55.1426 49.6038 55.0113 49.5497C54.8799 49.4956 54.7605 49.4163 54.66 49.3162C54.5594 49.2161 54.4796 49.0972 54.4252 48.9663C54.3708 48.8355 54.3428 48.6953 54.3428 48.5536C54.3428 48.412 54.3708 48.2717 54.4252 48.1409C54.4796 48.01 54.5594 47.8912 54.66 47.7911C54.7605 47.691 54.8799 47.6116 55.0113 47.5575C55.1426 47.5034 55.2834 47.4757 55.4255 47.4758H81.1075C81.3942 47.4761 81.669 47.5898 81.8715 47.7919C82.0741 47.994 82.1879 48.268 82.1879 48.5536C82.1879 48.8393 82.0741 49.1132 81.8715 49.3153C81.669 49.5174 81.3942 49.6311 81.1075 49.6314V49.6314Z" fill="#E6E6E6"/>
<path opacity="0.5" d="M85.5689 53.2689H55.4255C55.2834 53.2691 55.1426 53.2413 55.0113 53.1872C54.8799 53.1331 54.7605 53.0538 54.66 52.9537C54.5594 52.8536 54.4796 52.7347 54.4252 52.6038C54.3708 52.473 54.3428 52.3328 54.3428 52.1911C54.3428 52.0495 54.3708 51.9092 54.4252 51.7784C54.4796 51.6476 54.5594 51.5287 54.66 51.4286C54.7605 51.3285 54.8799 51.2491 55.0113 51.195C55.1426 51.1409 55.2834 51.1132 55.4255 51.1133H85.5689C85.8557 51.1133 86.1308 51.2269 86.3337 51.429C86.5365 51.6311 86.6504 51.9053 86.6504 52.1911C86.6504 52.477 86.5365 52.7511 86.3337 52.9532C86.1308 53.1554 85.8557 53.2689 85.5689 53.2689Z" fill="#E6E6E6"/>
<path opacity="0.5" d="M81.1075 65.9329H55.4255C55.2834 65.9331 55.1426 65.9053 55.0113 65.8512C54.8799 65.7971 54.7605 65.7178 54.66 65.6177C54.5594 65.5176 54.4796 65.3987 54.4252 65.2679C54.3708 65.137 54.3428 64.9968 54.3428 64.8551C54.3428 64.7135 54.3708 64.5732 54.4252 64.4424C54.4796 64.3116 54.5594 64.1927 54.66 64.0926C54.7605 63.9925 54.8799 63.9131 55.0113 63.859C55.1426 63.8049 55.2834 63.7772 55.4255 63.7773H81.1075C81.3944 63.7773 81.6695 63.8909 81.8723 64.093C82.0751 64.2951 82.1891 64.5693 82.1891 64.8551C82.1891 65.141 82.0751 65.4151 81.8723 65.6172C81.6695 65.8194 81.3944 65.9329 81.1075 65.9329V65.9329Z" fill="#E6E6E6"/>
<path opacity="0.5" d="M85.5689 69.5704H55.4255C55.2834 69.5706 55.1426 69.5428 55.0113 69.4887C54.8799 69.4346 54.7605 69.3553 54.66 69.2552C54.5594 69.1551 54.4796 69.0362 54.4252 68.9054C54.3708 68.7745 54.3428 68.6343 54.3428 68.4927C54.3428 68.351 54.3708 68.2108 54.4252 68.0799C54.4796 67.9491 54.5594 67.8302 54.66 67.7301C54.7605 67.63 54.8799 67.5506 55.0113 67.4966C55.1426 67.4425 55.2834 67.4147 55.4255 67.4149H85.5689C85.711 67.4147 85.8518 67.4425 85.9832 67.4966C86.1145 67.5506 86.2339 67.63 86.3344 67.7301C86.435 67.8302 86.5148 67.9491 86.5692 68.0799C86.6236 68.2108 86.6516 68.351 86.6516 68.4927C86.6516 68.6343 86.6236 68.7745 86.5692 68.9054C86.5148 69.0362 86.435 69.1551 86.3344 69.2552C86.2339 69.3553 86.1145 69.4346 85.9832 69.4887C85.8518 69.5428 85.711 69.5706 85.5689 69.5704Z" fill="#E6E6E6"/>
<path opacity="0.5" d="M49.6726 54.9201H40.584C40.4465 54.92 40.3147 54.8655 40.2175 54.7686C40.1203 54.6717 40.0656 54.5404 40.0654 54.4033V46.3413C40.0656 46.2042 40.1203 46.0729 40.2175 45.976C40.3147 45.8791 40.4465 45.8246 40.584 45.8245H49.6726C49.8101 45.8246 49.942 45.8791 50.0392 45.976C50.1364 46.0729 50.1911 46.2042 50.1913 46.3413V54.4033C50.1911 54.5404 50.1364 54.6717 50.0392 54.7686C49.942 54.8655 49.8101 54.92 49.6726 54.9201V54.9201Z" fill="#E6E6E6"/>
<path opacity="0.5" d="M49.6726 71.2217H40.584C40.4465 71.2216 40.3147 71.1671 40.2175 71.0702C40.1203 70.9733 40.0656 70.8419 40.0654 70.7049V62.6428C40.0656 62.5058 40.1203 62.3745 40.2175 62.2776C40.3147 62.1807 40.4465 62.1262 40.584 62.126H49.6726C49.8101 62.1262 49.942 62.1807 50.0392 62.2776C50.1364 62.3745 50.1911 62.5058 50.1913 62.6428V70.7049C50.1911 70.8419 50.1364 70.9733 50.0392 71.0702C49.942 71.1671 49.8101 71.2216 49.6726 71.2217V71.2217Z" fill="#E6E6E6"/>
<path opacity="0.5" d="M81.1362 31.4846H62.2019C61.9151 31.4846 61.64 31.3711 61.4371 31.1689C61.2343 30.9668 61.1204 30.6927 61.1204 30.4068C61.1204 30.121 61.2343 29.8468 61.4371 29.6447C61.64 29.4426 61.9151 29.329 62.2019 29.329H81.1362C81.4231 29.329 81.6981 29.4426 81.901 29.6447C82.1038 29.8468 82.2178 30.121 82.2178 30.4068C82.2178 30.6927 82.1038 30.9668 81.901 31.1689C81.6981 31.3711 81.4231 31.4846 81.1362 31.4846Z" fill="#CCCCCC"/>
<path opacity="0.5" d="M85.5976 35.1221H62.2019C62.0599 35.1221 61.9192 35.0942 61.788 35.0401C61.6568 34.9859 61.5376 34.9065 61.4371 34.8064C61.3367 34.7064 61.257 34.5875 61.2027 34.4568C61.1483 34.326 61.1204 34.1859 61.1204 34.0443C61.1204 33.9028 61.1483 33.7626 61.2027 33.6319C61.257 33.5011 61.3367 33.3823 61.4371 33.2822C61.5376 33.1821 61.6568 33.1028 61.788 33.0486C61.9192 32.9944 62.0599 32.9666 62.2019 32.9666H85.5976C85.8844 32.9666 86.1595 33.0801 86.3623 33.2822C86.5652 33.4844 86.6791 33.7585 86.6791 34.0443C86.6791 34.3302 86.5652 34.6043 86.3623 34.8064C86.1595 35.0086 85.8844 35.1221 85.5976 35.1221V35.1221Z" fill="#CCCCCC"/>
<path opacity="0.5" d="M58.0115 39.5304H40.5557C40.4182 39.5302 40.2864 39.4757 40.1892 39.3788C40.0919 39.2819 40.0373 39.1506 40.0371 39.0136V25.4376C40.0373 25.3006 40.0919 25.1692 40.1892 25.0723C40.2864 24.9754 40.4182 24.9209 40.5557 24.9208H58.0115C58.149 24.9209 58.2808 24.9754 58.3781 25.0723C58.4753 25.1692 58.53 25.3006 58.5301 25.4376V39.0136C58.53 39.1506 58.4753 39.2819 58.3781 39.3788C58.2808 39.4757 58.149 39.5302 58.0115 39.5304V39.5304Z" fill="#0C97E0"/>
</g>
</svg>
