<svg width="644" height="532" viewBox="0 0 644 532" fill="none" xmlns="http://www.w3.org/2000/svg">
<path d="M615.544 324.959C614.838 326.342 614.101 327.701 613.34 329.053C584.167 380.789 516.305 412.92 401.859 395.914C336.877 385.799 309.203 422.9 282.406 460.903C281.948 461.558 281.49 462.214 281.024 462.87C252.962 502.722 225.179 542.684 155.71 529.4C82.0651 517.546 36.6143 456.675 29.5812 391.686C29.4956 390.896 29.4182 390.098 29.3481 389.308C25.397 347.173 37.6078 303.544 68.7596 270.607C87.5767 250.717 114.312 240.152 141.908 240.484C150.217 240.641 158.522 240.014 166.718 238.611C168.526 238.287 170.281 237.931 171.989 237.528C207.146 229.349 223.347 205.034 233.283 175.361C233.516 174.658 233.749 173.954 233.974 173.243C256.789 102.478 246.239 3.15406 370.273 17.7654C481.264 26.0944 562.719 88.7439 602.674 161.026C603.07 161.753 603.465 162.48 603.854 163.207C614.835 183.263 622.672 204.942 627.08 227.461C627.328 228.725 627.553 229.99 627.763 231.254C633.414 264.823 629.711 297.451 615.544 324.959Z" fill="#0E0E0E" fill-opacity="0.67"/>
<path d="M603.854 163.207C595.89 172.841 586.918 181.562 577.096 189.214C538.833 219.084 490.37 235.284 442.559 238.682C417.989 240.44 393.297 238.733 369.186 233.609C344.656 228.377 321.259 219.163 298.599 208.4C276.561 197.93 255.174 186.124 233.283 175.361C233.516 174.658 233.749 173.954 233.974 173.243C257.845 184.939 281.226 197.827 305.376 208.969C328.129 219.472 351.681 228.038 376.312 232.621C400.888 237.163 425.969 238.163 450.819 235.592C498.498 230.709 547 212.802 583.655 180.766C590.537 174.752 596.9 168.148 602.674 161.026C603.07 161.753 603.466 162.48 603.854 163.207Z" fill="#053F5E"/>
<path d="M438.196 0.743314C438.14 0.743314 438.084 0.74512 438.029 0.748738C379.194 4.50102 333.107 54.4933 333.107 114.562C333.107 174.63 379.194 224.623 438.029 228.374C438.38 228.398 438.733 228.348 439.064 228.227C439.396 228.105 439.699 227.916 439.955 227.669C440.211 227.427 440.414 227.134 440.553 226.808C440.691 226.482 440.762 226.13 440.761 225.775V3.34808C440.759 2.65661 440.488 1.99399 440.007 1.50566C439.527 1.01732 438.875 0.743141 438.196 0.743286L438.196 0.743314Z" fill="white"/>
<path d="M528.151 190.565C527.279 190.565 526.442 190.212 525.824 189.585L449.752 112.145C449.446 111.835 449.203 111.466 449.038 111.061C448.873 110.655 448.788 110.22 448.789 109.78V3.34819C448.788 2.89148 448.879 2.43935 449.057 2.02023C449.235 1.60111 449.497 1.22407 449.825 0.912821C450.154 0.597718 450.543 0.354763 450.969 0.199006C451.394 0.0432484 451.846 -0.0219889 452.297 0.00731595C511.515 3.78385 557.903 54.1022 557.903 114.562C557.905 142.024 548.233 168.578 530.644 189.401C530.348 189.75 529.985 190.033 529.577 190.233C529.169 190.433 528.725 190.545 528.273 190.563C528.232 190.565 528.191 190.565 528.151 190.565Z" fill="#B8B8B8"/>
<path d="M452.087 229.123C451.247 229.122 450.439 228.796 449.826 228.212C449.498 227.901 449.236 227.523 449.057 227.104C448.879 226.684 448.788 226.231 448.789 225.774V129.744C448.789 129.083 448.982 128.437 449.343 127.887C449.704 127.337 450.217 126.909 450.817 126.656C451.417 126.403 452.077 126.336 452.714 126.465C453.351 126.594 453.936 126.913 454.396 127.38L520.779 194.956C521.094 195.278 521.342 195.661 521.507 196.083C521.673 196.505 521.752 196.957 521.74 197.411C521.729 197.865 521.627 198.312 521.44 198.724C521.254 199.137 520.987 199.507 520.656 199.811C501.756 217.132 477.669 227.457 452.291 229.116C452.223 229.121 452.155 229.123 452.087 229.123Z" fill="white"/>
<path d="M627.763 231.254C617.112 250.48 602.076 267.439 584.858 280.88C546.596 310.751 498.133 326.951 450.322 330.349C425.752 332.107 401.06 330.4 376.949 325.275C352.418 320.044 329.021 310.83 306.362 300.067C283.291 289.107 260.927 276.676 237.956 265.51C215.01 254.352 191.427 244.838 166.718 238.611C168.526 238.287 170.281 237.931 171.989 237.528C173.603 237.955 175.213 238.398 176.817 238.856C225.132 252.606 267.773 279.703 313.139 300.636C335.891 311.138 359.443 319.704 384.075 324.288C408.651 328.829 433.732 329.83 458.582 327.259C506.261 322.375 554.762 304.469 591.418 272.433C605.927 259.808 618.017 244.561 627.08 227.461C627.328 228.725 627.554 229.99 627.763 231.254Z" fill="#053F5E"/>
<path d="M148.095 400.063C195.696 413.607 237.786 440.112 282.406 460.903C281.948 461.559 281.49 462.214 281.024 462.87C279.891 462.341 278.765 461.811 277.64 461.274C254.569 450.314 232.204 437.883 209.234 426.717C185.799 415.322 161.703 405.642 136.42 399.423C101.471 390.853 65.3694 388.239 29.5812 391.686C29.4956 390.896 29.4182 390.098 29.3481 389.308C69.2435 385.474 109.491 389.119 148.095 400.063Z" fill="black"/>
<path d="M339.416 476.31H0.888525C0.652873 476.31 0.426873 476.214 0.260242 476.045C0.0936115 475.875 0 475.645 0 475.405C0 475.165 0.0936115 474.935 0.260242 474.766C0.426873 474.596 0.652873 474.501 0.888525 474.501H339.416C339.652 474.501 339.878 474.596 340.045 474.766C340.211 474.935 340.305 475.165 340.305 475.405C340.305 475.645 340.211 475.875 340.045 476.045C339.878 476.214 339.652 476.31 339.416 476.31Z" fill="#B8B8B8"/>
<path d="M137.827 354.289C149.88 354.289 159.65 344.342 159.65 332.073C159.65 319.804 149.88 309.858 137.827 309.858C125.775 309.858 116.004 319.804 116.004 332.073C116.004 344.342 125.775 354.289 137.827 354.289Z" fill="#F8F4D8"/>
<path d="M219.482 488.829L219.992 499.906L178.264 507.178L177.512 490.83L219.482 488.829Z" fill="#F8F4D8"/>
<path d="M229.9 485.501L231.058 510.682L230.615 510.704C227.187 510.933 223.771 510.092 220.826 508.293C218.162 506.565 216.628 504.171 216.507 501.554V501.553L215.8 486.173L229.9 485.501Z" fill="#2C2C2C"/>
<path d="M218.315 507.056L229.208 507.055L234.39 464.283L218.313 464.284L218.315 507.056Z" fill="#F8F4D8"/>
<path d="M215.537 503.435L236.989 503.434H236.99C238.785 503.434 240.563 503.794 242.222 504.494C243.88 505.193 245.387 506.218 246.657 507.51C247.926 508.803 248.933 510.337 249.62 512.025C250.307 513.714 250.661 515.524 250.661 517.351V517.803L215.537 517.805L215.537 503.435Z" fill="#2C2C2C"/>
<path d="M115.475 496.695C116.668 495.959 117.689 494.965 118.464 493.784C119.24 492.603 119.751 491.263 119.963 489.859C120.175 488.455 120.082 487.021 119.69 485.658C119.299 484.294 118.618 483.035 117.697 481.968L126.391 393.911L105.684 395.385L103.649 481.478C101.991 483.173 101.002 485.428 100.868 487.815C100.734 490.203 101.465 492.558 102.923 494.433C104.38 496.309 106.463 497.575 108.777 497.992C111.09 498.409 113.473 497.947 115.475 496.695V496.695Z" fill="#F8F4D8"/>
<path d="M126.29 409.175L104.833 406.513C104.223 406.437 103.635 406.229 103.111 405.901C102.587 405.573 102.138 405.135 101.796 404.614C101.453 404.094 101.225 403.505 101.126 402.887C101.028 402.269 101.061 401.637 101.224 401.033L106.938 379.881C107.336 376.703 108.956 373.816 111.442 371.852C113.928 369.889 117.078 369.009 120.201 369.406C123.323 369.802 126.164 371.444 128.1 373.969C130.035 376.495 130.908 379.699 130.527 382.879L131.086 404.738C131.102 405.364 130.985 405.986 130.744 406.562C130.502 407.137 130.141 407.653 129.686 408.074C129.231 408.495 128.692 408.812 128.106 409.002C127.52 409.192 126.901 409.251 126.29 409.175Z" fill="#AAAAAA"/>
<path d="M123.289 509.168C120.688 508.987 118.181 508.11 116.021 506.627C113.86 505.143 112.122 503.105 110.983 500.719C109.844 498.333 109.344 495.682 109.533 493.036C109.723 490.39 110.595 487.842 112.062 485.649L126.078 470.837L177.168 424.255L204.482 401.183C206.076 399.837 207.979 398.924 210.014 398.532C212.049 398.139 214.148 398.279 216.115 398.938C218.082 399.597 219.853 400.753 221.261 402.299C222.669 403.845 223.668 405.73 224.165 407.777L238.435 466.541C238.674 467.518 238.548 468.552 238.081 469.44C237.614 470.328 236.84 471.008 235.908 471.348L220.351 477.048C219.83 477.239 219.276 477.318 218.723 477.28C218.171 477.241 217.633 477.086 217.142 476.825C216.652 476.564 216.22 476.201 215.874 475.761C215.528 475.321 215.276 474.812 215.133 474.268L209.216 451.677L176.289 483.721L186.562 487.57C187.504 487.928 188.28 488.632 188.737 489.544C189.194 490.455 189.298 491.509 189.029 492.495L185.709 504.468C185.48 505.303 184.994 506.041 184.322 506.575C183.651 507.108 182.829 507.408 181.977 507.43L123.289 509.168Z" fill="#2C2C2C"/>
<path d="M121.893 475.769L120.542 425.52L112.017 403.481C110.276 398.985 109.522 394.156 109.807 389.331C110.092 384.507 111.409 379.805 113.667 375.553C115.924 371.302 119.067 367.604 122.875 364.718C126.684 361.832 131.066 359.829 135.714 358.848C136.416 358.7 137.116 358.555 137.814 358.414C142.273 357.513 146.868 357.572 151.304 358.588C155.739 359.603 159.917 361.553 163.568 364.311C167.219 367.069 170.262 370.574 172.502 374.602C174.742 378.629 176.129 383.089 176.574 387.695L180.58 425.523L180.564 425.595C174.176 454.519 155.692 470.437 122.392 475.69L121.893 475.769Z" fill="#333333"/>
<path d="M142.054 440.865C142.54 440.789 143.031 440.752 143.523 440.754L168.188 403.582L163.517 393.777L177.132 384.667L187.058 401.207C187.86 402.543 188.214 404.108 188.068 405.667C187.922 407.226 187.283 408.694 186.247 409.852L152.49 447.581C153.021 449.432 152.985 451.403 152.387 453.233C151.79 455.063 150.66 456.664 149.146 457.824C147.633 458.984 145.809 459.647 143.917 459.726C142.024 459.804 140.153 459.294 138.552 458.264C136.951 457.234 135.697 455.732 134.955 453.958C134.213 452.184 134.019 450.222 134.399 448.333C134.779 446.444 135.715 444.718 137.083 443.384C138.45 442.05 140.184 441.171 142.054 440.865Z" fill="#F8F4D8"/>
<path d="M166.029 402.891C165.476 402.734 164.962 402.457 164.524 402.079C164.085 401.702 163.731 401.232 163.487 400.703L154.957 382.212C153.331 379.719 152.741 376.672 153.318 373.738C153.895 370.804 155.591 368.223 158.035 366.56C160.479 364.897 163.47 364.288 166.354 364.866C169.238 365.445 171.779 367.164 173.42 369.647L186.897 384.872C187.282 385.306 187.57 385.82 187.742 386.378C187.914 386.936 187.965 387.526 187.893 388.106C187.821 388.686 187.628 389.244 187.325 389.741C187.022 390.238 186.618 390.663 186.139 390.987L169.318 402.362C168.84 402.686 168.298 402.901 167.73 402.992C167.163 403.083 166.583 403.049 166.029 402.891Z" fill="#9A9A9A"/>
<path d="M427.277 349.305H355.244C354.206 349.305 353.21 348.886 352.476 348.138C351.741 347.391 351.329 346.377 351.329 345.32C351.329 344.263 351.741 343.25 352.476 342.502C353.21 341.755 354.206 341.335 355.244 341.335H427.277C428.315 341.335 429.311 341.755 430.045 342.502C430.779 343.25 431.191 344.263 431.191 345.32C431.191 346.377 430.779 347.391 430.045 348.138C429.311 348.886 428.315 349.305 427.277 349.305Z" fill="#60F26F"/>
<path d="M333.712 353.291C332.086 353.291 330.497 352.8 329.145 351.88C327.793 350.961 326.739 349.654 326.117 348.124C325.495 346.595 325.332 344.912 325.649 343.289C325.966 341.666 326.749 340.174 327.899 339.004C329.049 337.834 330.514 337.037 332.109 336.714C333.703 336.391 335.356 336.556 336.858 337.19C338.361 337.823 339.645 338.896 340.548 340.272C341.451 341.649 341.933 343.267 341.933 344.922C341.931 347.141 341.064 349.268 339.523 350.837C337.982 352.406 335.892 353.288 333.712 353.291Z" fill="#3F3D56"/>
<path d="M427.277 373.217H355.244C354.206 373.217 353.21 372.797 352.476 372.049C351.741 371.302 351.329 370.288 351.329 369.231C351.329 368.174 351.741 367.161 352.476 366.413C353.21 365.666 354.206 365.246 355.244 365.246H427.277C428.315 365.246 429.311 365.666 430.045 366.413C430.779 367.161 431.191 368.174 431.191 369.231C431.191 370.288 430.779 371.302 430.045 372.049C429.311 372.797 428.315 373.217 427.277 373.217Z" fill="#99DE6E"/>
<path d="M333.712 377.202C332.086 377.202 330.497 376.711 329.145 375.791C327.793 374.872 326.739 373.565 326.117 372.036C325.495 370.506 325.332 368.824 325.649 367.2C325.966 365.577 326.749 364.086 327.899 362.915C329.049 361.745 330.514 360.948 332.108 360.625C333.703 360.302 335.356 360.468 336.858 361.101C338.361 361.734 339.645 362.807 340.548 364.183C341.451 365.56 341.933 367.178 341.933 368.833C341.931 371.052 341.064 373.179 339.523 374.748C337.982 376.317 335.892 377.199 333.712 377.202Z" fill="#3F3D56"/>
<path d="M427.277 397.128H355.244C354.206 397.128 353.21 396.708 352.476 395.961C351.741 395.213 351.329 394.2 351.329 393.143C351.329 392.086 351.741 391.072 352.476 390.325C353.21 389.577 354.206 389.157 355.244 389.157H427.277C428.315 389.157 429.311 389.577 430.045 390.325C430.779 391.072 431.191 392.086 431.191 393.143C431.191 394.2 430.779 395.213 430.045 395.961C429.311 396.708 428.315 397.128 427.277 397.128Z" fill="#A5BB21"/>
<path d="M333.712 401.113C332.086 401.113 330.497 400.622 329.145 399.703C327.793 398.783 326.739 397.476 326.117 395.947C325.495 394.418 325.332 392.735 325.649 391.111C325.966 389.488 326.749 387.997 327.899 386.826C329.049 385.656 330.514 384.859 332.109 384.536C333.703 384.213 335.356 384.379 336.858 385.012C338.361 385.646 339.645 386.718 340.548 388.095C341.451 389.471 341.933 391.089 341.933 392.744C341.931 394.963 341.064 397.09 339.523 398.659C337.982 400.228 335.892 401.111 333.712 401.113Z" fill="#3F3D56"/>
<path d="M447.972 369.124H477.725C477.933 369.124 478.132 369.04 478.279 368.89C478.425 368.741 478.508 368.538 478.508 368.327V181.086C478.508 180.875 478.425 180.672 478.279 180.522C478.132 180.373 477.933 180.289 477.725 180.289C477.517 180.289 477.318 180.373 477.171 180.522C477.025 180.672 476.942 180.875 476.942 181.086V367.53H447.972C447.869 367.53 447.767 367.55 447.672 367.59C447.577 367.63 447.49 367.688 447.417 367.762C447.344 367.836 447.286 367.924 447.247 368.021C447.207 368.118 447.187 368.222 447.187 368.327C447.187 368.432 447.207 368.536 447.247 368.633C447.286 368.729 447.344 368.817 447.417 368.891C447.49 368.966 447.577 369.024 447.672 369.064C447.767 369.104 447.869 369.124 447.972 369.124Z" fill="#3F3D56"/>
<path d="M575.463 58.7072C573.474 58.8704 571.481 58.4293 569.738 57.4398C567.995 56.4503 566.579 54.9568 565.67 53.1481C564.76 51.3395 564.398 49.2969 564.629 47.2788C564.86 45.2606 565.674 43.3575 566.967 41.8101C568.26 40.2626 569.976 39.1404 571.896 38.5853C573.816 38.0302 575.854 38.0671 577.754 38.6914C579.653 39.3157 581.328 40.4993 582.566 42.0926C583.805 43.6859 584.552 45.6173 584.712 47.6425C584.927 50.3583 584.073 53.0497 582.339 55.1248C580.604 57.1998 578.131 58.4885 575.463 58.7072ZM575.338 57.1319C577.022 56.9938 578.627 56.3507 579.952 55.2839C581.276 54.217 582.26 52.7744 582.779 51.1383C583.298 49.5023 583.328 47.7463 582.867 46.0925C582.406 44.4387 581.473 42.9613 580.186 41.8472C578.9 40.733 577.318 40.0322 575.641 39.8333C573.963 39.6343 572.265 39.9463 570.762 40.7296C569.259 41.5129 568.017 42.7325 567.195 44.234C566.372 45.7356 566.006 47.4517 566.141 49.1654C566.231 50.3032 566.541 51.4119 567.052 52.428C567.562 53.4442 568.265 54.3479 569.119 55.0877C569.973 55.8274 570.962 56.3887 572.029 56.7395C573.096 57.0902 574.221 57.2236 575.338 57.1319V57.1319Z" fill="#B8B8B8"/>
<path d="M610.212 32.3477C613.642 32.3477 616.422 29.5173 616.422 26.0258C616.422 22.5344 613.642 19.704 610.212 19.704C606.782 19.704 604.002 22.5344 604.002 26.0258C604.002 29.5173 606.782 32.3477 610.212 32.3477Z" fill="#B8B8B8"/>
<path d="M640.738 9.48511C642.539 9.48511 644 7.99833 644 6.16431C644 4.33028 642.539 2.84351 640.738 2.84351C638.936 2.84351 637.475 4.33028 637.475 6.16431C637.475 7.99833 638.936 9.48511 640.738 9.48511Z" fill="#B8B8B8"/>
<path d="M528.045 260.911C526.945 262.607 525.376 263.932 523.536 264.719C521.696 265.506 519.668 265.72 517.708 265.334C515.749 264.948 513.945 263.979 512.527 262.55C511.108 261.12 510.138 259.295 509.739 257.304C509.339 255.313 509.528 253.247 510.283 251.366C511.037 249.485 512.322 247.873 513.976 246.736C515.63 245.598 517.578 244.986 519.574 244.975C521.57 244.965 523.524 245.557 525.189 246.677C527.42 248.181 528.973 250.525 529.509 253.193C530.044 255.862 529.518 258.637 528.045 260.911ZM512.502 250.456C511.571 251.89 511.078 253.574 511.087 255.293C511.096 257.012 511.605 258.69 512.55 260.115C513.496 261.539 514.835 262.646 516.399 263.296C517.962 263.946 519.68 264.109 521.335 263.765C522.99 263.421 524.507 262.585 525.695 261.363C526.883 260.141 527.688 258.588 528.009 256.9C528.33 255.212 528.152 253.465 527.498 251.88C526.844 250.295 525.742 248.944 524.333 247.996C522.443 246.728 520.136 246.274 517.918 246.735C515.7 247.197 513.752 248.535 512.502 250.456Z" fill="#B8B8B8"/>
<path d="M540.135 298.693C543.565 298.693 546.345 295.862 546.345 292.371C546.345 288.879 543.565 286.049 540.135 286.049C536.705 286.049 533.925 288.879 533.925 292.371C533.925 295.862 536.705 298.693 540.135 298.693Z" fill="#B8B8B8"/>
<path d="M557.458 328.082C559.259 328.082 560.72 326.595 560.72 324.761C560.72 322.927 559.259 321.44 557.458 321.44C555.656 321.44 554.196 322.927 554.196 324.761C554.196 326.595 555.656 328.082 557.458 328.082Z" fill="#B8B8B8"/>
<path d="M277.466 88.3751C276.578 86.5556 276.24 84.5088 276.494 82.4936C276.749 80.4784 277.585 78.5853 278.896 77.0536C280.208 75.5219 281.936 74.4205 283.862 73.8887C285.788 73.3568 287.826 73.4184 289.718 74.0657C291.61 74.7129 293.271 75.9167 294.491 77.5249C295.711 79.133 296.435 81.0733 296.572 83.1004C296.708 85.1274 296.251 87.1502 295.258 88.9128C294.266 90.6755 292.782 92.099 290.995 93.0031C288.597 94.2125 285.826 94.4044 283.29 93.5368C280.754 92.6692 278.66 90.8129 277.466 88.3751ZM294.15 79.9351C293.399 78.3955 292.216 77.1174 290.751 76.2623C289.285 75.4072 287.604 75.0136 285.919 75.1313C284.234 75.249 282.621 75.8726 281.285 76.9233C279.948 77.9741 278.947 79.4047 278.409 81.0344C277.871 82.6641 277.82 84.4195 278.262 86.0788C278.704 87.7381 279.62 89.2266 280.893 90.3563C282.166 91.4859 283.74 92.2058 285.415 92.425C287.09 92.6442 288.791 92.3529 290.304 91.5878C292.33 90.5598 293.873 88.7557 294.594 86.5712C295.315 84.3866 295.156 82.0001 294.15 79.9351Z" fill="#B8B8B8"/>
<path d="M244.669 89.5552C248.098 89.5552 250.879 86.7249 250.879 83.2334C250.879 79.7419 248.098 76.9116 244.669 76.9116C241.239 76.9116 238.458 79.7419 238.458 83.2334C238.458 86.7249 241.239 89.5552 244.669 89.5552Z" fill="#B8B8B8"/>
<path d="M208.454 85.5532C210.256 85.5532 211.716 84.0665 211.716 82.2324C211.716 80.3984 210.256 78.9117 208.454 78.9117C206.652 78.9117 205.192 80.3984 205.192 82.2324C205.192 84.0665 206.652 85.5532 208.454 85.5532Z" fill="#B8B8B8"/>
<path d="M160.889 334.017L159.98 331.657C157.47 325.146 151.469 320.141 145.047 319.203C141.843 318.776 138.586 319.284 135.654 320.668C132.722 322.051 130.237 324.254 128.487 327.019C127.001 329.642 125.828 332.437 124.993 335.343C124.707 336.208 124.418 336.834 123.864 337.024C123.24 337.252 122.619 336.861 121.59 336.211C121.361 336.067 121.095 335.991 120.825 335.994C120.556 335.997 120.292 336.078 120.066 336.228C119.839 336.378 119.659 336.59 119.547 336.84C119.435 337.089 119.394 337.367 119.431 337.639L120.51 345.481L119.607 344.663C113.731 339.339 112.524 329.321 116.769 322.965L107.109 324.986L107.544 324.14C111.556 316.258 118.471 310.313 126.776 307.606L117.524 305.532L118.459 304.945C126.744 299.75 137.675 299.896 146.305 305.31C150.639 308.136 154.229 311.999 156.761 316.56C159.294 321.122 160.694 326.244 160.837 331.482L160.889 334.017Z" fill="#FFEA29"/>
</svg>
