<svg width="526" height="558" viewBox="0 0 526 558" fill="none" xmlns="http://www.w3.org/2000/svg">
<path d="M347.865 13.6622C349.043 14.3166 350.201 14.9995 351.351 15.7041C395.418 42.726 422.785 105.585 408.3 211.594C399.685 271.785 431.286 297.419 463.654 322.241C464.213 322.665 464.771 323.09 465.33 323.521C499.273 349.514 533.31 375.249 521.996 439.596C511.9 507.813 460.053 549.913 404.699 556.427C404.026 556.507 403.346 556.578 402.673 556.643C366.785 560.303 329.625 548.992 301.571 520.137C284.63 502.707 275.631 477.943 275.913 452.381C276.047 444.685 275.513 436.992 274.318 429.401C274.042 427.725 273.739 426.1 273.396 424.518C266.43 391.953 245.719 376.946 220.445 367.742C219.846 367.526 219.247 367.311 218.641 367.102C158.368 345.969 73.7689 355.742 86.214 240.852C93.3082 138.043 146.67 62.5931 208.236 25.584C208.855 25.2171 209.474 24.8505 210.093 24.491C227.176 14.319 245.641 7.06018 264.821 2.97723C265.898 2.74689 266.975 2.53833 268.052 2.34418C296.644 -2.89032 324.435 0.539551 347.865 13.6622Z" fill="#161616" fill-opacity="0.67"/>
<g clip-path="url(#clip0_69:664)">
<path d="M104.802 520.633C162.683 520.633 209.604 516.634 209.604 511.702C209.604 506.77 162.683 502.772 104.802 502.772C46.9215 502.772 0 506.77 0 511.702C0 516.634 46.9215 520.633 104.802 520.633Z" fill="#E6E6E6"/>
<path d="M80.1086 201.136C98.3474 192.432 121.064 197.947 143.249 201.774C143.456 197.139 145.958 191.498 143.337 188.265C140.152 184.336 140.445 180.209 142.362 176.057C147.262 165.441 140.241 154.145 133.152 144.752C131.554 142.64 129.535 140.98 127.258 139.908C124.981 138.836 122.511 138.381 120.048 138.581L106.917 139.634C103.721 139.89 100.671 141.235 98.1759 143.489C95.6803 145.742 93.8577 148.797 92.952 152.245C89.8164 157.03 88.1382 161.801 89.1948 166.548C84.4982 170.149 83.7091 174.496 85.8196 179.396C87.6092 182.481 87.5901 185.485 85.7382 188.405C83.306 192.128 81.4431 196.28 80.226 200.689L80.1086 201.136Z" fill="#2F2E41"/>
<path d="M513.536 464.99H141.808C138.503 464.99 135.332 463.516 132.995 460.894C130.657 458.271 129.344 454.714 129.344 451.005C264.095 433.434 396.314 433.434 526 451.005C526 454.714 524.687 458.271 522.349 460.894C520.012 463.516 516.841 464.99 513.536 464.99Z" fill="#2F2E41"/>
<path d="M526 451.828L129.344 451.005L175.315 364.219L175.535 363.808V172.541C175.535 170.22 175.942 167.921 176.734 165.776C177.526 163.631 178.687 161.682 180.15 160.041C181.613 158.399 183.35 157.097 185.262 156.208C187.173 155.32 189.222 154.863 191.291 154.863H461.853C463.922 154.863 465.971 155.32 467.883 156.208C469.795 157.097 471.532 158.399 472.995 160.041C474.458 161.682 475.619 163.631 476.41 165.776C477.202 167.921 477.61 170.22 477.609 172.541V365.124L526 451.828Z" fill="#3F3D56"/>
<path d="M190.932 167.202C189.571 167.204 188.267 167.811 187.305 168.891C186.343 169.97 185.801 171.434 185.8 172.961V347.355C185.801 348.882 186.343 350.346 187.305 351.425C188.267 352.505 189.571 353.112 190.932 353.114H464.412C465.773 353.112 467.077 352.505 468.039 351.425C469.001 350.346 469.543 348.882 469.544 347.355V172.961C469.543 171.434 469.001 169.971 468.039 168.891C467.077 167.811 465.773 167.204 464.412 167.202H190.932Z" fill="white"/>
<path d="M192.078 376.147C191.658 376.148 191.246 376.283 190.892 376.538C190.538 376.792 190.256 377.155 190.08 377.583L175.915 412.133C175.761 412.509 175.693 412.923 175.719 413.336C175.744 413.748 175.862 414.147 176.061 414.496C176.26 414.844 176.534 415.131 176.857 415.33C177.181 415.528 177.544 415.633 177.913 415.633H475.797C476.172 415.633 476.541 415.525 476.868 415.32C477.196 415.115 477.471 414.82 477.668 414.462C477.865 414.104 477.978 413.696 477.994 413.275C478.011 412.855 477.932 412.437 477.764 412.061L462.367 377.511C462.186 377.1 461.905 376.755 461.557 376.514C461.21 376.273 460.809 376.146 460.4 376.147H192.078Z" fill="#2F2E41"/>
<path d="M326.572 164.323C328.394 164.323 329.872 162.666 329.872 160.622C329.872 158.577 328.394 156.92 326.572 156.92C324.75 156.92 323.273 158.577 323.273 160.622C323.273 162.666 324.75 164.323 326.572 164.323Z" fill="white"/>
<path d="M297.293 422.213C296.809 422.214 296.339 422.393 295.955 422.723C295.572 423.053 295.295 423.516 295.169 424.039L291.616 438.847C291.528 439.212 291.516 439.596 291.582 439.967C291.647 440.339 291.788 440.689 291.994 440.989C292.199 441.29 292.463 441.534 292.766 441.701C293.069 441.869 293.402 441.956 293.739 441.956H361.313C361.664 441.956 362.009 441.862 362.321 441.682C362.632 441.502 362.901 441.24 363.105 440.92C363.308 440.599 363.44 440.229 363.49 439.839C363.54 439.45 363.506 439.053 363.391 438.681L358.823 423.874C358.673 423.389 358.392 422.969 358.02 422.671C357.647 422.374 357.201 422.214 356.744 422.213H297.293Z" fill="#2F2E41"/>
<path d="M477.609 360.929V364.219H175.315L175.543 363.808V360.929H477.609Z" fill="#2F2E41"/>
<path d="M469.178 225.197C497.523 225.197 520.501 199.416 520.501 167.614C520.501 135.811 497.523 110.031 469.178 110.031C440.833 110.031 417.854 135.811 417.854 167.614C417.854 199.416 440.833 225.197 469.178 225.197Z" fill="#FFEA29"/>
<path d="M490.44 192.704H447.915C447.138 192.703 446.392 192.356 445.842 191.739C445.292 191.122 444.983 190.286 444.982 189.413V160.622C444.983 159.749 445.293 158.913 445.842 158.296C446.392 157.679 447.138 157.332 447.915 157.331H490.44C491.218 157.332 491.963 157.679 492.513 158.296C493.063 158.913 493.372 159.749 493.373 160.622V189.413C493.372 190.286 493.063 191.122 492.513 191.739C491.963 192.356 491.218 192.703 490.44 192.704ZM447.915 160.622V189.413H490.442L490.44 160.622L447.915 160.622Z" fill="white"/>
<path d="M482.375 160.622H455.98V147.46C455.98 137.927 461.531 131.007 469.178 131.007C476.825 131.007 482.375 137.927 482.375 147.46L482.375 160.622ZM458.913 157.331H479.443V147.46C479.443 139.71 475.222 134.298 469.178 134.298C463.134 134.298 458.913 139.71 458.913 147.46L458.913 157.331Z" fill="white"/>
<path d="M469.178 177.485C470.798 177.485 472.111 176.012 472.111 174.195C472.111 172.377 470.798 170.904 469.178 170.904C467.558 170.904 466.245 172.377 466.245 174.195C466.245 176.012 467.558 177.485 469.178 177.485Z" fill="white"/>
<path d="M433.35 293.961H221.995C220.957 293.959 219.962 293.496 219.228 292.673C218.495 291.85 218.082 290.734 218.081 289.569V230.747C218.082 229.582 218.495 228.466 219.228 227.643C219.962 226.82 220.957 226.357 221.995 226.355H433.35C434.387 226.357 435.382 226.82 436.116 227.643C436.85 228.466 437.262 229.582 437.264 230.747V289.569C437.262 290.734 436.85 291.85 436.116 292.673C435.382 293.496 434.387 293.959 433.35 293.961ZM221.995 228.112C221.372 228.113 220.775 228.39 220.335 228.884C219.894 229.378 219.647 230.048 219.646 230.747V289.569C219.647 290.268 219.894 290.938 220.335 291.432C220.775 291.926 221.372 292.204 221.995 292.204H433.35C433.972 292.204 434.569 291.926 435.009 291.432C435.45 290.938 435.697 290.268 435.698 289.569V230.747C435.697 230.048 435.45 229.378 435.009 228.884C434.569 228.39 433.972 228.113 433.35 228.112L221.995 228.112Z" fill="#E6E6E6"/>
<path d="M254.835 275.789C263.64 275.789 270.778 267.78 270.778 257.901C270.778 248.022 263.64 240.013 254.835 240.013C246.03 240.013 238.891 248.022 238.891 257.901C238.891 267.78 246.03 275.789 254.835 275.789Z" fill="#E6E6E6"/>
<path d="M291.657 245.976C291.307 245.975 290.961 246.052 290.639 246.201C290.316 246.351 290.022 246.57 289.775 246.847C289.528 247.124 289.332 247.453 289.198 247.815C289.064 248.177 288.995 248.565 288.995 248.957C288.995 249.349 289.064 249.737 289.198 250.099C289.332 250.461 289.528 250.79 289.775 251.067C290.022 251.344 290.316 251.563 290.639 251.713C290.961 251.862 291.307 251.939 291.657 251.938H416.927C417.632 251.938 418.307 251.624 418.806 251.065C419.304 250.506 419.584 249.748 419.584 248.957C419.584 248.166 419.304 247.408 418.806 246.849C418.307 246.29 417.632 245.976 416.927 245.976H291.657Z" fill="#E6E6E6"/>
<path d="M291.657 263.864C290.952 263.864 290.276 264.178 289.778 264.737C289.279 265.296 289 266.054 289 266.845C289 267.636 289.279 268.394 289.778 268.953C290.276 269.512 290.952 269.826 291.657 269.826H345.561C346.266 269.826 346.941 269.512 347.44 268.953C347.938 268.394 348.218 267.636 348.218 266.845C348.218 266.054 347.938 265.296 347.44 264.737C346.941 264.178 346.266 263.864 345.561 263.864H291.657Z" fill="#E6E6E6"/>
<path d="M174.795 265.07L135.725 288.375L135.23 268.954C147.982 266.565 160.115 262.407 171.333 255.637L175.42 244.31C175.865 243.076 176.588 241.993 177.519 241.167C178.451 240.341 179.557 239.801 180.73 239.6C181.903 239.399 183.103 239.544 184.211 240.02C185.319 240.497 186.298 241.288 187.051 242.317C188.154 243.822 188.705 245.741 188.593 247.686C188.481 249.63 187.714 251.453 186.449 252.787L174.795 265.07Z" fill="#FFB8B8"/>
<path d="M79.33 399.626C79.0449 398.453 78.9844 397.226 79.1524 396.025C79.3204 394.824 79.713 393.676 80.3045 392.658L88.8872 377.879C90.9172 374.384 94.0321 371.859 97.6276 370.795C101.223 369.731 105.043 370.203 108.345 372.12C104.738 379.008 105.241 385.052 109.591 390.303C102.838 394.002 96.597 398.776 91.0609 404.477C90.0502 405.25 88.8895 405.741 87.6755 405.909C86.4615 406.076 85.2293 405.916 84.0816 405.442C82.9339 404.967 81.9039 404.192 81.0774 403.18C80.2508 402.168 79.6517 400.95 79.33 399.626Z" fill="#2F2E41"/>
<path d="M176.575 380.303C175.276 382.731 173.443 384.745 171.251 386.15C169.059 387.554 166.582 388.303 164.057 388.325L107.04 388.809L104.567 372.718L129.79 364.394L108.523 346.083L131.768 315.564L173.987 359.714C176.455 362.294 178.058 365.747 178.529 369.495C179 373.242 178.31 377.058 176.575 380.303Z" fill="#2F2E41"/>
<path d="M98.1377 490.354H84.7844C72.7951 398.148 60.5912 305.685 96.654 271.174L139.187 278.942L133.746 319.449L110.007 349.967L98.1377 490.354Z" fill="#2F2E41"/>
<path d="M109.876 511.241C108.83 511.561 107.737 511.629 106.666 511.44C105.596 511.252 104.573 510.812 103.665 510.148L89.1662 507.961C86.0507 505.684 83.8002 502.189 82.8514 498.155C81.9027 494.122 82.3233 489.836 84.0316 486.13C90.1717 490.177 95.5579 489.612 100.238 484.732C103.546 492.224 108.995 491.767 114.199 498.079C114.888 499.213 115.325 500.515 115.475 501.877C115.625 503.239 115.482 504.622 115.059 505.909C114.636 507.197 113.945 508.353 113.044 509.28C112.142 510.208 111.056 510.88 109.876 511.241Z" fill="#2F2E41"/>
<path d="M129.79 209.581L105.062 202.922C109.168 193.49 109.507 182.995 107.534 171.849L124.35 171.294C124.876 185.155 126.47 198.105 129.79 209.581Z" fill="#FFB8B8"/>
<path d="M136.586 295.649C118.585 309.412 105.866 296.12 96.1593 275.613C97.5081 263.064 95.3242 248.047 91.2796 231.729C89.4808 224.532 90.1524 216.84 93.1617 210.172C96.171 203.503 101.299 198.342 107.534 195.709L128.801 205.697C146.858 222.211 150.412 240.099 143.638 258.966L136.586 295.649Z" fill="#FFEA29"/>
<path d="M84.7843 223.453L65.0017 235.106L100.116 258.411L105.002 271.933C105.328 272.836 105.487 273.803 105.469 274.777C105.451 275.75 105.256 276.71 104.897 277.596C104.537 278.483 104.021 279.278 103.379 279.933C102.737 280.588 101.982 281.09 101.162 281.407C100.229 281.768 99.2343 281.882 98.2559 281.74C97.2774 281.597 96.3415 281.203 95.5217 280.587C94.7018 279.971 94.0201 279.15 93.5301 278.19C93.04 277.229 92.7548 276.154 92.6969 275.049L92.2028 265.625L47.5732 249.101C46.0695 248.544 44.6984 247.61 43.5639 246.371C42.4293 245.132 41.5609 243.619 41.0246 241.948C40.2428 239.511 40.203 236.853 40.9114 234.388C41.6199 231.923 43.0366 229.792 44.9398 228.327L80.8278 200.703L84.7843 223.453Z" fill="#FFB8B8"/>
<path d="M104.567 225.673C96.3163 221.616 88.8138 226.023 79.344 229.557L77.8604 200.148C87.2634 194.525 96.2286 193.009 104.567 197.374L104.567 225.673Z" fill="#FFEA29"/>
<path d="M114.436 185.861C123.156 185.861 130.224 177.931 130.224 168.148C130.224 158.365 123.156 150.434 114.436 150.434C105.717 150.434 98.6484 158.365 98.6484 168.148C98.6484 177.931 105.717 185.861 114.436 185.861Z" fill="#FFB8B8"/>
<path d="M133.324 165.913C117.693 167.63 105.781 164.762 98.1689 156.595V150.018H131.997L133.324 165.913Z" fill="#2F2E41"/>
</g>
<defs>
<clipPath id="clip0_69:664">
<rect width="526" height="410.602" fill="white" transform="translate(0 110.031)"/>
</clipPath>
</defs>
</svg>
