<svg width="46" height="50" viewBox="0 0 46 50" fill="none" xmlns="http://www.w3.org/2000/svg">
<path d="M3.04688 41.7V7.57501H13.5469C16.5469 7.57501 19.2266 8.2547 21.5859 9.61407C23.9609 10.9578 25.8125 12.8797 27.1406 15.3797C28.4688 17.8641 29.1328 20.6922 29.1328 23.8641V25.4344C29.1328 28.6063 28.4766 31.4266 27.1641 33.8953C25.8672 36.3641 24.0312 38.2781 21.6562 39.6375C19.2812 40.9969 16.6016 41.6844 13.6172 41.7H3.04688ZM10.0781 13.2703V36.0516H13.4766C16.2266 36.0516 18.3281 35.1531 19.7812 33.3563C21.2344 31.5594 21.9766 28.9891 22.0078 25.6453V23.8406C22.0078 20.3719 21.2891 17.7469 19.8516 15.9656C18.4141 14.1688 16.3125 13.2703 13.5469 13.2703H10.0781Z" fill="#FFEA29"/>
<path d="M40.787 49.8H33.7557V35.175H20.0448V49.8H13.0135V15.675H20.0448V29.5031H33.7557V15.675H40.787V49.8Z" fill="#FFE604"/>
</svg>
