<svg width="466" height="477" viewBox="0 0 466 477" fill="none" xmlns="http://www.w3.org/2000/svg">
<g clip-path="url(#clip0_69:3)">
<path d="M466 247.524C466.052 279.49 459.29 311.11 446.151 340.339C445.599 341.564 445.041 342.783 444.466 343.996C444.385 344.185 444.292 344.373 444.205 344.562C443.984 345.026 443.763 345.495 443.536 345.959C443.374 346.296 443.211 346.628 443.043 346.966C442.642 347.79 442.235 348.61 441.822 349.427C441.369 350.325 440.91 351.222 440.445 352.116C439.98 353.009 439.51 353.9 439.033 354.789C438.615 355.561 438.195 356.332 437.772 357.101C437.226 358.091 436.67 359.081 436.105 360.071C435.617 360.918 435.127 361.759 434.635 362.594C434.106 363.487 433.571 364.38 433.031 365.272L432.979 365.358C432.863 365.553 432.746 365.747 432.624 365.942C432.514 366.119 432.409 366.291 432.299 366.468C432.189 366.646 432.084 366.818 431.974 366.989V366.995C431.619 367.567 431.265 368.128 430.91 368.694L430.904 368.7C430.108 369.959 429.295 371.212 428.476 372.454C426.953 374.766 425.39 377.044 423.787 379.287C423.787 379.293 423.781 379.293 423.775 379.298C422.816 380.649 421.834 381.988 420.847 383.316C420.213 384.163 419.574 385.006 418.929 385.845C418.284 386.686 417.633 387.52 416.977 388.346C416.832 388.535 416.68 388.723 416.529 388.912C415.693 389.965 414.844 391.018 413.984 392.054C413.798 392.283 413.612 392.506 413.432 392.729C413.148 393.067 412.869 393.405 412.59 393.736C412.497 393.851 412.404 393.96 412.305 394.074C411.829 394.635 411.352 395.196 410.864 395.757V395.762C410.394 396.312 409.917 396.861 409.435 397.41C409.33 397.531 409.226 397.651 409.115 397.771C408.958 397.954 408.796 398.131 408.633 398.315C408.232 398.778 407.819 399.236 407.401 399.694C407.395 399.699 407.395 399.705 407.389 399.711L407.372 399.728V399.734C394.881 413.613 380.73 425.953 365.229 436.484C365.177 436.524 365.122 436.56 365.066 436.593C364.874 436.73 364.683 436.856 364.491 436.988C363.102 437.926 361.702 438.853 360.29 439.758C359.598 440.204 358.907 440.644 358.21 441.079V441.085C358.204 441.085 358.204 441.085 358.198 441.091H358.186L358.175 441.102L358.14 441.119C358.123 441.131 358.111 441.137 358.093 441.148C357.559 441.486 357.03 441.818 356.49 442.15C356.327 442.258 356.164 442.356 356.002 442.453C355.717 442.63 355.426 442.808 355.136 442.985C354.851 443.157 354.561 443.334 354.27 443.506C353.904 443.723 353.538 443.946 353.172 444.158C352.376 444.633 351.578 445.102 350.778 445.566C350.488 445.738 350.191 445.904 349.895 446.075C349.604 446.241 349.308 446.407 349.012 446.573C349.008 446.579 349.003 446.584 348.997 446.588C348.991 446.592 348.984 446.595 348.977 446.596L348.965 446.602L348.954 446.613H348.948C348.134 447.071 347.327 447.529 346.507 447.975L346.502 447.981C345.845 448.341 345.188 448.696 344.526 449.051C342.957 449.892 341.379 450.718 339.79 451.529C338.686 452.095 337.577 452.645 336.461 453.188C335.787 453.52 335.107 453.846 334.427 454.173C333.864 454.442 333.294 454.711 332.731 454.974C332.574 455.048 332.423 455.123 332.266 455.191C332.01 455.311 331.749 455.432 331.493 455.546C331.278 455.643 331.069 455.741 330.854 455.838C330.343 456.078 329.826 456.307 329.314 456.536C328.739 456.794 328.17 457.045 327.594 457.297C325.433 458.247 323.248 459.163 321.057 460.044C313.232 463.2 305.234 465.924 297.101 468.204C296.723 468.313 296.34 468.422 295.956 468.525C292.476 469.486 288.97 470.366 285.439 471.163C279.274 472.559 273.053 473.706 266.776 474.602C266.764 474.602 266.747 474.608 266.735 474.608C265.986 474.717 265.23 474.82 264.481 474.923C264.417 474.934 264.347 474.946 264.278 474.951C264.272 474.957 264.266 474.957 264.254 474.951H264.249C263.418 475.06 262.587 475.169 261.75 475.272C261.692 475.283 261.634 475.289 261.576 475.295C260.797 475.386 260.013 475.478 259.228 475.564C258.386 475.655 257.543 475.741 256.695 475.827H256.689C255.399 475.953 254.109 476.073 252.819 476.176C252.796 476.176 252.773 476.182 252.75 476.182C252.238 476.227 251.727 476.262 251.216 476.302H251.21C245.196 476.771 239.126 477.004 233 477C226.347 477 219.762 476.727 213.244 476.182C213.221 476.182 213.198 476.176 213.175 476.176C211.786 476.062 210.399 475.936 209.014 475.798C208.648 475.764 208.288 475.724 207.922 475.69C207.852 475.684 207.782 475.678 207.713 475.667C207.602 475.655 207.492 475.644 207.376 475.632C207.318 475.627 207.254 475.621 207.196 475.609C206.713 475.558 206.231 475.507 205.743 475.449C205.203 475.386 204.656 475.323 204.116 475.255C203.576 475.192 203.029 475.123 202.489 475.049C202.373 475.037 202.251 475.026 202.135 475.003C201.74 474.957 201.345 474.906 200.955 474.848C200.763 474.826 200.578 474.797 200.392 474.768C200.014 474.717 199.642 474.665 199.264 474.608C199.253 474.608 199.235 474.602 199.224 474.602C187.358 472.915 175.645 470.314 164.192 466.825H164.187C163.565 466.637 162.943 466.442 162.321 466.247C162.136 466.196 161.95 466.139 161.764 466.076C160.148 465.566 158.543 465.04 156.947 464.496C154.745 463.752 152.558 462.974 150.387 462.161C149.794 461.938 149.207 461.715 148.615 461.492C147.435 461.034 146.261 460.576 145.093 460.107C143.1 459.306 141.121 458.48 139.155 457.629H139.149V457.624C137.598 456.948 136.052 456.261 134.518 455.546C134.239 455.42 133.96 455.294 133.682 455.163C133.628 455.147 133.577 455.124 133.531 455.094C133.525 455.094 133.525 455.088 133.519 455.088C133.118 454.905 132.717 454.716 132.316 454.528L132.304 454.522C130.253 453.555 128.22 452.557 126.203 451.529C123.705 450.258 121.228 448.942 118.772 447.58C116.738 446.453 114.724 445.295 112.729 444.107C110.364 442.699 108.024 441.249 105.71 439.758C104.989 439.294 104.269 438.825 103.548 438.35C102.898 437.921 102.253 437.491 101.608 437.056C99.3301 435.523 97.0814 433.949 94.8618 432.335C92.5667 430.67 90.3045 428.963 88.0752 427.214C85.17 424.936 82.3229 422.594 79.5338 420.186C74.3334 415.711 69.3461 411.011 64.5719 406.086C64.4208 405.931 64.2697 405.777 64.1186 405.617C63.6422 405.124 63.1715 404.632 62.7009 404.135C62.0153 403.413 61.3355 402.681 60.6615 401.948C59.5458 400.752 58.4496 399.543 57.3727 398.32H57.3669V398.315C56.7103 397.576 56.0712 396.844 55.4204 396.1V396.094C55.3274 395.991 55.2403 395.888 55.1531 395.785C54.7405 395.31 54.3397 394.841 53.9388 394.36V394.355C53.3926 393.719 52.858 393.084 52.3351 392.443C52.2188 392.306 52.1084 392.174 51.998 392.037H51.9922V392.031C51.5623 391.516 51.1381 390.995 50.7198 390.475C50.5047 390.217 50.2956 389.954 50.0864 389.691H50.0806V389.685C48.8139 388.111 47.5724 386.522 46.3561 384.918V384.912C46.019 384.472 45.6879 384.031 45.3625 383.585H45.3567C43.7995 381.513 42.2829 379.417 40.8071 377.295V377.29C40.2493 376.494 39.6973 375.693 39.1511 374.886C38.6049 374.079 38.0645 373.271 37.53 372.46H37.5242C36.9722 371.624 36.426 370.785 35.8856 369.942C35.8566 369.896 35.8275 369.856 35.8043 369.816C35.2697 368.986 34.7429 368.151 34.2238 367.31C33.8054 366.64 33.3929 365.976 32.992 365.307C32.7131 364.855 32.44 364.408 32.1727 363.95C32.0739 363.796 31.9868 363.641 31.8996 363.493C31.2838 362.457 30.6794 361.421 30.0751 360.38C29.3721 359.155 28.6748 357.919 27.995 356.683C27.7161 356.173 27.4371 355.659 27.1641 355.143C27.0654 354.977 26.9781 354.812 26.891 354.64C26.5656 354.033 26.2402 353.427 25.9206 352.814C25.6011 352.208 25.2815 351.595 24.9677 350.983C24.6539 350.371 24.3402 349.758 24.0322 349.14C23.7998 348.677 23.5674 348.208 23.3407 347.744C23.3173 347.705 23.2959 347.665 23.2769 347.624C23.1723 347.406 23.0619 347.195 22.9631 346.977C22.9399 346.944 22.9222 346.907 22.9108 346.868C22.6726 346.388 22.4402 345.913 22.2135 345.432C21.9114 344.814 21.6209 344.19 21.3304 343.567C21.1212 343.132 20.9236 342.691 20.7203 342.25C20.4298 341.632 20.145 341.009 19.8661 340.379C19.5698 339.732 19.2851 339.08 19.0003 338.428C18.9249 338.262 18.8551 338.102 18.7854 337.936C18.6517 337.638 18.5239 337.34 18.3961 337.043C18.0533 336.253 17.7163 335.452 17.385 334.656C17.0074 333.758 16.6394 332.858 16.2811 331.955C15.9382 331.114 15.6051 330.271 15.2817 329.426L15.1597 329.117V329.111C10.111 316.043 6.291 302.546 3.74786 288.79V288.784C2.29777 280.93 1.26597 273.007 0.656682 265.047C0.621854 264.612 0.592774 264.177 0.563721 263.742C0.180281 258.357 -0.00759181 252.951 0.000105123 247.524C0.000105123 245.115 0.0388398 242.717 0.116313 240.331C1.62289 190.441 19.6805 142.41 51.5273 103.584C52.9277 101.873 54.3533 100.183 55.8039 98.5141C57.396 96.6829 59.0152 94.8765 60.6615 93.0949C61.8003 91.8588 62.9527 90.638 64.1187 89.4323C64.1404 89.4081 64.1637 89.3851 64.1884 89.3637C64.3104 89.2321 64.4382 89.1005 64.5719 88.9688C71.6837 81.6334 79.2831 74.7721 87.3199 68.4305C88.2379 67.698 89.1559 66.9827 90.0857 66.2788C90.9107 65.6437 91.7358 65.0141 92.5667 64.4018C93.5312 63.6807 94.5016 62.9692 95.4778 62.2673C100.562 58.5991 105.797 55.1351 111.183 51.8751C113.432 50.5132 115.706 49.1894 118.005 47.9037C118.842 47.4286 119.69 46.9651 120.538 46.5015C121.689 45.8778 122.839 45.2598 124.001 44.6588C158.534 26.6923 197.094 17.5499 236.145 18.0698C275.197 18.5897 313.491 28.7552 347.518 47.6346C347.681 47.7205 347.844 47.812 348.001 47.9036C349 48.4645 349.994 49.0253 350.981 49.6032C352.271 50.3472 353.552 51.1045 354.822 51.8751C361.237 55.7608 367.443 59.9363 373.439 64.4018C374.369 65.0943 375.298 65.7923 376.216 66.5021C377.047 67.1372 377.872 67.7839 378.692 68.4305C379.139 68.7854 379.592 69.1458 380.04 69.5064C389.851 77.374 398.998 86.0129 407.389 95.3381L407.401 95.3496C407.529 95.4926 407.657 95.63 407.779 95.773C408.18 96.2194 408.581 96.6715 408.976 97.1179C409.028 97.175 409.08 97.2381 409.133 97.2953C409.714 97.9534 410.291 98.6172 410.864 99.2868C417.85 107.409 424.255 115.998 430.033 124.993C432.183 128.323 434.24 131.715 436.204 135.167C455.8 169.465 466.064 208.169 466 247.524Z" fill="#3F3D56"/>
<path d="M396.919 14.1247L410.864 385.914V385.921C410.393 386.561 409.917 387.201 409.434 387.84C409.173 388.194 408.906 388.54 408.633 388.893C408.232 389.433 407.819 389.966 407.401 390.5C407.395 390.506 407.395 390.513 407.389 390.52L407.372 390.54V390.546C395.141 406.446 380.989 420.819 365.228 433.348V433.494L365.066 433.474C364.874 433.634 364.682 433.781 364.49 433.934C363.102 435.027 361.701 436.107 360.289 437.16C359.598 437.68 358.905 438.193 358.209 438.7V438.706C358.204 438.706 358.203 438.706 358.198 438.713H358.186L358.174 438.726L358.14 438.746C358.122 438.759 358.111 438.766 358.093 438.78C357.559 439.173 357.03 439.559 356.489 439.946C356.327 440.073 356.164 440.186 356.001 440.299C355.717 440.506 355.426 440.712 355.136 440.919C354.851 441.119 354.56 441.326 354.27 441.525C353.114 442.339 351.946 443.138 350.778 443.925C350.487 444.125 350.191 444.318 349.895 444.518C349.604 444.711 349.308 444.905 349.011 445.098V445.118L348.976 445.124L348.965 445.131L348.953 445.144H348.947C348.134 445.678 347.326 446.211 346.507 446.731L346.501 446.737C345.845 447.157 345.188 447.57 344.526 447.984C342.957 448.963 341.376 449.93 339.79 450.87C338.686 451.529 337.576 452.169 336.461 452.802C335.787 453.189 335.107 453.569 334.427 453.949C333.863 454.262 333.294 454.575 332.73 454.882C332.574 454.968 332.422 455.055 332.266 455.135C332.01 455.275 331.748 455.415 331.493 455.548H134.518C134.239 455.402 133.96 455.255 133.681 455.102C133.627 455.083 133.576 455.056 133.53 455.022C133.524 455.022 133.524 455.015 133.518 455.015C133.118 454.802 132.717 454.582 132.316 454.362L132.304 454.355C130.253 453.229 128.219 452.067 126.203 450.87C121.63 448.164 117.139 445.282 112.729 442.225C110.364 440.586 108.024 438.897 105.71 437.16C104.989 436.62 104.269 436.074 103.548 435.52C102.897 435.021 102.252 434.521 101.607 434.014C99.3297 432.228 97.081 430.395 94.8614 428.516C92.5663 426.576 90.3041 424.588 88.0748 422.551C85.1696 419.898 82.3224 417.17 79.5334 414.366C74.3331 409.154 69.3457 403.68 64.5715 397.944C64.4204 397.764 64.2693 397.584 64.1182 397.398C62.9504 395.991 61.798 394.567 60.661 393.126L72.2819 14.1247C72.2712 11.823 72.6989 9.53964 73.5428 7.39318C75.3092 2.9945 78.7548 0.00201416 82.7117 0.00201416H386.489C390.498 0.00201416 393.979 3.06789 395.722 7.55983C395.78 7.7066 395.832 7.8532 395.884 7.99981C396.577 9.96945 396.927 12.0403 396.919 14.1247Z" fill="#3F3D56"/>
<path d="M110.753 42.9633C119.417 42.9633 126.441 34.9067 126.441 24.9684C126.441 15.03 119.417 6.97339 110.753 6.97339C102.089 6.97339 95.0647 15.03 95.0647 24.9684C95.0647 34.9067 102.089 42.9633 110.753 42.9633Z" fill="white"/>
<path d="M276.93 73.1964C250.481 80.0483 221.176 84.2163 191.378 85.3576C187.011 85.5919 182.633 85.5625 178.27 85.2698C168.681 84.4755 160.467 81.5073 151.32 79.8853C146.922 79.1077 142.024 78.5391 137.597 77.6988C138.62 76.4489 139.661 75.2142 140.721 73.9949C150.267 74.7892 159.962 77.3895 169.623 78.5977C186.046 80.6545 204.447 78.3594 216.897 72.6989C222.937 69.9523 227.564 66.5243 233.583 63.7652C234.402 63.3512 235.288 63.0837 236.202 62.975C238.108 62.8036 239.78 63.5603 241.143 64.2376C251.241 69.2584 265.902 73.3386 279.511 71.0936C280.525 71.8754 278.598 72.7658 276.93 73.1964Z" fill="white"/>
<path d="M271.81 135.915C271.98 135.884 272.151 135.86 272.321 135.831C271.605 135.395 270.931 134.895 270.308 134.338L271.81 135.915Z" fill="white"/>
<path d="M383.324 149.475C375.544 150.087 367.723 150.543 359.862 150.842C353.884 151.16 347.892 151.12 341.919 150.722C328.793 149.629 317.55 145.572 305.028 143.351C293.553 141.32 279.607 140.341 272.321 135.832C291.153 132.622 310.664 139.157 330.083 141.589C345.79 143.491 361.713 142.717 377.154 139.3C379.304 142.63 381.36 146.022 383.324 149.475Z" fill="white"/>
<path d="M221.263 287.193V281.711C221.262 279.617 220.448 277.602 218.988 276.079C217.528 274.556 215.532 273.641 213.409 273.52V252.112H211.562V273.495H203.246V287.144H163.98V444.109H250.828V317.966C250.828 310.087 247.763 302.507 242.265 296.784C236.766 291.06 229.251 287.629 221.263 287.193Z" fill="#2F2E41"/>
<path d="M189.85 309.438H178.301V318.537H189.85V309.438Z" fill="white"/>
<path d="M208.79 309.438H197.241V318.537H208.79V309.438Z" fill="white"/>
<path d="M227.73 309.438H216.181V318.537H227.73V309.438Z" fill="white"/>
<path d="M189.85 332.641H178.301V341.741H189.85V332.641Z" fill="white"/>
<path d="M208.79 332.641H197.241V341.741H208.79V332.641Z" fill="white"/>
<path d="M227.73 332.641H216.181V341.741H227.73V332.641Z" fill="white"/>
<path d="M189.85 355.845H178.301V364.944H189.85V355.845Z" fill="white"/>
<path d="M208.79 355.845H197.241V364.944H208.79V355.845Z" fill="white"/>
<path d="M227.73 355.845H216.181V364.944H227.73V355.845Z" fill="white"/>
<path d="M189.85 379.048H178.301V388.147H189.85V379.048Z" fill="white"/>
<path d="M208.79 379.048H197.241V388.147H208.79V379.048Z" fill="white"/>
<path d="M227.73 379.048H216.181V388.147H227.73V379.048Z" fill="white"/>
<path d="M189.85 402.251H178.301V411.351H189.85V402.251Z" fill="white"/>
<path d="M208.79 402.251H197.241V411.351H208.79V402.251Z" fill="white"/>
<path d="M227.73 402.251H216.181V411.351H227.73V402.251Z" fill="white"/>
<path d="M189.85 425.455H178.301V434.554H189.85V425.455Z" fill="white"/>
<path d="M208.79 425.455H197.241V434.554H208.79V425.455Z" fill="white"/>
<path d="M227.73 425.455H216.181V434.554H227.73V425.455Z" fill="white"/>
<path d="M166.377 241.527V444.107H112.729C110.364 442.699 108.024 441.249 105.71 439.758C104.989 439.294 104.269 438.825 103.548 438.35C102.898 437.921 102.253 437.491 101.608 437.056C99.33 435.523 97.0814 433.949 94.8618 432.335C92.5667 430.67 90.3045 428.963 88.0752 427.214C85.17 424.936 82.3229 422.594 79.5338 420.186V210.705H95.0071V186.367H110.713V163.162H112.56V186.367H124.083C126.296 186.367 128.418 187.233 129.982 188.774C131.547 190.315 132.426 192.405 132.427 194.585V210.705H135.082C141.829 210.706 148.396 212.853 153.804 216.827C159.212 220.801 163.172 226.39 165.093 232.76C165.427 233.882 165.699 235.02 165.906 236.171C166.22 237.94 166.377 239.732 166.377 241.527Z" fill="#2F2E41"/>
<path d="M141.664 229.136H104.246V231.866H141.664V229.136Z" fill="white"/>
<path d="M141.664 245.97H104.246V248.699H141.664V245.97Z" fill="white"/>
<path d="M141.664 262.803H104.246V265.533H141.664V262.803Z" fill="white"/>
<path d="M141.664 279.637H104.246V282.367H141.664V279.637Z" fill="white"/>
<path d="M141.664 296.471H104.246V299.201H141.664V296.471Z" fill="white"/>
<path d="M141.664 313.305H104.246V316.035H141.664V313.305Z" fill="white"/>
<path d="M141.664 330.139H104.246V332.869H141.664V330.139Z" fill="white"/>
<path d="M141.664 346.973H104.246V349.703H141.664V346.973Z" fill="white"/>
<path d="M141.664 363.807H104.246V366.536H141.664V363.807Z" fill="white"/>
<path d="M141.664 380.64H104.246V383.37H141.664V380.64Z" fill="white"/>
<path d="M141.664 397.474H104.246V400.204H141.664V397.474Z" fill="white"/>
<path d="M141.664 414.308H104.246V417.038H141.664V414.308Z" fill="white"/>
<path d="M119.49 191.373H107.942V200.473H119.49V191.373Z" fill="white"/>
<path d="M395.885 8.00017C395.833 7.85124 395.78 7.70817 395.722 7.55953C393.979 3.06725 390.499 0 386.489 0H82.7122C78.7553 0 75.3096 2.99291 73.5433 7.39353C72.6997 9.53947 72.272 11.8221 72.2824 14.1233L60.6615 401.948C61.3355 402.681 62.0153 403.413 62.701 404.134C63.1716 404.632 63.6423 405.124 64.1187 405.617L75.7396 14.1233C75.7367 13.0138 75.8852 11.909 76.1812 10.8385C76.1823 10.8209 76.1862 10.8035 76.1928 10.787C77.1922 7.22755 79.7372 4.69249 82.7122 4.69249H386.489C387.202 4.69344 387.906 4.83957 388.558 5.12169C391.277 6.2662 393.282 9.59679 393.444 13.5967C393.45 13.7742 393.456 13.9459 393.456 14.1233L407.401 390.498C407.82 389.965 408.232 389.433 408.633 388.895C408.784 388.701 408.929 388.506 409.075 388.317C409.197 388.157 409.319 388.003 409.435 387.842C409.917 387.201 410.394 386.56 410.864 385.919V385.914L396.919 14.1233C396.927 12.0395 396.577 9.96925 395.885 8.00017ZM126.204 451.529C128.22 452.559 130.253 453.557 132.305 454.522L132.316 454.528C132.717 454.716 133.118 454.905 133.519 455.088C133.525 455.088 133.525 455.094 133.531 455.094C133.577 455.124 133.628 455.147 133.682 455.163C133.961 455.294 134.239 455.42 134.518 455.546H331.493C331.749 455.432 332.01 455.312 332.266 455.191C332.423 455.123 332.574 455.048 332.731 454.974C333.294 454.711 333.864 454.442 334.428 454.173C335.107 453.846 335.787 453.52 336.461 453.188C337.577 452.645 338.687 452.095 339.791 451.529H126.204Z" fill="#2F2E41"/>
<path d="M395.186 47.9021H74.0107V51.8737H395.186V47.9021Z" fill="#2F2E41"/>
<path d="M399.609 97.1163H70.7368V101.088H399.609V97.1163Z" fill="#2F2E41"/>
<path d="M124.001 174.184H120.538L132.159 1.78314H135.622L124.001 174.184Z" fill="#2F2E41"/>
<path d="M350.982 175.328H347.52L333.575 1.78314H337.037L350.982 175.328Z" fill="#2F2E41"/>
<path d="M401.352 169.535H71.3178V180.902H401.352V169.535Z" fill="#2F2E41"/>
<path d="M236.93 163.264H240.393C241.226 163.264 242.052 163.425 242.822 163.74C243.592 164.054 244.292 164.514 244.881 165.095C245.471 165.675 245.938 166.364 246.257 167.123C246.576 167.881 246.741 168.694 246.741 169.515H230.582C230.582 167.857 231.251 166.267 232.442 165.095C233.632 163.922 235.247 163.264 236.93 163.264V163.264Z" fill="#2F2E41"/>
<path d="M119.545 437.995C114.315 443.145 114.722 445.291 112.729 444.107C110.364 442.699 108.024 441.249 105.71 439.758C104.989 439.294 104.269 438.825 103.548 438.35C102.898 437.921 102.253 437.491 101.608 437.056C99.33 435.523 97.0814 433.949 94.8618 432.335C92.5667 430.67 90.3045 428.963 88.0752 427.214C85.17 424.936 82.3228 422.593 79.5338 420.186C74.3334 415.711 69.346 411.011 64.5718 406.086C64.4207 405.931 64.2697 405.777 64.1186 405.616C63.6422 405.124 63.1715 404.632 62.7009 404.134L65.0657 395.722L67.971 273.116L68.1453 236.171L68.1569 232.76L70.7368 179.334L70.7542 175.924L72.2533 103.893L72.2649 101.089L72.2881 97.1179L64.1883 89.3638L75.9836 51.8752L76.001 47.9037L76.1811 10.8386L76.1927 7.81132C82.346 2.29468 91.0559 1.21318 101.706 2.18598C102.235 2.23753 102.776 2.28909 103.316 2.34621L103.461 4.69252L103.729 8.87563V8.88149L105.82 42.0496V42.061L106.192 47.9038L106.442 51.8752L107.099 62.2674L97.674 97.118L97.9239 101.089L99.7426 129.885L99.9924 133.857L100.509 142.052L102.648 175.924L102.863 179.334L103.304 186.367L103.856 195.066L103.92 196.079L104.17 200.05L104.891 211.461L105.088 214.643L106 229.138L106.122 231.072L106.175 231.868L106.233 232.76L106.326 234.248L106.448 236.171L106.884 243.072L107.064 245.968L107.238 248.698L107.36 250.672L107.564 253.854L107.72 256.314L108.127 262.804L108.301 265.533L108.598 270.277L108.778 273.116L108.801 273.459L109.19 279.64L109.365 282.369L109.493 284.481L109.835 289.889L110.039 293.065L110.254 296.47L110.422 299.199L111.073 309.489L111.271 312.67L111.311 313.306L111.486 316.035L112.311 329.094L112.375 330.141L112.508 332.276L112.543 332.871L113.438 346.972L113.548 348.7L113.612 349.701L113.746 351.882L114.501 363.807L114.675 366.537L114.786 368.305L114.983 371.487L115.559 380.643L115.733 383.373L116.018 387.917L116.221 391.093L116.622 397.473L116.796 400.203L117.255 407.516L117.459 410.692L117.587 414.309L117.685 417.039L119.545 437.995Z" fill="#CCCCCC"/>
<path d="M409.115 397.771C408.958 397.954 408.796 398.131 408.633 398.315C408.232 398.778 407.819 399.236 407.401 399.694C407.395 399.699 407.395 399.705 407.389 399.711L407.372 399.728V399.734C394.881 413.613 380.73 425.953 365.229 436.484C365.177 436.524 365.122 436.56 365.066 436.593C364.874 436.73 364.682 436.856 364.491 436.988C363.102 437.926 361.702 438.853 360.29 439.758C359.598 440.204 358.907 440.644 358.21 441.079V441.085C358.204 441.085 358.204 441.085 358.198 441.091H358.186L358.175 441.102L358.14 441.119C358.122 441.131 358.111 441.137 358.093 441.148C357.559 441.486 357.03 441.818 356.49 442.15C356.327 442.258 356.164 442.356 356.002 442.453C355.717 442.63 355.426 442.808 355.136 442.985C354.851 443.157 354.561 443.334 354.27 443.506C353.904 443.723 353.538 443.946 353.172 444.158L353.195 442.27L353.23 439.758L353.399 428.209L353.98 418.985L357.425 364.385L357.971 355.744L358.093 353.799L359.645 329.232L360.174 320.796L361.376 301.797L361.917 293.156L362.446 284.807L362.469 284.481L362.515 283.703L362.544 283.228V283.222L363.16 273.528L363.183 273.116L363.619 266.26V266.249L364.241 256.314L364.636 250.077L365.078 243.072L365.432 237.459L365.513 236.171L365.728 232.76L365.74 232.623L367.076 211.392L367.425 205.858V205.853L367.791 200.05L368.041 196.079L368.558 187.964L369.104 179.334L369.319 175.924L370.08 163.814V163.809L370.505 157.068L370.929 150.315L371.556 140.438L371.969 133.857L372.219 129.885L374.032 101.089L374.113 99.8417L374.287 97.1179L374.874 87.8016L362.271 66.5021L363.195 51.8751L363.445 47.9037L366.094 5.9457L366.176 4.69249L366.321 2.34618C377.698 1.11587 386.977 2.01995 393.444 7.81124L393.625 47.9037L393.642 51.8751L397.32 95.7731L397.326 97.1179L397.343 101.089L398.837 175.924L398.854 179.334L401.411 232.76L401.428 236.171L402.753 273.116L402.805 284.481L409.075 388.317L409.115 397.771Z" fill="#CCCCCC"/>
<path d="M360.29 439.758C359.598 440.204 358.907 440.644 358.21 441.079V441.085C358.204 441.085 358.204 441.085 358.198 441.091H358.186L358.175 441.102L358.14 441.119C358.122 441.131 358.111 441.137 358.093 441.148C357.559 441.486 357.03 441.818 356.49 442.149C356.327 442.258 356.164 442.356 356.002 442.453C355.717 442.63 355.426 442.808 355.136 442.985C354.851 443.157 354.561 443.334 354.27 443.506C353.904 443.723 353.538 443.946 353.172 444.158C352.376 444.633 351.578 445.102 350.778 445.566C350.488 445.738 350.191 445.904 349.895 446.075C349.604 446.241 349.308 446.407 349.012 446.573V446.59L348.977 446.596L348.965 446.602L348.954 446.613H348.948C348.134 447.071 347.327 447.529 346.507 447.975L346.502 447.981C345.845 448.341 345.188 448.696 344.526 449.051C342.957 449.892 341.379 450.718 339.79 451.529C338.686 452.095 337.577 452.645 336.461 453.188C335.787 453.52 335.107 453.846 334.427 454.173C333.864 454.442 333.294 454.711 332.731 454.974C332.574 455.048 332.423 455.123 332.266 455.191C332.01 455.311 331.749 455.432 331.493 455.546C331.278 455.643 331.069 455.741 330.854 455.838C330.343 456.078 329.826 456.307 329.314 456.536C328.739 456.794 328.17 457.045 327.594 457.297C325.433 458.247 323.248 459.163 321.057 460.044C313.232 463.2 305.234 465.924 297.101 468.204C296.723 468.313 296.34 468.422 295.956 468.525C292.476 469.486 288.97 470.366 285.439 471.163C279.274 472.559 273.053 473.706 266.776 474.602C266.764 474.602 266.747 474.608 266.735 474.608C265.986 474.717 265.23 474.82 264.481 474.923C264.417 474.934 264.347 474.946 264.278 474.951C264.272 474.957 264.266 474.957 264.254 474.951H264.249C263.418 475.06 262.587 475.169 261.75 475.272C261.692 475.283 261.634 475.289 261.576 475.295C260.797 475.386 260.013 475.478 259.228 475.564C258.386 475.655 257.543 475.741 256.695 475.827H256.689C255.399 475.953 254.109 476.073 252.819 476.176C252.796 476.176 252.773 476.182 252.75 476.182C252.238 476.227 251.727 476.262 251.216 476.302H251.21C245.196 476.771 239.126 477.004 233 477C226.347 477 219.762 476.727 213.244 476.182C213.221 476.182 213.198 476.176 213.175 476.176C211.786 476.062 210.399 475.936 209.014 475.798C208.648 475.764 208.288 475.724 207.922 475.69C207.852 475.684 207.782 475.678 207.713 475.667C207.602 475.655 207.492 475.644 207.376 475.632C207.318 475.627 207.254 475.621 207.196 475.61C206.713 475.558 206.231 475.507 205.743 475.449C205.203 475.386 204.656 475.323 204.116 475.255C203.576 475.192 203.029 475.123 202.489 475.049C202.373 475.037 202.251 475.026 202.135 475.003C201.74 474.957 201.344 474.906 200.955 474.848C200.763 474.825 200.578 474.797 200.392 474.768C200.014 474.717 199.642 474.665 199.264 474.608C199.253 474.608 199.235 474.602 199.224 474.602C187.358 472.915 175.645 470.314 164.192 466.825H164.187C163.565 466.637 162.943 466.442 162.321 466.247C162.135 466.196 161.95 466.139 161.764 466.076C160.148 465.566 158.543 465.04 156.947 464.496C154.745 463.752 152.558 462.974 150.387 462.161C149.794 461.938 149.207 461.715 148.615 461.492C147.435 461.034 146.261 460.576 145.093 460.107C143.1 459.306 141.121 458.48 139.155 457.629H139.149V457.623C137.598 456.948 136.052 456.261 134.518 455.546C134.239 455.42 133.96 455.294 133.682 455.163C133.628 455.147 133.577 455.124 133.531 455.094C133.525 455.094 133.525 455.088 133.519 455.088C133.118 454.905 132.717 454.716 132.316 454.528L132.304 454.522C130.253 453.555 128.22 452.557 126.203 451.529C123.705 450.258 121.228 448.942 118.772 447.58C116.738 446.453 114.724 445.295 112.729 444.107C110.364 442.699 108.024 441.249 105.71 439.758H360.29Z" fill="#2F2E41"/>
<path d="M149.683 30.9667C150.325 30.9667 150.845 30.3699 150.845 29.6337C150.845 28.8976 150.325 28.3008 149.683 28.3008C149.041 28.3008 148.521 28.8976 148.521 29.6337C148.521 30.3699 149.041 30.9667 149.683 30.9667Z" fill="white"/>
<path d="M220.291 32.6198C220.933 32.6198 221.453 32.023 221.453 31.2868C221.453 30.5506 220.933 29.9539 220.291 29.9539C219.649 29.9539 219.129 30.5506 219.129 31.2868C219.129 32.023 219.649 32.6198 220.291 32.6198Z" fill="white"/>
<path d="M263.869 33.9527C264.511 33.9527 265.031 33.3559 265.031 32.6198C265.031 31.8836 264.511 31.2868 263.869 31.2868C263.227 31.2868 262.707 31.8836 262.707 32.6198C262.707 33.3559 263.227 33.9527 263.869 33.9527Z" fill="white"/>
<path d="M325.159 202.581C325.801 202.581 326.322 202.069 326.322 201.437C326.322 200.805 325.801 200.292 325.159 200.292C324.518 200.292 323.997 200.805 323.997 201.437C323.997 202.069 324.518 202.581 325.159 202.581Z" fill="white"/>
<path d="M254.572 138.191C255.214 138.191 255.735 137.679 255.735 137.047C255.735 136.415 255.214 135.902 254.572 135.902C253.931 135.902 253.41 136.415 253.41 137.047C253.41 137.679 253.931 138.191 254.572 138.191Z" fill="white"/>
<path d="M196.167 196.859C196.809 196.859 197.329 196.346 197.329 195.714C197.329 195.082 196.809 194.57 196.167 194.57C195.525 194.57 195.005 195.082 195.005 195.714C195.005 196.346 195.525 196.859 196.167 196.859Z" fill="white"/>
<path d="M186.289 136.772C186.931 136.772 187.451 136.259 187.451 135.627C187.451 134.995 186.931 134.483 186.289 134.483C185.647 134.483 185.127 134.995 185.127 135.627C185.127 136.259 185.647 136.772 186.289 136.772Z" fill="white"/>
<path d="M108.429 124.754C109.071 124.754 109.591 124.242 109.591 123.61C109.591 122.978 109.071 122.465 108.429 122.465C107.787 122.465 107.267 122.978 107.267 123.61C107.267 124.242 107.787 124.754 108.429 124.754Z" fill="white"/>
<path d="M374.043 358.435L372.881 358.467L374.625 421.371L375.786 421.34L374.043 358.435Z" fill="#B3B3B3"/>
<path d="M392.056 111.799L390.894 111.816L392.637 227.368L393.799 227.351L392.056 111.799Z" fill="#B3B3B3"/>
<path d="M352.137 231.194H335.731C335.36 231.193 334.994 231.272 334.658 231.425C334.322 231.579 334.025 231.803 333.786 232.081C333.557 232.038 333.325 232.016 333.092 232.016C332.06 232.016 331.07 232.42 330.34 233.138C329.611 233.857 329.201 234.832 329.201 235.848C329.201 236.865 329.611 237.84 330.34 238.558C331.07 239.277 332.06 239.681 333.092 239.681C333.68 239.681 334.259 239.548 334.787 239.293L335.06 242.605L336.148 255.695C336.199 255.858 336.269 256.016 336.355 256.164C336.574 256.562 336.899 256.894 337.294 257.125C337.689 257.356 338.14 257.478 338.6 257.479H349.268C349.728 257.478 350.18 257.356 350.575 257.125C350.971 256.893 351.296 256.562 351.517 256.164C351.6 256.015 351.668 255.857 351.72 255.695L354.589 234.463C354.707 234.086 354.734 233.686 354.666 233.296C354.599 232.906 354.439 232.538 354.201 232.22C353.962 231.902 353.651 231.643 353.293 231.465C352.934 231.287 352.539 231.194 352.137 231.194ZM333.092 238.587C332.355 238.586 331.649 238.297 331.128 237.783C330.608 237.27 330.315 236.574 330.315 235.848C330.315 235.123 330.608 234.427 331.128 233.913C331.649 233.4 332.355 233.111 333.092 233.11C333.142 233.11 333.189 233.123 333.239 233.126C333.129 233.567 333.143 234.029 333.279 234.463L334.453 238.222C334.04 238.459 333.57 238.585 333.092 238.587V238.587Z" fill="#F2F2F2"/>
<path d="M346.507 447.977L343.77 443.067L345.118 442.443L346.193 441.94L350.882 439.76L353.7 438.449L354.862 437.905L355.786 437.476L357.32 439.76L358.093 440.91L358.209 441.081V441.087C358.185 441.096 358.162 441.108 358.14 441.121C358.122 441.133 358.111 441.139 358.093 441.15C357.559 441.488 357.03 441.82 356.489 442.152C356.327 442.26 356.164 442.358 356.001 442.455C355.717 442.632 355.426 442.81 355.136 442.987C354.851 443.159 354.56 443.336 354.27 443.508C353.113 444.206 351.946 444.893 350.778 445.568C350.487 445.74 350.191 445.906 349.895 446.077C349.604 446.243 349.308 446.409 349.011 446.575V446.592L348.976 446.598L348.965 446.604L348.953 446.615H348.947C348.134 447.073 347.326 447.531 346.507 447.977Z" fill="#2F2E41"/>
<g opacity="0.49">
<path opacity="0.49" d="M343.742 222.591C343.875 222.419 343.995 222.237 344.101 222.047C343.895 222.131 343.682 222.197 343.464 222.244L343.742 222.591Z" fill="white"/>
<path opacity="0.49" d="M345.243 210.917C344.197 208.945 343.023 206.984 342.603 204.798C342.183 202.608 342.552 200.358 342.68 198.132C342.809 195.907 342.648 193.528 341.341 191.709C339.558 197.267 337.792 203.392 340.072 208.772C341.062 211.105 342.748 213.092 343.835 215.383C344.827 217.476 345.229 220.083 344.101 222.047C345.941 221.315 347.093 219.238 347.164 217.238C347.244 215.014 346.288 212.889 345.243 210.917Z" fill="white"/>
</g>
<g opacity="0.49">
<path opacity="0.49" d="M341.77 230.031C341.822 229.964 341.869 229.893 341.91 229.819C341.83 229.852 341.747 229.878 341.662 229.896L341.77 230.031Z" fill="white"/>
<path opacity="0.49" d="M342.353 225.495C341.895 224.756 341.55 223.956 341.328 223.118C341.231 222.257 341.241 221.387 341.358 220.528C341.473 219.662 341.289 218.784 340.837 218.032C340.145 220.192 339.459 222.572 340.345 224.662C340.729 225.568 341.384 226.34 341.806 227.23C342.025 227.625 342.148 228.064 342.166 228.513C342.184 228.962 342.096 229.409 341.91 229.819C342.265 229.647 342.564 229.382 342.774 229.052C342.985 228.722 343.097 228.34 343.1 227.951C343.069 227.083 342.812 226.237 342.353 225.495Z" fill="white"/>
</g>
<path d="M114.025 54.2958H77.4188C76.34 54.2958 75.3055 53.8738 74.5427 53.1225C73.78 52.3713 73.3514 51.3524 73.3514 50.29C73.3514 49.2276 73.78 48.2087 74.5427 47.4575C75.3055 46.7062 76.34 46.2842 77.4188 46.2842H114.025C115.103 46.2842 116.138 46.7062 116.901 47.4575C117.664 48.2087 118.092 49.2276 118.092 50.29C118.092 51.3524 117.664 52.3713 116.901 53.1225C116.138 53.8738 115.103 54.2958 114.025 54.2958Z" fill="#2F2E41"/>
<path d="M427.799 8.22902H43.7266C42.6478 8.22902 41.6133 7.80698 40.8505 7.05575C40.0878 6.30451 39.6592 5.28562 39.6592 4.22322C39.6592 3.16081 40.0878 2.14192 40.8505 1.39068C41.6133 0.639446 42.6478 0.217407 43.7266 0.217407H427.799C428.877 0.217407 429.912 0.639446 430.675 1.39068C431.437 2.14192 431.866 3.16081 431.866 4.22322C431.866 5.28562 431.437 6.30451 430.675 7.05575C429.912 7.80698 428.877 8.22902 427.799 8.22902Z" fill="#2F2E41"/>
<path d="M101.242 94.3539H64.6357C63.557 94.3539 62.5225 93.9318 61.7597 93.1806C60.9969 92.4294 60.5684 91.4105 60.5684 90.3481C60.5684 89.2857 60.9969 88.2668 61.7597 87.5155C62.5225 86.7643 63.557 86.3423 64.6357 86.3423H101.242C102.32 86.3423 103.355 86.7643 104.118 87.5155C104.881 88.2668 105.309 89.2857 105.309 90.3481C105.309 91.4105 104.881 92.4294 104.118 93.1806C103.355 93.9318 102.32 94.3539 101.242 94.3539Z" fill="#2F2E41"/>
<path d="M392.927 54.2958H356.321C355.243 54.2958 354.208 53.8738 353.445 53.1225C352.682 52.3713 352.254 51.3524 352.254 50.29C352.254 49.2276 352.682 48.2087 353.445 47.4575C354.208 46.7062 355.243 46.2842 356.321 46.2842H392.927C394.006 46.2842 395.04 46.7062 395.803 47.4575C396.566 48.2087 396.995 49.2276 396.995 50.29C396.995 51.3524 396.566 52.3713 395.803 53.1225C395.04 53.8738 394.006 54.2958 392.927 54.2958Z" fill="#2F2E41"/>
<path d="M407.453 92.6371H370.847C369.769 92.6371 368.734 92.2151 367.971 91.4638C367.209 90.7126 366.78 89.6937 366.78 88.6313C366.78 87.5689 367.209 86.55 367.971 85.7988C368.734 85.0475 369.769 84.6255 370.847 84.6255H407.453C408.532 84.6255 409.567 85.0475 410.329 85.7988C411.092 86.55 411.521 87.5689 411.521 88.6313C411.521 89.6937 411.092 90.7126 410.329 91.4638C409.567 92.2151 408.532 92.6371 407.453 92.6371Z" fill="#2F2E41"/>
<path d="M79.4525 106.649L78.2904 106.666L80.0335 222.218L81.1956 222.201L79.4525 106.649Z" fill="#B3B3B3"/>
<path d="M91.0735 239.413L89.9114 239.43L91.6545 354.982L92.8166 354.965L91.0735 239.413Z" fill="#B3B3B3"/>
<path d="M78.2901 337.262L77.1285 337.293L78.8717 400.197L80.0332 400.166L78.2901 337.262Z" fill="#B3B3B3"/>
<path d="M309.743 377.537V375.353C309.743 374.519 309.419 373.716 308.837 373.109C308.255 372.503 307.46 372.138 306.614 372.09V363.56H305.878V372.08H302.565V377.518H286.92V440.057H321.523V389.798C321.523 386.659 320.302 383.639 318.111 381.359C315.92 379.078 312.926 377.711 309.743 377.537Z" fill="#2F2E41"/>
<path d="M297.228 386.4H292.626V390.026H297.228V386.4Z" fill="white"/>
<path d="M304.774 386.4H300.172V390.026H304.774V386.4Z" fill="white"/>
<path d="M312.32 386.4H307.719V390.026H312.32V386.4Z" fill="white"/>
<path d="M297.228 395.645H292.626V399.271H297.228V395.645Z" fill="white"/>
<path d="M304.774 395.645H300.172V399.271H304.774V395.645Z" fill="white"/>
<path d="M312.32 395.645H307.719V399.271H312.32V395.645Z" fill="white"/>
<path d="M297.228 404.89H292.626V408.515H297.228V404.89Z" fill="white"/>
<path d="M304.774 404.89H300.172V408.515H304.774V404.89Z" fill="white"/>
<path d="M312.32 404.89H307.719V408.515H312.32V404.89Z" fill="white"/>
<path d="M297.228 414.135H292.626V417.76H297.228V414.135Z" fill="white"/>
<path d="M304.774 414.135H300.172V417.76H304.774V414.135Z" fill="white"/>
<path d="M312.32 414.135H307.719V417.76H312.32V414.135Z" fill="white"/>
<path d="M297.228 423.38H292.626V427.005H297.228V423.38Z" fill="white"/>
<path d="M304.774 423.38H300.172V427.005H304.774V423.38Z" fill="white"/>
<path d="M312.32 423.38H307.719V427.005H312.32V423.38Z" fill="white"/>
<path d="M297.228 432.625H292.626V436.25H297.228V432.625Z" fill="white"/>
<path d="M304.774 432.625H300.172V436.25H304.774V432.625Z" fill="white"/>
<path d="M312.32 432.625H307.719V436.25H312.32V432.625Z" fill="white"/>
<path d="M275.407 347.064H274.348V340.64C274.348 339.772 273.998 338.939 273.375 338.325C272.751 337.711 271.906 337.366 271.024 337.366H266.434V328.121H265.697V337.366H259.44V347.064H253.274V440.057H287.876V359.344C287.876 357.732 287.554 356.135 286.927 354.645C286.3 353.155 285.382 351.801 284.224 350.661C283.066 349.521 281.692 348.616 280.179 347.999C278.666 347.382 277.045 347.064 275.407 347.064Z" fill="#2F2E41"/>
<path d="M278.029 354.406H263.121V355.493H278.029V354.406Z" fill="white"/>
<path d="M278.029 361.113H263.121V362.2H278.029V361.113Z" fill="white"/>
<path d="M278.029 367.82H263.121V368.908H278.029V367.82Z" fill="white"/>
<path d="M278.029 374.527H263.121V375.615H278.029V374.527Z" fill="white"/>
<path d="M278.029 381.234H263.121V382.322H278.029V381.234Z" fill="white"/>
<path d="M278.029 387.941H263.121V389.029H278.029V387.941Z" fill="white"/>
<path d="M278.029 394.648H263.121V395.736H278.029V394.648Z" fill="white"/>
<path d="M278.029 401.355H263.121V402.443H278.029V401.355Z" fill="white"/>
<path d="M278.029 408.062H263.121V409.15H278.029V408.062Z" fill="white"/>
<path d="M278.029 414.769H263.121V415.857H278.029V414.769Z" fill="white"/>
<path d="M278.029 421.476H263.121V422.564H278.029V421.476Z" fill="white"/>
<path d="M278.029 428.183H263.121V429.271H278.029V428.183Z" fill="white"/>
<path d="M269.195 339.36H264.593V342.986H269.195V339.36Z" fill="white"/>
<path d="M416.529 383.581V388.914C415.692 389.967 414.844 391.02 413.984 392.056C413.798 392.285 413.612 392.508 413.432 392.731C413.147 393.069 412.868 393.407 412.589 393.739C412.496 393.853 412.403 393.962 412.305 394.076C411.828 394.637 411.352 395.198 410.864 395.759C410.864 395.759 410.869 395.764 410.864 395.764C410.393 396.314 409.917 396.863 409.434 397.412C409.173 397.716 408.905 398.013 408.632 398.317C408.231 398.78 407.819 399.238 407.401 399.696C407.395 399.701 407.395 399.707 407.389 399.713L407.372 399.73V383.581L416.529 383.581Z" fill="#2F2E41"/>
<path d="M428.475 372.456C426.953 374.768 425.39 377.046 423.786 379.289C423.786 379.295 423.78 379.295 423.775 379.301C422.816 380.651 421.834 381.99 420.846 383.318C420.213 384.165 419.574 385.008 418.929 385.847C418.284 386.688 417.633 387.522 416.976 388.348C416.831 388.537 416.68 388.726 416.529 388.914C415.692 389.967 414.844 391.02 413.984 392.056C413.798 392.285 413.612 392.508 413.432 392.731C413.147 393.069 412.868 393.407 412.589 393.739C412.491 393.853 412.398 393.962 412.305 394.076C411.828 394.637 411.352 395.198 410.864 395.759C410.864 395.759 410.87 395.764 410.864 395.764C410.393 396.314 409.917 396.863 409.434 397.412C409.173 397.716 408.906 398.013 408.632 398.317H389.661C387.637 398.315 385.696 397.523 384.264 396.113C382.833 394.703 382.028 392.791 382.026 390.797V379.976C382.029 377.982 382.834 376.071 384.265 374.661C385.697 373.252 387.637 372.459 389.661 372.456H428.475Z" fill="#2F2E41"/>
<path d="M438.509 279.832C437.342 279.435 436.117 279.234 434.883 279.236H431.763C430.626 279.237 429.496 279.405 428.41 279.734C426.119 280.443 424.117 281.853 422.695 283.759C421.273 285.665 420.505 287.967 420.502 290.333V380.606C420.502 380.944 420.519 381.276 420.548 381.602C420.599 382.181 420.698 382.756 420.845 383.319C421.833 381.991 422.815 380.652 423.773 379.301C423.779 379.296 423.785 379.296 423.785 379.29C425.389 377.047 426.952 374.769 428.474 372.457C429.293 371.216 430.107 369.962 430.903 368.703C436.655 359.614 441.75 350.137 446.149 340.342V290.332C446.147 288.016 445.409 285.758 444.039 283.875C442.669 281.992 440.735 280.578 438.509 279.832Z" fill="#2F2E41"/>
<path d="M302.968 447.704L295.058 443.979L305.924 411.414L317.599 416.914L302.968 447.704Z" fill="#FFB6B6"/>
<path d="M356.001 442.455C355.426 442.81 354.851 443.159 354.27 443.508C353.113 444.206 351.946 444.893 350.778 445.568C350.191 445.906 349.598 446.243 349.011 446.575V446.592L348.976 446.598L348.965 446.604L348.07 446.821L346.786 443.479L346.193 441.94L345.356 439.76L343.822 435.771L335.746 414.769L348.302 411.719L348.773 413.613H348.779L349.011 414.552L353.398 432.074L354.293 435.656L354.322 435.765L354.862 437.905L355.327 439.76L355.844 441.831L356.001 442.455Z" fill="#FFB6B6"/>
<path d="M323.976 306.166C325.104 307.971 326.904 309.269 328.991 309.785C331.078 310.301 333.287 309.993 335.147 308.926C335.521 308.703 335.876 308.45 336.207 308.17L361.216 322.304L360.13 307.795L336.547 296.597C335.264 295.327 333.59 294.513 331.786 294.282C329.983 294.05 328.152 294.415 326.581 295.318C324.784 296.381 323.488 298.104 322.981 300.108C322.473 302.112 322.794 304.232 323.873 306.002C323.907 306.057 323.941 306.112 323.976 306.166Z" fill="#FFB6B6"/>
<path d="M350.464 316.982L354.885 319.635L374.738 331.559C376.042 332.362 377.493 332.904 379.009 333.155C380.525 333.406 382.076 333.36 383.574 333.02C385.072 332.681 386.488 332.054 387.74 331.175C388.992 330.297 390.056 329.184 390.872 327.9L390.878 327.89C392.348 325.505 392.868 322.668 392.338 319.927L383.514 276.508C383.188 274.803 382.492 273.188 381.474 271.773C380.456 270.357 379.139 269.175 377.615 268.307C376.09 267.439 374.393 266.906 372.64 266.743C370.886 266.58 369.118 266.793 367.456 267.365C364.661 268.332 362.346 270.311 360.981 272.9C359.616 275.489 359.303 278.492 360.107 281.3L369.334 312.114L355.19 305.619L350.464 316.982Z" fill="#6C63FF"/>
<path d="M431.873 359.793C431.867 359.776 431.856 359.713 431.838 359.616L431.821 359.553C431.78 359.347 431.734 359.118 431.681 358.866C430.496 353.068 428.973 347.342 427.12 341.716C426.022 338.27 424.568 334.945 422.78 331.793C422.722 331.69 422.658 331.587 422.594 331.484L422.379 331.14L420.572 331.793L420.502 331.816L393.03 341.733L385.087 344.6L384.837 344.691L383.483 350.128L364.489 347.707L349.01 345.733L344.565 345.166C342.638 344.919 340.68 345.052 338.806 345.557C336.932 346.062 335.178 346.929 333.647 348.108C332.05 349.327 330.715 350.848 329.72 352.581C328.725 354.315 328.091 356.225 327.854 358.202C327.796 358.637 327.761 359.078 327.744 359.513L326.401 408.824V408.887L327.023 410.112L340.009 435.772H349.01L354.321 435.766H358.638L349.661 413.397L349.864 413.093C350.709 411.818 351.241 410.367 351.42 408.855C351.598 407.342 351.418 405.81 350.892 404.378L351.903 401.494C354.001 395.536 353.008 392.675 351.752 389.058C350.625 386.118 349.963 383.024 349.789 379.885L349.579 375.805C354.849 376.715 359.759 377.728 364.489 378.746C366.069 379.084 367.634 379.425 369.184 379.771C373.594 380.738 377.853 381.671 382.025 382.449C390.473 384.034 398.567 385.001 406.882 384.4C407.045 384.389 407.208 384.377 407.37 384.36C409.392 384.2 411.426 383.943 413.483 383.582C414.639 383.376 415.801 383.141 416.975 382.867C417.3 382.787 417.632 382.706 417.957 382.626C418.86 382.392 419.731 382.048 420.548 381.602C421.711 380.963 422.794 380.19 423.773 379.302C423.779 379.296 423.785 379.296 423.785 379.29C425.389 377.047 426.952 374.769 428.474 372.457C429.293 371.215 430.107 369.962 430.903 368.703C432.065 365.562 432.506 362.391 431.873 359.793Z" fill="#2F2E41"/>
<path d="M432.065 350.528C431.978 350.162 431.867 349.79 431.751 349.43C430.829 346.699 429.754 344.021 428.532 341.407C427.161 338.431 425.516 335.243 423.558 331.793C422.611 330.122 421.592 328.384 420.502 326.579C419.956 325.675 419.388 324.754 418.8 323.815C418.776 323.772 418.751 323.73 418.724 323.689L418.555 323.415L391.374 326.997L381.252 328.33L380.648 333.298L380.503 334.528C380.497 334.528 380.497 334.528 380.503 334.534L380.096 337.887V337.893L379.556 342.322L379.509 342.316L364.489 340.399L349.01 338.425L340.695 337.366C338.768 337.119 336.811 337.252 334.936 337.757C333.062 338.262 331.308 339.129 329.777 340.308C328.18 341.528 326.845 343.048 325.85 344.782C324.856 346.515 324.221 348.425 323.984 350.402C323.932 350.803 323.897 351.215 323.88 351.621L316.036 369.928C311.342 380.876 308.352 392.459 307.169 404.286L301.416 422.398L302.236 422.473L314.426 423.589L317.645 423.886L324.734 413.694C325.541 412.533 326.308 411.337 327.023 410.112C328.2 408.112 329.246 406.04 330.155 403.909L345.489 367.971C346.674 368.171 347.848 368.362 349.01 368.543C354.385 369.401 359.544 370.101 364.489 370.643C380.567 372.412 394.488 372.549 406.882 371.05C410.363 370.632 413.727 370.082 416.975 369.401C418.166 369.155 419.342 368.89 420.502 368.606C420.775 368.543 421.042 368.48 421.31 368.411C423.711 367.801 425.919 366.608 427.731 364.941C429.542 363.273 430.901 361.184 431.681 358.866C432.613 356.18 432.746 353.287 432.065 350.528Z" fill="#2F2E41"/>
<path d="M374.265 242.446C384.649 242.446 393.067 233.971 393.067 223.516C393.067 213.061 384.649 204.586 374.265 204.586C363.881 204.586 355.463 213.061 355.463 223.516C355.463 233.971 363.881 242.446 374.265 242.446Z" fill="#FFB6B6"/>
<path d="M418.91 324.451C418.881 324.239 418.846 324.027 418.799 323.815C418.352 321.492 417.19 319.214 416.069 317.006C414.999 314.9 413.983 312.908 413.564 310.928C413.152 308.977 413.396 307.02 413.634 305.131C413.89 303.082 414.157 300.965 413.558 298.911C410.523 288.419 406.354 278.278 401.124 268.661C399.804 264.433 397.274 260.669 393.837 257.82C390.4 254.972 386.202 253.161 381.746 252.604C382.266 251.647 382.483 250.558 382.368 249.479C382.295 248.782 382.082 248.105 381.742 247.489C381.402 246.873 380.941 246.33 380.386 245.891C379.853 245.468 379.241 245.153 378.583 244.965C377.926 244.776 377.238 244.717 376.557 244.792L367.818 245.759C366.417 245.933 365.142 246.644 364.271 247.738C363.399 248.832 363.002 250.221 363.164 251.602C363.213 252.027 363.311 252.446 363.455 252.85C355.343 263.024 351.177 272.295 350.794 281.062V281.068C350.747 282.08 350.753 283.094 350.811 284.106C350.995 287.379 351.717 290.601 352.949 293.646C354.404 297.164 356.352 300.463 358.737 303.449C359.225 304.055 359.73 304.65 360.253 305.234C360.741 305.806 361.287 306.407 361.892 307.037L363.42 309.394L364.843 311.598L372.455 328.897L376.331 328.771L376.871 332.577L376.999 333.464L379.509 342.317L379.695 342.98L383.129 341.372L403.617 331.793L418.933 324.628L418.91 324.451Z" fill="#FFEA29"/>
<path opacity="0.2" d="M353.179 293.554C354.926 297.768 357.382 301.662 360.444 305.073C360.968 305.689 361.522 306.295 362.101 306.902L365.075 311.498C376.039 303.404 384.922 271.536 384.922 271.536L372.552 269.166L353.179 293.554Z" fill="black"/>
<path d="M345.69 244.215C346.774 246.047 347.088 248.224 346.567 250.281C346.046 252.339 344.73 254.114 342.899 255.231C342.524 255.452 342.13 255.642 341.722 255.8L342.598 284.185L330.117 276.447L331.199 250.678C330.668 248.963 330.728 247.123 331.37 245.446C332.012 243.768 333.2 242.347 334.749 241.405C336.539 240.338 338.686 240.016 340.717 240.508C342.748 241.001 344.498 242.268 345.581 244.031C345.618 244.092 345.655 244.153 345.69 244.215Z" fill="#FFB6B6"/>
<path d="M343.695 273.471L329.969 275.393L330.559 303.387C330.594 305.384 331.146 307.339 332.163 309.067C333.181 310.794 334.63 312.237 336.374 313.257C338.503 314.491 340.982 315.01 343.438 314.736C345.893 314.461 348.191 313.408 349.985 311.735L382.39 281.038C384.67 278.908 386.035 275.998 386.203 272.907C386.371 269.817 385.331 266.78 383.295 264.422C381.301 262.097 378.451 260.647 375.371 260.392C372.292 260.137 369.235 261.097 366.875 263.061C366.782 263.138 366.691 263.216 366.601 263.296C366.281 263.578 365.976 263.877 365.689 264.191L344.292 288.434L343.695 273.471Z" fill="#FFEA29"/>
<path d="M305.495 442.387L296.937 438.347L295.594 437.712L293.45 442.897L278.482 446.141C277.742 446.301 277.074 446.69 276.574 447.251C276.074 447.811 275.769 448.515 275.704 449.258C275.64 450.002 275.818 450.746 276.213 451.383C276.608 452.019 277.2 452.515 277.901 452.797L292.526 458.674L297.169 454.559L296.03 460.081L301.538 462.296L307.575 443.372L305.495 442.387Z" fill="#2F2E41"/>
<path d="M424.577 215.306C421.381 211.636 419.861 206.766 417.306 202.598C414.751 198.43 410.305 194.699 405.608 195.669C402.371 196.338 399.868 199.152 398.602 202.289C397.335 205.426 397.098 208.886 396.876 212.275C396.954 205.31 392.295 198.558 385.877 196.335C379.459 194.113 371.778 196.592 367.745 202.187C365.985 200.581 363.688 199.666 361.289 199.616C358.89 199.567 356.555 200.386 354.729 201.918C351.121 205.094 350.323 211.137 352.976 215.187C355.629 219.238 361.374 220.746 365.59 218.5L367.081 219.85C366.242 222.74 367.869 226.154 370.604 227.242C372.822 228.124 375.953 227.977 376.782 230.27C377.362 231.871 376.278 233.581 375.125 234.812C373.972 236.042 372.603 237.313 372.465 239.016C372.256 241.586 374.952 243.386 377.403 243.928C383.313 245.236 389.871 242.54 393.277 237.403C393.343 237.304 393.414 237.205 393.491 237.106C395.402 234.699 396.795 231.933 397.584 228.978C398.374 226.023 398.543 222.94 398.082 219.919C397.89 218.732 398.083 217.848 398.914 217.567C402.507 216.352 412.572 218.903 415.618 221.208C418.664 223.513 421.103 226.564 424.037 229.018C426.971 231.472 430.71 233.365 434.435 232.697C437.419 232.162 439.957 230.028 441.665 227.455C443.372 224.882 444.354 221.882 445.235 218.901C438.637 222.655 429.607 221.084 424.577 215.306Z" fill="#2F2E41"/>
<path d="M365.228 436.486V436.612L365.066 436.595C364.874 436.732 364.682 436.858 364.49 436.99C363.102 437.928 361.701 438.852 360.289 439.76C359.598 440.206 358.907 440.647 358.209 441.082V441.087C358.203 441.087 358.198 441.093 358.192 441.093H358.186L358.174 441.104L358.14 441.121C358.122 441.133 358.11 441.139 358.093 441.15V335.363C358.093 332.295 357.047 329.806 355.763 329.8H259.025C257.735 329.806 256.695 332.295 256.689 335.363V475.829C255.399 475.955 254.109 476.075 252.819 476.178C252.796 476.178 252.772 476.184 252.749 476.184C252.238 476.23 251.727 476.264 251.215 476.304H251.209C250.902 475.743 250.599 475.177 250.297 474.604V328.146C250.297 327.299 250.332 326.447 250.39 325.605C250.473 324.45 250.619 323.3 250.826 322.161C251.808 316.844 254.028 313.245 256.549 313.233H358.233C358.601 313.236 358.964 313.312 359.302 313.457C359.797 313.673 360.245 313.982 360.621 314.366C361.13 314.888 361.566 315.475 361.916 316.112C363.16 318.269 364.049 321.485 364.363 325.228C364.363 325.262 364.368 325.296 364.368 325.331C364.45 326.258 364.49 327.202 364.485 328.146L364.566 340.41L364.618 347.723L364.775 370.671L364.833 378.82L365.228 436.486Z" fill="#2F2E41"/>
<path d="M289.136 279.211L282.407 308.371L278.108 313.009H275.005L287.791 259.992L288.423 268.999V269.005L289.136 279.211Z" fill="#2F2E41"/>
<path d="M321.521 309.011L282.044 308.765L278.541 308.742L276.042 308.725L273.131 308.708H273.108C272.686 308.709 272.281 308.873 271.981 309.166L267.065 314.007C266.956 314.112 266.868 314.237 266.803 314.373C266.773 314.412 266.747 314.454 266.728 314.499C266.622 314.742 266.578 315.008 266.6 315.272C266.622 315.536 266.71 315.791 266.856 316.014C267.002 316.236 267.201 316.42 267.436 316.549C267.671 316.678 267.935 316.749 268.204 316.754H319.342C319.649 316.753 319.949 316.666 320.208 316.504C320.467 316.342 320.674 316.111 320.806 315.838L321.207 314.98L322.032 313.234L322.967 311.266C323.067 311.056 323.119 310.828 323.118 310.596C323.116 310.178 322.948 309.778 322.649 309.482C322.35 309.185 321.945 309.016 321.521 309.011Z" fill="#2F2E41"/>
<path opacity="0.17" d="M321.207 314.978L320.803 315.84C320.672 316.112 320.465 316.342 320.207 316.504C319.948 316.666 319.649 316.753 319.343 316.754H268.203C267.934 316.75 267.67 316.68 267.435 316.551C267.2 316.422 267.001 316.238 266.856 316.015C266.71 315.792 266.622 315.538 266.6 315.274C266.578 315.01 266.622 314.744 266.729 314.501C266.747 314.456 266.772 314.413 266.803 314.375L321.207 314.978Z" fill="black"/>
<path opacity="0.17" d="M288.423 268.999V269.005L277.475 313.009H275.005L287.791 259.992L288.423 268.999Z" fill="black"/>
<path d="M301.858 277.062L286.361 160.945C286.305 160.51 286.075 160.115 285.722 159.846L275.054 146.696L274.096 145.969C273.74 145.704 273.294 145.587 272.852 145.643L271.248 145.854C270.806 145.911 270.405 146.138 270.132 146.485C269.86 146.833 269.739 147.273 269.796 147.709L285.856 268.02V268.026L286.838 275.385L288.006 284.124V284.135L289.819 297.732C289.847 297.965 289.927 298.189 290.053 298.388C290.178 298.588 290.346 298.758 290.545 298.888C290.74 299.02 290.962 299.11 291.196 299.152C291.429 299.193 291.669 299.185 291.899 299.128L292.916 298.876C293.305 298.778 293.647 298.547 293.88 298.224L294.333 297.589L294.543 297.291L301.562 278.235C301.808 277.895 301.914 277.476 301.858 277.062Z" fill="#2F2E41"/>
<path opacity="0.17" d="M275.052 146.696L294.544 297.294L294.333 297.588L293.881 298.222C293.648 298.545 293.306 298.776 292.916 298.875L291.898 299.127C291.667 299.183 291.427 299.191 291.194 299.15C290.96 299.108 290.738 299.019 290.541 298.887C290.345 298.755 290.179 298.584 290.055 298.385C289.93 298.186 289.849 297.964 289.818 297.732L269.798 147.71C269.74 147.275 269.86 146.834 270.132 146.486C270.404 146.137 270.805 145.909 271.247 145.852L272.855 145.644C273.073 145.615 273.295 145.629 273.507 145.685C273.72 145.741 273.919 145.839 274.093 145.971L275.052 146.696Z" fill="black"/>
<path d="M275.626 151.003L285.97 165.545L298.265 257.679L291.6 270.703L275.626 151.003Z" fill="#0092DF"/>
<path d="M431.776 336.759C431.776 337.765 431.466 338.748 430.887 339.578C430.308 340.407 429.487 341.045 428.533 341.405C428.081 341.576 427.605 341.681 427.121 341.714C426.994 341.726 426.86 341.732 426.732 341.732H416.976V388.348C416.831 388.537 416.68 388.726 416.529 388.914C415.692 389.967 414.844 391.02 413.984 392.056C413.798 392.285 413.612 392.508 413.432 392.731C413.147 393.069 412.868 393.407 412.589 393.739C412.491 393.853 412.398 393.962 412.305 394.076C411.828 394.637 411.352 395.198 410.864 395.759C410.864 395.759 410.87 395.764 410.864 395.764C410.393 396.314 409.917 396.863 409.434 397.412C408.554 396.929 407.845 396.192 407.401 395.301C407.395 395.295 407.395 395.289 407.389 395.278C407.382 395.265 407.376 395.252 407.372 395.238C407.046 394.568 406.879 393.834 406.884 393.092V341.732H385.013C384.367 341.736 383.727 341.613 383.13 341.371C382.377 341.075 381.708 340.604 381.18 339.998C380.652 339.392 380.28 338.67 380.097 337.892V337.886C379.825 336.756 379.969 335.568 380.504 334.533C380.498 334.527 380.498 334.527 380.504 334.527C380.732 334.074 381.032 333.661 381.393 333.302C381.393 333.297 381.393 333.297 381.399 333.291C381.87 332.817 382.432 332.44 383.052 332.182C383.673 331.925 384.34 331.792 385.013 331.792H426.732C428.07 331.792 429.352 332.316 430.298 333.247C431.243 334.179 431.775 335.442 431.776 336.759Z" fill="#2F2E41"/>
<path d="M431.44 240.999C429.364 240.999 427.307 241.402 425.389 242.185C423.47 242.967 421.727 244.115 420.259 245.561C418.791 247.007 417.626 248.724 416.831 250.613C416.036 252.503 415.627 254.528 415.627 256.573V256.573C415.628 260.186 416.904 263.686 419.236 266.474C421.568 269.263 424.812 271.166 428.412 271.859V297.33H438.506V240.999H431.44Z" fill="#2F2E41"/>
<path d="M367.54 201.349C371.86 206.999 377.509 220.646 375.455 227.423L367.54 201.349Z" fill="#FD6584"/>
</g>
<defs>
<clipPath id="clip0_69:3">
<rect width="466" height="477" fill="white"/>
</clipPath>
</defs>
</svg>
